<svg width="30" height="30" viewBox="0 0 30 30" fill="none" xmlns="http://www.w3.org/2000/svg">
<g clip-path="url(#clip0_30_2)">
<path d="M15 30C13.62 30 12.29 29.82 11.01 29.46C9.73 29.0999 8.535 28.595 7.425 27.945C6.315 27.295 5.305 26.515 4.395 25.605C3.485 24.6951 2.705 23.685 2.055 22.575C1.405 21.4649 0.9 20.27 0.54 18.99C0.18 17.71 0 16.38 0 15C0 13.62 0.18 12.29 0.54 11.01C0.9 9.73 1.405 8.535 2.055 7.425C2.705 6.315 3.485 5.305 4.395 4.395C5.305 3.485 6.315 2.705 7.425 2.055C8.535 1.405 9.73 0.9 11.01 0.54C12.29 0.18 13.62 0 15 0C17.06 0 19.005 0.395 20.835 1.185C22.665 1.975 24.255 3.045 25.605 4.395C26.955 5.745 28.025 7.335 28.815 9.165C29.605 10.995 30 12.94 30 15C30 16.38 29.82 17.71 29.46 18.99C29.0999 20.2699 28.595 21.4649 27.945 22.575C27.295 23.685 26.515 24.695 25.605 25.605C24.6951 26.515 23.685 27.2951 22.575 27.945C21.4649 28.595 20.27 29.1 18.9899 29.46C17.71 29.82 16.38 30 15 30ZM22.23 8.82H8.01C7.87 8.82 7.75 8.865 7.65 8.955C7.55 9.045 7.5 9.17 7.5 9.33V10.92C7.5 11 7.53 11.04 7.59 11.04L15.06 15.3L15.1201 15.33C15.16 15.33 15.1901 15.32 15.2101 15.3L22.4401 11.04C22.48 11.02 22.5101 11.01 22.5301 11.01C22.55 11.01 22.5801 11 22.6201 10.98C22.7001 10.98 22.7401 10.94 22.7401 10.86V9.33C22.7401 9.17 22.6901 9.045 22.59 8.955C22.4899 8.865 22.37 8.82 22.23 8.82ZM12.03 15.21C12.05 15.19 12.06 15.16 12.06 15.12C12.06 15.0599 12.04 15.03 12 15.03L7.71 12.57C7.65 12.55 7.6 12.55 7.56 12.57C7.52 12.57 7.5 12.6 7.5 12.66V19.11C7.5 19.1701 7.53 19.21 7.59 19.2299H7.65C7.69 19.2299 7.71 19.2199 7.71 19.2L12.03 15.21ZM17.25 15.69C17.23 15.6299 17.1799 15.62 17.0999 15.66L15.4499 16.62C15.2499 16.74 15.04 16.74 14.8199 16.62L13.3799 15.8101C13.3199 15.7701 13.2699 15.7701 13.2299 15.8101L7.73985 20.9101C7.71985 20.93 7.70985 20.9701 7.70985 21.03C7.70985 21.05 7.72985 21.08 7.76985 21.12C7.88985 21.16 7.96985 21.1801 8.00985 21.1801H22.0799C22.1199 21.1801 22.16 21.1601 22.1999 21.12C22.1999 21.04 22.1899 20.9901 22.1699 20.97L17.25 15.69ZM22.65 12.45H22.5301L18.4501 14.88C18.4103 14.88 18.3901 14.91 18.3901 14.97C18.3701 14.99 18.3801 15.02 18.42 15.0599L22.5 19.47C22.54 19.51 22.57 19.5301 22.59 19.5301H22.65C22.7101 19.47 22.7401 19.4301 22.7401 19.4101V12.57C22.74 12.53 22.71 12.49 22.65 12.45Z" fill="white"/>
</g>
<defs>
<clipPath id="clip0_30_2">
<rect width="30" height="30" fill="white"/>
</clipPath>
</defs>
</svg>
