<svg width="25" height="25" viewBox="0 0 25 25" fill="none" xmlns="http://www.w3.org/2000/svg">
<g clip-path="url(#clip0_14_113)">
<path d="M22.5586 2.14844H20.2311V1.46484C20.2311 0.657129 19.574 0 18.7663 0C17.9585 0 17.3014 0.657129 17.3014 1.46484V2.14844H9.09829V1.46484C9.09829 0.657129 8.44116 0 7.63345 0C6.82573 0 6.1686 0.657129 6.1686 1.46484V2.1665C6.1271 2.15503 6.08359 2.14844 6.03843 2.14844H4.09292C2.74673 2.14844 1.65151 3.24365 1.65151 4.58984V12.9069C1.65151 13.1766 1.87017 13.3952 2.1398 13.3952C2.40942 13.3952 2.62808 13.1766 2.62808 12.9069V7.17773H20.2311C20.5007 7.17773 20.7194 6.95913 20.7194 6.68945C20.7194 6.41978 20.5007 6.20117 20.2311 6.20117H2.62808V4.58984C2.62808 3.78213 3.2852 3.125 4.09292 3.125H6.03843C6.08359 3.125 6.1271 3.11836 6.1686 3.10693V3.73535C6.1686 4.54307 6.82573 5.2002 7.63345 5.2002C8.44116 5.2002 9.09829 4.54307 9.09829 3.73535V3.125H17.3014V3.73535C17.3014 4.54307 17.9585 5.2002 18.7663 5.2002C19.574 5.2002 20.2311 4.54307 20.2311 3.73535V3.125H22.5586C23.3663 3.125 24.0234 3.78213 24.0234 4.58984V23.1442C24.0234 23.629 23.6291 24.0234 23.1442 24.0234C22.6594 24.0234 22.265 23.629 22.265 23.1442V21.8811C22.265 21.6114 22.0464 21.3928 21.7768 21.3928H16.097C15.8274 21.3928 15.6087 21.6114 15.6087 21.8811C15.6087 22.1508 15.8274 22.3694 16.097 22.3694H21.2885V23.1442C21.2885 23.4622 21.3689 23.7616 21.5104 24.0234H1.85547C1.37085 24.0234 0.976562 23.6292 0.976562 23.1445V22.3694H11.9055C12.1751 22.3694 12.3938 22.1508 12.3938 21.8811C12.3938 21.6114 12.1751 21.3928 11.9055 21.3928H7.02681C7.88003 20.658 8.42183 19.5711 8.42183 18.3594C8.42183 16.1516 6.62568 14.3555 4.41792 14.3555C2.21016 14.3555 0.414014 16.1516 0.414014 18.3594C0.414014 19.5711 0.95581 20.658 1.80903 21.3928H0.488281C0.218652 21.3928 0 21.6114 0 21.8811V23.1445C0 24.1676 0.832373 25 1.85547 25H23.1442C24.1675 25 25 24.1675 25 23.1442V4.58984C25 3.24365 23.9048 2.14844 22.5586 2.14844ZM8.12173 3.73535C8.12173 4.00459 7.90269 4.22363 7.63345 4.22363C7.36421 4.22363 7.14517 4.00459 7.14517 3.73535V1.46484C7.14517 1.19561 7.36421 0.976562 7.63345 0.976562C7.90269 0.976562 8.12173 1.19561 8.12173 1.46484V3.73535ZM19.2545 3.73535C19.2545 4.00459 19.0355 4.22363 18.7663 4.22363C18.497 4.22363 18.278 4.00459 18.278 3.73535V1.46484C18.278 1.19561 18.497 0.976562 18.7663 0.976562C19.0355 0.976562 19.2545 1.19561 19.2545 1.46484V3.73535ZM1.39058 18.3594C1.39058 16.6901 2.74863 15.332 4.41792 15.332C6.08721 15.332 7.44526 16.6901 7.44526 18.3594C7.44526 20.0287 6.08721 21.3867 4.41792 21.3867C2.74863 21.3867 1.39058 20.0287 1.39058 18.3594Z" fill="white"/>
<path d="M2.82368 17.9653C2.73291 17.8745 2.60693 17.8223 2.47852 17.8223C2.35005 17.8223 2.22412 17.8745 2.1333 17.9653C2.04248 18.0562 1.99023 18.1821 1.99023 18.3105C1.99023 18.439 2.04243 18.5649 2.1333 18.6558C2.22417 18.7466 2.35005 18.7988 2.47852 18.7988C2.60693 18.7988 2.73291 18.7466 2.82368 18.6558C2.9145 18.5649 2.9668 18.439 2.9668 18.3105C2.9668 18.1821 2.91455 18.0562 2.82368 17.9653Z" fill="white"/>
<path d="M11.1079 2.77344C11.0171 2.68262 10.8911 2.63086 10.7627 2.63086C10.6343 2.63086 10.5083 2.68262 10.4175 2.77344C10.3267 2.86475 10.2744 2.99023 10.2744 3.11865C10.2744 3.24756 10.3266 3.37305 10.4175 3.46436C10.5083 3.55518 10.6343 3.60694 10.7627 3.60694C10.8911 3.60694 11.0171 3.55518 11.1079 3.46436C11.1987 3.37305 11.251 3.24707 11.251 3.11865C11.251 2.99023 11.1987 2.86475 11.1079 2.77344Z" fill="white"/>
<path d="M13.9529 6.44531C12.9298 6.44531 12.0974 7.27769 12.0974 8.30078C12.0974 9.32388 12.9298 10.1562 13.9529 10.1562C14.976 10.1562 15.8083 9.32388 15.8083 8.30078C15.8083 7.27769 14.976 6.44531 13.9529 6.44531ZM13.9529 9.17969C13.4683 9.17969 13.074 8.7854 13.074 8.30078C13.074 7.81616 13.4683 7.42188 13.9529 7.42188C14.4375 7.42188 14.8318 7.81616 14.8318 8.30078C14.8318 8.7854 14.4375 9.17969 13.9529 9.17969Z" fill="white"/>
<path d="M9.39557 6.44531C8.37247 6.44531 7.5401 7.27769 7.5401 8.30078C7.5401 9.32388 8.37247 10.1562 9.39557 10.1562C10.4187 10.1562 11.251 9.32388 11.251 8.30078C11.251 7.27769 10.4187 6.44531 9.39557 6.44531ZM9.39557 9.17969C8.91095 9.17969 8.51666 8.7854 8.51666 8.30078C8.51666 7.81616 8.91095 7.42188 9.39557 7.42188C9.88019 7.42188 10.2745 7.81616 10.2745 8.30078C10.2745 8.7854 9.88019 9.17969 9.39557 9.17969Z" fill="white"/>
<path d="M4.83826 6.44531C3.81516 6.44531 2.98279 7.27769 2.98279 8.30078C2.98279 9.32388 3.81516 10.1562 4.83826 10.1562C5.86135 10.1562 6.69373 9.32388 6.69373 8.30078C6.69373 7.27769 5.86135 6.44531 4.83826 6.44531ZM4.83826 9.17969C4.35364 9.17969 3.95935 8.7854 3.95935 8.30078C3.95935 7.81616 4.35364 7.42188 4.83826 7.42188C5.32288 7.42188 5.71716 7.81616 5.71716 8.30078C5.71716 8.7854 5.32288 9.17969 4.83826 9.17969Z" fill="white"/>
<path d="M18.5102 11.5234C17.4871 11.5234 16.6547 12.3558 16.6547 13.3789C16.6547 14.402 17.4871 15.2344 18.5102 15.2344C19.5333 15.2344 20.3657 14.402 20.3657 13.3789C20.3657 12.3558 19.5333 11.5234 18.5102 11.5234ZM18.5102 14.2578C18.0256 14.2578 17.6313 13.8635 17.6313 13.3789C17.6313 12.8943 18.0256 12.5 18.5102 12.5C18.9948 12.5 19.3891 12.8943 19.3891 13.3789C19.3891 13.8635 18.9948 14.2578 18.5102 14.2578Z" fill="white"/>
<path d="M9.39557 11.5234C8.37247 11.5234 7.5401 12.3558 7.5401 13.3789C7.5401 14.402 8.37247 15.2344 9.39557 15.2344C10.4187 15.2344 11.251 14.402 11.251 13.3789C11.251 12.3558 10.4187 11.5234 9.39557 11.5234ZM9.39557 14.2578C8.91095 14.2578 8.51666 13.8635 8.51666 13.3789C8.51666 12.8943 8.91095 12.5 9.39557 12.5C9.88019 12.5 10.2745 12.8943 10.2745 13.3789C10.2745 13.8635 9.88019 14.2578 9.39557 14.2578Z" fill="white"/>
<path d="M4.83826 11.5234C3.81516 11.5234 2.98279 12.3558 2.98279 13.3789C2.98279 14.402 3.81516 15.2344 4.83826 15.2344C5.86135 15.2344 6.69373 14.402 6.69373 13.3789C6.69373 12.3558 5.86135 11.5234 4.83826 11.5234ZM4.83826 14.2578C4.35364 14.2578 3.95935 13.8635 3.95935 13.3789C3.95935 12.8943 4.35364 12.5 4.83826 12.5C5.32288 12.5 5.71716 12.8943 5.71716 13.3789C5.71716 13.8635 5.32288 14.2578 4.83826 14.2578Z" fill="white"/>
<path d="M13.9529 11.5234C12.9298 11.5234 12.0974 12.3558 12.0974 13.3789C12.0974 14.402 12.9298 15.2344 13.9529 15.2344C14.976 15.2344 15.8083 14.402 15.8083 13.3789C15.8083 12.3558 14.976 11.5234 13.9529 11.5234ZM13.9529 14.2578C13.4683 14.2578 13.074 13.8635 13.074 13.3789C13.074 12.8943 13.4683 12.5 13.9529 12.5C14.4375 12.5 14.8318 12.8943 14.8318 13.3789C14.8318 13.8635 14.4375 14.2578 13.9529 14.2578Z" fill="white"/>
<path d="M22.3573 5.20465C22.1666 5.01398 21.8575 5.01398 21.6667 5.20465L20.0766 6.79484L19.5332 6.25143C19.3424 6.06075 19.0334 6.06075 18.8426 6.25143C18.6519 6.4421 18.6519 6.75128 18.8426 6.942L19.7313 7.83063C19.8229 7.92218 19.9471 7.97365 20.0766 7.97365C20.2061 7.97365 20.3302 7.92218 20.4218 7.83063L22.3573 5.89518C22.548 5.7045 22.548 5.39532 22.3573 5.20465Z" fill="white"/>
</g>
<defs>
<clipPath id="clip0_14_113">
<rect width="25" height="25" fill="white" transform="matrix(-1 0 0 -1 25 25)"/>
</clipPath>
</defs>
</svg>
