<svg width="25" height="25" viewBox="0 0 25 25" fill="none" xmlns="http://www.w3.org/2000/svg">
<g clip-path="url(#clip0_14_72)">
<path d="M24.9977 23.6571L24.7746 20.1476C24.6729 18.5493 23.6328 17.1722 22.1246 16.6391L21.3614 16.3694L21.112 16.2813L16.9806 14.8211C16.9646 14.8155 16.9484 14.8106 16.9321 14.8063C16.9251 14.8044 16.918 14.8029 16.9109 14.8013C16.9019 14.7993 16.8929 14.7972 16.8839 14.7954C16.8747 14.7937 16.8656 14.7924 16.8564 14.791C16.8497 14.7901 16.843 14.7892 16.8363 14.7885C16.8256 14.7872 16.8149 14.7863 16.8041 14.7856C16.7999 14.7853 16.7957 14.7852 16.7915 14.785C16.7821 14.7847 16.7727 14.7839 16.7633 14.7839C16.7304 14.7839 16.6981 14.787 16.6661 14.7918C16.6648 14.792 16.6634 14.7922 16.662 14.7925C16.5617 14.808 16.4672 14.8465 16.3847 14.9056C16.3768 14.9113 16.3689 14.9171 16.3612 14.9231C16.355 14.928 16.3488 14.9328 16.3428 14.9379C16.3306 14.9481 16.3188 14.9588 16.3074 14.97L15.0125 14.5702L15.0124 13.5863C16.2431 12.7604 17.1936 11.2597 17.2487 9.86926H17.2835C17.8244 9.86926 18.2644 9.42922 18.2644 8.88835V7.96896C18.2644 7.84967 18.242 7.73581 18.2028 7.62995C18.4403 7.50197 18.6026 7.2485 18.6026 6.957V6.44367C18.6026 6.0714 18.3382 5.76071 17.9899 5.69484V5.54879C17.9899 5.50572 17.9893 5.46285 17.9883 5.42003C17.977 4.97643 17.9058 4.53849 17.7766 4.11842C17.7172 3.92506 17.5119 3.81656 17.319 3.87598C17.1257 3.93546 17.0171 4.14034 17.0765 4.33365C17.1861 4.69 17.2465 5.06173 17.2561 5.43859C17.2571 5.47516 17.2575 5.51193 17.2575 5.54879V6.04825C17.2575 6.25055 17.4214 6.41447 17.6237 6.41447H17.8523C17.8584 6.41447 17.8702 6.42477 17.8702 6.44371V6.95705C17.8702 6.97599 17.8584 6.98629 17.8523 6.98629H7.14782C7.14171 6.98629 7.1299 6.97599 7.1299 6.95705V6.44371C7.1299 6.42477 7.14171 6.41447 7.14782 6.41447H7.37638C7.57868 6.41447 7.74259 6.25055 7.74259 6.04825V5.54879C7.74259 5.51193 7.74308 5.47516 7.74401 5.43863C7.79303 3.50616 9.21486 1.8711 11.0546 1.54375V2.89097V2.89166C11.0546 3.22603 11.189 3.52945 11.4064 3.75123C11.4092 3.75411 11.4119 3.75714 11.4148 3.76002C11.4177 3.763 11.4209 3.76583 11.4239 3.76876C11.6456 3.98604 11.9487 4.12037 12.2827 4.12037H12.2834H12.717H12.7177C13.0517 4.12037 13.3548 3.98604 13.5764 3.76876C13.5795 3.76578 13.5826 3.763 13.5856 3.76002C13.5885 3.75714 13.5912 3.75411 13.594 3.75123C13.8114 3.52945 13.9458 3.22603 13.9458 2.89166V2.89097V1.54346C14.9475 1.71997 15.8511 2.28194 16.4696 3.12569C16.5892 3.28878 16.8183 3.32408 16.9815 3.2045C17.1446 3.08492 17.1799 2.85572 17.0603 2.69263C16.276 1.62276 15.1021 0.936281 13.8116 0.783986C13.6081 0.385889 13.194 0.112549 12.717 0.112549H12.2834C11.8063 0.112549 11.3922 0.385938 11.1887 0.784132C10.1093 0.911525 9.10549 1.41367 8.34079 2.21421C7.51427 3.07945 7.0423 4.21798 7.01178 5.42013C7.01076 5.4629 7.01017 5.50577 7.01017 5.54884V5.69488C6.66193 5.76075 6.39747 6.07145 6.39747 6.44371V6.95705C6.39747 7.24855 6.55978 7.50202 6.79733 7.63C6.75817 7.73586 6.73566 7.84972 6.73566 7.96901V8.8884C6.73566 9.42927 7.1757 9.86931 7.71657 9.86931H7.75119C7.80241 11.2609 8.75475 12.7682 9.98757 13.5961L9.98747 14.5703L8.6925 14.9698C8.68112 14.9587 8.66935 14.9481 8.65729 14.9379C8.65124 14.9328 8.64508 14.928 8.63888 14.9231C8.63117 14.9171 8.62336 14.9113 8.6154 14.9056C8.53273 14.8464 8.43805 14.8079 8.33747 14.7924C8.33659 14.7922 8.33571 14.7921 8.33488 14.792C8.30265 14.7871 8.27003 14.7839 8.23683 14.7839C8.22716 14.7839 8.21755 14.7847 8.20793 14.7851C8.20407 14.7853 8.20016 14.7854 8.1963 14.7856C8.18532 14.7863 8.17438 14.7873 8.16344 14.7886C8.15695 14.7893 8.1505 14.7901 8.14406 14.791C8.13468 14.7924 8.12531 14.7938 8.11603 14.7955C8.10719 14.7972 8.0984 14.7992 8.08961 14.8013C8.08234 14.803 8.07506 14.8044 8.06789 14.8064C8.05163 14.8107 8.03551 14.8156 8.0195 14.8212L4.46661 16.0769L3.63863 16.3695H3.63858L2.8754 16.6392C1.36724 17.1722 0.327103 18.5494 0.225491 20.1477L0.198587 20.5697C0.185745 20.7716 0.338968 20.9456 0.540824 20.9584C0.74224 20.972 0.916703 20.8181 0.929594 20.6163L0.956449 20.1942C1.03936 18.8892 1.88843 17.7649 3.11944 17.3298L3.39444 17.2327V24.155H1.15547C1.0376 24.155 0.928227 24.1076 0.847416 24.0215C0.766312 23.9351 0.725785 23.8222 0.733304 23.7037L0.835795 22.0921C0.848637 21.8903 0.695365 21.7163 0.493509 21.7034C0.2918 21.6906 0.117678 21.8438 0.104788 22.0457L0.00229736 23.6573C-0.0178687 23.9751 0.0954616 24.2906 0.313333 24.5228C0.530814 24.7545 0.837748 24.8875 1.15542 24.8875H3.7606H6.53121H18.4687H21.2393H23.8445C24.1622 24.8875 24.4691 24.7545 24.6866 24.5228C24.9045 24.2904 25.0179 23.975 24.9977 23.6571ZM17.2521 7.72052H17.2835C17.4205 7.72052 17.532 7.83195 17.532 7.96896V8.88835C17.532 9.02536 17.4205 9.13684 17.2835 9.13684H17.2521V7.72052ZM11.787 1.34195C11.787 1.30205 11.7924 1.26157 11.8035 1.21822C11.804 1.21602 11.8043 1.21377 11.8048 1.21162C11.862 1.00069 12.0546 0.844923 12.2834 0.844923H12.717C12.9458 0.844923 13.1384 1.00069 13.1956 1.21157C13.1961 1.21377 13.1964 1.21602 13.1969 1.21817C13.208 1.26153 13.2134 1.302 13.2134 1.3419V2.89097C13.2134 3.02779 13.158 3.15186 13.0684 3.2418C13.0683 3.24195 13.0682 3.2421 13.068 3.24224C13.0635 3.24674 13.0586 3.25079 13.0539 3.25508C12.9653 3.33726 12.8471 3.38795 12.717 3.38795H12.2834C12.1532 3.38795 12.0351 3.33726 11.9465 3.25508C11.9418 3.25074 11.9368 3.24674 11.9323 3.24224C11.9322 3.2421 11.9321 3.24195 11.932 3.2418C11.8425 3.15186 11.787 3.02779 11.787 2.89097V1.34195ZM7.74801 9.13684H7.71657C7.5796 9.13684 7.46808 9.02536 7.46808 8.88835V7.96896C7.46808 7.83195 7.57956 7.72052 7.71657 7.72052H7.74801V9.13684ZM6.1651 24.1549H4.12691V16.9737L5.43737 16.5106L6.1651 16.2534V24.1549ZM8.48044 9.75207V9.50305V7.72048H16.5196V9.50305L16.5197 9.50368V9.74245C16.5197 11.0036 15.5049 12.4974 14.3144 13.1524C14.3114 13.154 14.3083 13.1557 14.3053 13.1574C14.267 13.1783 14.2285 13.1981 14.1899 13.2173C14.1834 13.2204 14.177 13.2238 14.1705 13.2269C14.0878 13.2672 14.0043 13.3032 13.9205 13.3348C13.9092 13.339 13.8978 13.343 13.8865 13.3471C13.8558 13.3582 13.8251 13.3687 13.7944 13.3786C13.7824 13.3825 13.7704 13.3864 13.7585 13.39C13.7177 13.4025 13.6768 13.4141 13.6359 13.4243L13.588 13.4363C13.5001 13.4581 13.4169 13.4783 13.3378 13.4966C12.9951 13.5759 12.7286 13.6204 12.4767 13.6204C12.1631 13.6204 11.8401 13.5539 11.3537 13.4313C11.3127 13.421 11.2718 13.4091 11.2309 13.3965C11.2199 13.3931 11.2089 13.3894 11.1979 13.3859C11.1654 13.3754 11.133 13.3642 11.1007 13.3523C11.0914 13.3489 11.0822 13.3457 11.0729 13.3422C10.9873 13.3096 10.902 13.2726 10.8175 13.231C10.8146 13.2296 10.8117 13.2281 10.8089 13.2267C9.56711 12.6109 8.48044 11.0551 8.48044 9.75207ZM10.2732 15.2486C10.5404 15.1661 10.7199 14.9228 10.7199 14.6432L10.72 13.9906C10.7471 14.0018 10.7742 14.0121 10.8013 14.0224C10.8258 14.0317 10.8502 14.0408 10.8746 14.0495C10.9107 14.0624 10.9467 14.0747 10.9828 14.0862C10.9978 14.091 11.0128 14.0957 11.0278 14.1003C11.0768 14.1151 11.1257 14.1292 11.1745 14.1415C11.2993 14.173 11.4157 14.2012 11.5262 14.2262C11.5586 14.2335 11.5906 14.2406 11.6221 14.2473C11.6259 14.2482 11.6299 14.2491 11.6336 14.2499C11.9435 14.3159 12.2067 14.3524 12.4718 14.3529C12.4734 14.3529 12.4751 14.3529 12.4767 14.3529C12.4767 14.3529 12.4768 14.3529 12.4768 14.3529C12.7655 14.3529 13.0507 14.3104 13.3965 14.2342C13.5117 14.2088 13.6337 14.1796 13.7648 14.147L13.8127 14.1351C13.8617 14.1229 13.9108 14.109 13.96 14.0942C13.976 14.0894 13.9919 14.0844 14.0078 14.0793C14.0413 14.0687 14.0748 14.0574 14.1083 14.0456C14.1265 14.0393 14.1447 14.0332 14.1627 14.0265C14.2018 14.012 14.2408 13.9968 14.2798 13.9807L14.2799 14.6434C14.28 14.923 14.4595 15.1662 14.7265 15.2486L15.7101 15.5521C15.707 15.5548 15.704 15.5576 15.701 15.5602C15.6528 15.6023 15.6039 15.6433 15.5543 15.6832C15.5457 15.6902 15.537 15.6972 15.5284 15.704C15.4788 15.7435 15.4286 15.782 15.3777 15.8193C15.3691 15.8256 15.3605 15.8317 15.352 15.8379C15.3 15.8755 15.2475 15.9122 15.1942 15.9476C15.1875 15.9521 15.1807 15.9563 15.1741 15.9608C15.119 15.997 15.0634 16.0322 15.007 16.0661C15.0046 16.0676 15.0021 16.069 14.9996 16.0705C14.9438 16.1038 14.8873 16.1358 14.8303 16.1668C14.8225 16.1711 14.8148 16.1755 14.807 16.1797C14.7519 16.2092 14.6962 16.2375 14.6401 16.2648C14.6293 16.2701 14.6185 16.2755 14.6076 16.2807C14.5527 16.3069 14.4973 16.332 14.4415 16.3561C14.4294 16.3614 14.4173 16.3666 14.4051 16.3717C14.3493 16.3953 14.2931 16.4179 14.2365 16.4393C14.2246 16.4438 14.2127 16.4481 14.2008 16.4526C14.143 16.474 14.0848 16.4945 14.0261 16.5136C14.0164 16.5167 14.0067 16.5197 13.997 16.5228C13.9376 16.5418 13.8778 16.5599 13.8176 16.5765C13.8115 16.5782 13.8055 16.5799 13.7994 16.5815C13.7389 16.598 13.678 16.6132 13.6167 16.6274C13.607 16.6297 13.5972 16.6321 13.5874 16.6344C13.5266 16.648 13.4655 16.6603 13.4041 16.6717C13.3918 16.674 13.3794 16.6764 13.367 16.6786C13.3064 16.6893 13.2455 16.6988 13.1843 16.7073C13.1715 16.7091 13.1587 16.7108 13.1458 16.7125C13.084 16.7205 13.022 16.7275 12.9597 16.7333C12.9482 16.7344 12.9365 16.7353 12.925 16.7363C12.8607 16.7417 12.7962 16.7462 12.7314 16.7492C12.7235 16.7496 12.7156 16.7497 12.7077 16.7501C12.639 16.7529 12.57 16.7547 12.5008 16.7547C12.5005 16.7547 12.5002 16.7547 12.4999 16.7547C12.4295 16.7547 12.3594 16.7529 12.2896 16.75C12.2831 16.7497 12.2766 16.7496 12.2702 16.7493C12.2034 16.7462 12.137 16.7417 12.0708 16.736C12.0617 16.7352 12.0526 16.7345 12.0434 16.7336C11.9784 16.7277 11.9137 16.7204 11.8493 16.7119C11.8398 16.7106 11.8303 16.7094 11.8208 16.708C11.7562 16.6992 11.6918 16.6891 11.6279 16.6777C11.6197 16.6762 11.6115 16.6746 11.6032 16.6731C11.5377 16.6611 11.4725 16.6479 11.4077 16.6333C11.403 16.6322 11.3982 16.631 11.3935 16.6299C11.258 16.5988 11.1242 16.562 10.9925 16.5196C10.9879 16.5181 10.9832 16.5167 10.9785 16.5152C10.9156 16.4947 10.8533 16.4728 10.7914 16.4497C10.7838 16.4469 10.7761 16.4441 10.7685 16.4412C10.7082 16.4185 10.6484 16.3945 10.589 16.3693C10.5805 16.3657 10.5721 16.362 10.5636 16.3584C10.5046 16.333 10.446 16.3064 10.3881 16.2786C10.3804 16.2749 10.3729 16.2712 10.3653 16.2675C10.3063 16.2388 10.2477 16.2091 10.1899 16.178C10.185 16.1754 10.1801 16.1726 10.1752 16.1699C10.0549 16.1047 9.93737 16.0343 9.82267 15.9587C9.8174 15.9553 9.81208 15.9519 9.80681 15.9484C9.75266 15.9124 9.69929 15.8752 9.6465 15.8369C9.63864 15.8312 9.63068 15.8256 9.62282 15.8198C9.5716 15.7823 9.52106 15.7435 9.47121 15.7038C9.46257 15.697 9.45392 15.6901 9.44533 15.6831C9.39592 15.6432 9.34719 15.6024 9.29914 15.5604C9.29596 15.5577 9.29279 15.5548 9.28962 15.552L10.2732 15.2486ZM8.21598 15.5285L8.53556 15.8487C9.58879 16.9036 10.9941 17.4851 12.4932 17.4869C12.4955 17.4869 12.4977 17.487 12.5 17.487C12.5002 17.487 12.5004 17.487 12.5005 17.487C13.4315 17.487 14.3264 17.2631 15.1236 16.8412C15.5696 16.6052 15.985 16.3073 16.3589 15.9517C16.3608 15.9499 16.3627 15.9482 16.3646 15.9464C16.3861 15.926 16.4071 15.905 16.4283 15.8842C16.4404 15.8723 16.4526 15.8608 16.4645 15.8488L16.4646 15.8488L16.7843 15.5286L17.0721 15.6303L17.1901 15.672L16.7233 16.1517C15.5963 17.2695 14.0966 17.885 12.5001 17.885C10.9037 17.885 9.40397 17.2695 8.27697 16.1517L7.81017 15.672L8.21598 15.5285ZM18.1026 24.1549H6.89752V15.9945L7.04962 15.9408L7.75421 16.6648C7.75568 16.6663 7.75719 16.6678 7.75866 16.6693C9.02399 17.9256 10.7078 18.6175 12.5001 18.6175C14.2923 18.6175 15.9761 17.9256 17.2415 16.6693C17.243 16.6678 17.2445 16.6663 17.2459 16.6648L17.9505 15.9408L18.1026 15.9945V24.1549ZM20.8731 24.1548H18.8349V16.2534L19.5627 16.5105L20.8731 16.9737V24.1548ZM24.1526 24.0214C24.0719 24.1075 23.9624 24.1548 23.8446 24.1548H21.6056V17.2326L21.8806 17.3297C23.1116 17.7648 23.9607 18.8891 24.0436 20.1941L24.2667 23.7036C24.2743 23.8221 24.2337 23.935 24.1526 24.0214Z" fill="white"/>
</g>
<defs>
<clipPath id="clip0_14_72">
<rect width="25" height="25" fill="white"/>
</clipPath>
</defs>
</svg>
