<svg width="25" height="25" viewBox="0 0 25 25" fill="none" xmlns="http://www.w3.org/2000/svg">
<g clip-path="url(#clip0_14_91)">
<path d="M21.817 24.1192L18.5211 17.1475C18.4554 17.0084 18.3414 16.9018 18.2047 16.8436L16.5651 16.1137L19.4061 11.3521C19.4129 11.3406 19.4193 11.3291 19.4254 11.3172C19.9903 10.2148 20.2767 9.0234 20.2767 7.77647C20.2767 5.67887 19.4541 3.71236 17.9605 2.23927C16.4672 0.766514 14.4888 -0.0289447 12.3899 0.000547469C10.3514 0.028819 8.43208 0.847618 6.98535 2.30621C5.53877 3.76471 4.73545 5.69064 4.72334 7.72936C4.71592 8.97521 5.0103 10.2158 5.57446 11.3172C5.58051 11.329 5.58691 11.3406 5.5937 11.352L8.43471 16.1136L6.78559 16.8475C6.65068 16.9075 6.54179 17.0139 6.47871 17.1474L3.18296 24.1192C3.07265 24.3524 3.11919 24.6296 3.29956 24.814C3.47988 24.9984 3.75586 25.0513 3.99155 24.9464L8.12036 23.1082L12.2492 24.9464C12.4089 25.0174 12.5913 25.0174 12.751 24.9464L16.8798 23.1082L21.0086 24.9464C21.0893 24.9823 21.1747 24.9998 21.2593 24.9998C21.422 24.9998 21.582 24.9354 21.7006 24.8141C21.8808 24.6296 21.9273 24.3525 21.817 24.1192ZM6.66372 10.7374C6.18862 9.80318 5.95088 8.79376 5.95718 7.73673C5.97807 4.20016 8.87153 1.28312 12.4071 1.23414C14.173 1.21041 15.8379 1.87862 17.0942 3.11773C18.351 4.35714 19.043 6.01163 19.043 7.77652C19.043 8.81944 18.8053 9.81544 18.3363 10.7374L13.0298 19.6313C12.8678 19.9028 12.6054 19.9321 12.5 19.9321C12.3947 19.9321 12.1323 19.9028 11.9703 19.6313L6.66372 10.7374ZM17.1306 21.8694C16.9708 21.7984 16.7885 21.7984 16.6288 21.8694L12.4999 23.7076L8.37114 21.8694C8.21142 21.7984 8.02905 21.7984 7.86933 21.8694L5.00908 23.1429L7.49629 17.8817L9.07138 17.1807L10.9106 20.2634C11.2478 20.8284 11.8419 21.1658 12.4998 21.1658C13.1578 21.1658 13.7519 20.8284 14.0891 20.2634L15.9283 17.1808L17.5036 17.882L19.9906 23.1429L17.1306 21.8694Z" fill="white"/>
<path d="M12.5002 4.9613C10.9478 4.9613 9.68481 6.22424 9.68481 7.77663C9.68481 9.32902 10.9478 10.592 12.5002 10.592C14.0526 10.592 15.3155 9.32902 15.3155 7.77663C15.3155 6.22424 14.0526 4.9613 12.5002 4.9613ZM12.5002 9.35827C11.6281 9.35832 10.9185 8.64885 10.9185 7.77663C10.9185 6.90451 11.628 6.19499 12.5002 6.19499C13.3723 6.19499 14.0818 6.90451 14.0818 7.77663C14.0818 8.64875 13.3723 9.35827 12.5002 9.35827Z" fill="white"/>
</g>
<defs>
<clipPath id="clip0_14_91">
<rect width="25" height="25" fill="white"/>
</clipPath>
</defs>
</svg>
