<svg width="434" height="372" viewBox="0 0 434 372" fill="none" xmlns="http://www.w3.org/2000/svg">
<g clip-path="url(#clip0_28_39)">
<path d="M270.72 260.006C270.72 260.006 281.462 332.526 344.824 356.699H88.1473C151.509 332.526 162.251 260.006 162.251 260.006H270.72Z" fill="#E0E0E0"/>
<path d="M345.956 356.683H86.8566V372H345.956V356.683Z" fill="url(#paint0_linear_28_39)"/>
<path d="M344.824 356.683H88.1472V368.497H344.824V356.683Z" fill="#F5F5F5"/>
<path d="M428.343 0H5.65596C4.1412 0.0162886 2.6948 0.633109 1.6343 1.71505C0.573794 2.79698 -0.0141432 4.25561 -0.00043293 5.77071V274.181C-0.0133222 275.58 0.249522 276.969 0.773091 278.266C1.29666 279.564 2.0707 280.746 3.05101 281.745C4.03132 282.744 5.1987 283.539 6.48649 284.087C7.77428 284.634 9.15726 284.923 10.5565 284.935H423.443C424.842 284.923 426.225 284.634 427.513 284.087C428.8 283.539 429.968 282.744 430.948 281.745C431.928 280.746 432.702 279.564 433.226 278.266C433.75 276.969 434.012 275.58 434 274.181V5.77071C434.013 4.25561 433.425 2.79698 432.365 1.71505C431.304 0.633109 429.858 0.0162886 428.343 0Z" fill="url(#paint1_linear_28_39)"/>
<path d="M428.344 240.673H4.62796V11.7625C4.62796 10.2962 5.21036 8.88983 6.24703 7.85295C7.2837 6.81607 8.68973 6.23355 10.1558 6.23355H422.775C423.504 6.22812 424.227 6.36713 424.903 6.64255C425.578 6.91798 426.192 7.32437 426.71 7.83833C427.228 8.35228 427.639 8.96363 427.919 9.63713C428.199 10.3106 428.344 11.033 428.344 11.7625V240.673Z" fill="#F5F5F5"/>
<path d="M418.018 279.339H14.9535C12.2259 279.339 9.61001 278.256 7.68132 276.327C5.75263 274.397 4.6691 271.781 4.6691 269.053V240.673H428.344V269.032C428.346 270.388 428.081 271.732 427.563 272.985C427.045 274.238 426.284 275.376 425.324 276.334C424.365 277.292 423.225 278.05 421.971 278.566C420.717 279.082 419.374 279.345 418.018 279.339Z" fill="white"/>
<g opacity="0.2">
<path opacity="0.2" d="M360.601 239.731C361.012 239.788 361.423 239.855 361.824 239.942C361.96 239.844 362.101 239.753 362.246 239.67C362.705 239.409 363.191 239.201 363.696 239.047C363.868 238.871 364.063 238.721 364.277 238.6C363.019 238.718 361.796 239.081 360.678 239.67L360.601 239.731Z" fill="white"/>
<path opacity="0.2" d="M338.87 258.561C338.869 254.716 340.034 250.96 342.209 247.79C344.385 244.62 347.469 242.183 351.057 240.801C350.388 239.222 351.057 237.556 353.746 236.609L355.649 235.936L356.543 235.077L352.203 236.62C349.524 237.566 348.845 239.232 349.514 240.811C345.374 242.412 341.924 245.411 339.761 249.288C337.598 253.165 336.859 257.676 337.67 262.04C338.482 266.405 340.794 270.349 344.206 273.188C347.617 276.028 351.914 277.585 356.353 277.591C356.61 277.591 356.867 277.591 357.124 277.591C352.213 277.391 347.57 275.299 344.167 271.751C340.764 268.204 338.866 263.477 338.87 258.561Z" fill="white"/>
<path opacity="0.2" d="M353.88 239.695H353.792C353.784 239.784 353.784 239.874 353.792 239.963C354.327 239.846 354.869 239.752 355.417 239.68L355.71 239.52C357.072 238.82 358.475 238.204 359.912 237.674C360.127 237.417 360.354 237.16 360.585 236.918C358.371 237.586 356.223 238.455 354.168 239.515L353.88 239.695Z" fill="white"/>
</g>
<path d="M409.503 35.3442H26.1017V214.478H409.503V35.3442Z" fill="white"/>
<path d="M408.988 25.2224H25.5875V41.0019H408.988V25.2224Z" fill="#E0E0E0"/>
<path d="M33.9384 37.916C36.4943 37.916 38.5663 35.8436 38.5663 33.2871C38.5663 30.7306 36.4943 28.6582 33.9384 28.6582C31.3824 28.6582 29.3104 30.7306 29.3104 33.2871C29.3104 35.8436 31.3824 37.916 33.9384 37.916Z" fill="#FF5252"/>
<path d="M44.737 37.916C47.2929 37.916 49.3649 35.8436 49.3649 33.2871C49.3649 30.7306 47.2929 28.6582 44.737 28.6582C42.181 28.6582 40.109 30.7306 40.109 33.2871C40.109 35.8436 42.181 37.916 44.737 37.916Z" fill="#FFFF00"/>
<path d="M55.5356 37.916C58.0915 37.916 60.1635 35.8436 60.1635 33.2871C60.1635 30.7306 58.0915 28.6582 55.5356 28.6582C52.9796 28.6582 50.9076 30.7306 50.9076 33.2871C50.9076 35.8436 52.9796 37.916 55.5356 37.916Z" fill="#69F0AE"/>
<path opacity="0.5" d="M161.464 105.807H40.109V109.921H161.464V105.807Z" fill="#FFC107"/>
<path opacity="0.5" d="M161.464 125.351H40.109V129.466H161.464V125.351Z" fill="#FFC107"/>
<path opacity="0.3" d="M161.464 147.467H40.109V151.581H161.464V147.467Z" fill="#FFC107"/>
<path d="M161.464 169.583H40.109V173.697H161.464V169.583Z" fill="#64FFDA"/>
<path d="M161.464 191.699H40.109V195.813H161.464V191.699Z" fill="#64FFDA"/>
<path d="M407.374 188.165C410.161 173.482 407.704 158.286 400.431 145.23C393.159 132.174 381.533 122.088 367.584 116.731L344.716 176.274L407.374 188.165Z" fill="url(#paint2_linear_28_39)"/>
<path d="M404.278 185.722C406.815 172.345 404.575 158.501 397.949 146.607C391.324 134.712 380.734 125.522 368.026 120.64L347.19 174.89L404.278 185.722Z" fill="#FFC107"/>
<path opacity="0.2" d="M404.278 185.722C406.815 172.345 404.575 158.501 397.949 146.607C391.324 134.712 380.734 125.522 368.026 120.64L347.19 174.89L404.278 185.722Z" fill="black"/>
<path d="M279.128 142.91L326.436 103.168C318.274 93.4484 307.316 86.4787 295.054 83.2069C282.792 79.935 269.82 80.5197 257.902 84.8815C245.984 89.2432 235.698 97.1704 228.443 107.585C221.188 118 217.316 130.397 217.353 143.09C217.39 155.784 221.334 168.158 228.65 178.53C235.966 188.902 246.298 196.769 258.242 201.061C270.185 205.353 283.16 205.862 295.403 202.519C307.646 199.175 318.562 192.141 326.667 182.374L279.128 142.91Z" fill="url(#paint3_linear_28_39)"/>
<path d="M278.706 142.91L323.196 105.529C315.519 96.3875 305.213 89.8326 293.68 86.7557C282.147 83.6787 269.946 84.2289 258.737 88.3315C247.527 92.434 237.853 99.8899 231.029 109.685C224.205 119.481 220.563 131.141 220.598 143.079C220.632 155.018 224.342 166.656 231.223 176.412C238.103 186.168 247.82 193.568 259.053 197.605C270.286 201.643 282.49 202.122 294.005 198.978C305.52 195.834 315.788 189.22 323.412 180.034L278.706 142.91Z" fill="#FFC107"/>
<path opacity="0.7" d="M252.995 53.8599H179.976V63.1177H252.995V53.8599Z" fill="#FFC107"/>
<g opacity="0.2">
<path opacity="0.2" d="M405.111 185.028L405.178 185.249C405.944 184.874 405.111 185.028 405.111 185.028Z" fill="url(#paint4_linear_28_39)"/>
</g>
<g opacity="0.2">
<path opacity="0.2" d="M396.976 350.357L412.994 347.786L410.793 337.962L410.762 337.823H410.706L399.337 285.64V247.58C399.336 247.097 399.31 246.615 399.259 246.135C416.229 223.633 406.109 188.33 405.178 185.249C405.003 185.337 404.736 185.455 404.36 185.604C404.239 184.227 403.981 182.866 403.589 181.541C403.589 181.541 398.663 178.409 395.979 182.436C393.639 185.949 395.377 188.093 395.86 188.608L395.531 188.721C396.282 189.907 396.805 191.222 397.074 192.599C396.924 192.259 396.753 191.929 396.56 191.611C395.938 191.498 395.531 191.406 395.531 191.406L395.413 191.292L395.084 191.406C396.791 193.895 397.388 198.267 397.305 203.513C396.725 202.698 396.075 201.935 395.362 201.234C392.25 198.264 388.148 196.554 383.848 196.436C383.584 196.436 383.32 196.436 383.056 196.436H383.026C382.58 196.436 382.136 196.465 381.694 196.523L381.365 196.559L380.804 196.636C380.588 196.672 380.372 196.713 380.161 196.755L379.693 196.857C379.426 196.919 379.16 196.989 378.896 197.068L378.598 197.161C378.264 197.269 377.935 197.382 377.611 197.511C376.534 198.036 375.405 198.447 374.243 198.735C374.083 198.76 373.924 198.771 373.764 198.786C372.452 198.883 371.146 198.52 370.072 197.758C369.952 197.668 369.834 197.576 369.718 197.48C369.583 197.366 369.454 197.246 369.332 197.12C369.197 197.461 369.139 197.828 369.162 198.195C369.234 199.063 369.646 199.867 370.309 200.432C370.494 200.593 370.698 200.731 370.916 200.843C371.234 201.012 371.585 201.114 371.944 201.142C372.067 201.151 372.191 201.151 372.314 201.142L372.222 201.183C371.996 201.291 371.764 201.389 371.528 201.476H371.476C371.224 201.564 370.962 201.646 370.71 201.713H370.664C369.372 202.039 368.021 202.058 366.72 201.769L366.303 201.666C366.092 201.61 365.887 201.553 365.681 201.476C365.746 201.624 365.818 201.768 365.897 201.908L365.974 202.042C366.031 202.134 366.092 202.232 366.154 202.32L366.257 202.464C366.319 202.549 366.384 202.632 366.452 202.71L366.565 202.839C366.643 202.926 366.725 203.009 366.812 203.091L366.905 203.184C367.021 203.29 367.141 203.391 367.265 203.487L367.393 203.58L367.661 203.765L367.836 203.873L368.077 204.007L368.273 204.104L368.514 204.212L368.715 204.3L368.998 204.397L369.342 204.5L369.599 204.567L369.846 204.613L370.067 204.649L370.324 204.675H370.54H370.797H371.013H371.271C371.778 204.633 372.276 204.511 372.746 204.315C372.448 204.449 372.145 204.572 371.841 204.691L371.394 204.85L370.926 205.015L370.463 205.153L369.99 205.292L369.527 205.411L369.013 205.524L368.561 205.616L368.046 205.709L367.614 205.776L367.054 205.843L366.653 205.884L366.015 205.925H365.681C365.362 205.925 365.038 205.925 364.719 205.925C365.084 205.925 365.66 206.347 366.211 206.707C366.492 206.918 366.799 207.091 367.126 207.221C367.271 207.263 367.419 207.296 367.568 207.319H367.697L368.016 207.35H369.342C369.486 207.35 369.63 207.35 369.774 207.386C370.68 207.475 371.556 207.755 372.345 208.209C372.757 208.468 373.125 208.79 373.435 209.165C373.297 209.386 373.163 209.613 373.039 209.844C372.916 210.076 372.829 210.24 372.731 210.441C372.535 210.845 372.364 211.26 372.217 211.685C371.657 213.214 371.372 214.83 371.373 216.458C371.373 216.757 371.373 217.055 371.404 217.353C371.404 217.436 371.404 217.518 371.404 217.6C371.425 217.84 371.451 218.077 371.481 218.31C371.481 218.372 371.481 218.433 371.481 218.49C371.522 218.778 371.574 219.064 371.636 219.349L371.677 219.519C371.728 219.752 371.786 219.983 371.852 220.213L371.908 220.413C372.074 220.969 372.275 221.514 372.51 222.044L372.582 222.203C372.691 222.443 372.808 222.68 372.931 222.913L372.967 222.98C373.108 223.244 373.257 223.503 373.415 223.757L373.451 223.813C373.598 224.05 373.753 224.279 373.914 224.502L373.97 224.579C374.324 225.067 374.709 225.531 375.122 225.968L375.158 226.004C376.23 227.132 377.483 228.073 378.866 228.787C378.82 228.997 378.786 229.21 378.763 229.424C378.739 229.646 378.727 229.87 378.727 230.093V235.288C378.428 235.445 378.139 235.617 377.858 235.802C365.516 230.201 347.169 190.48 347.169 190.48H346.722C348.511 189.137 346.722 183.315 346.722 183.315C345.671 182.686 344.495 182.295 343.277 182.168H343.035H342.618H342.438H342.315H342.14H342.017L341.837 182.204L341.718 182.23L341.518 182.287L341.441 182.4L341.148 182.508L340.875 182.636L340.777 182.688L340.587 182.796L340.479 182.868L340.304 182.986L340.191 183.074L340.027 183.212L339.919 183.31L339.754 183.475L339.651 183.583L339.482 183.783L339.399 183.881C339.317 183.989 339.235 184.097 339.158 184.221C336.473 188.248 339.158 190.49 339.158 190.49C338.985 192.041 338.902 193.6 338.911 195.16C338.715 224.158 369.738 246.623 371.307 247.75C370.607 249.56 364.843 265.607 371.373 285.63C371.393 285.679 371.419 285.726 371.451 285.769C364.008 292.623 358.483 301.303 355.424 310.949C352.365 320.595 351.877 330.873 354.008 340.765L354.137 341.367H354.425C354.397 341.501 354.363 341.633 354.322 341.763C354.245 341.998 354.149 342.227 354.034 342.447C353.837 342.817 353.597 343.162 353.319 343.476L353.288 343.512C352.985 343.861 352.625 344.221 352.26 344.587L351.869 344.962C350.326 346.464 348.722 347.914 349.9 348.506H366.833V341.161H367.131C367.131 341.161 367.013 340.93 366.833 340.493V340.354H366.776C365.892 338.065 363.866 331.003 367.131 320.12C371.157 306.686 386.826 299.974 386.826 299.974L387.114 300.921L387.057 300.951L399.321 341.326C399.321 341.48 399.321 341.64 399.27 341.809C399.212 342.192 399.121 342.569 398.997 342.936C398.901 343.218 398.788 343.495 398.658 343.764C397.902 345.332 396.601 347.169 396.02 348.542C395.938 348.731 395.87 348.925 395.814 349.123C395.748 349.345 395.725 349.577 395.747 349.807C395.763 349.954 395.819 350.095 395.91 350.212C396.001 350.329 396.123 350.419 396.262 350.47L396.483 350.434L396.961 350.357H396.976ZM392.235 235.468C391.927 235.296 391.611 235.135 391.289 234.984V230.124C391.288 229.751 391.254 229.379 391.186 229.013C392.25 228.507 393.246 227.867 394.148 227.11C393.495 230.15 392.832 232.989 392.23 235.468H392.235Z" fill="url(#paint5_linear_28_39)"/>
</g>
<path d="M338.818 194.769C338.818 194.769 335.841 192.29 338.818 187.826C341.796 183.362 347.246 186.833 347.246 186.833C347.246 186.833 349.231 193.283 347.246 194.769C345.261 196.256 338.818 194.769 338.818 194.769Z" fill="#CA7070"/>
<path d="M369.481 360.762H355.813C355.813 360.762 356.127 362.418 354.522 364.27C352.682 366.399 348.984 368.965 350.722 369.84H369.481V360.762Z" fill="#00695C"/>
<path opacity="0.2" d="M355.51 364.275C357.114 362.418 356.8 360.767 356.8 360.767H355.808C355.808 360.767 356.122 362.423 354.517 364.275C352.676 366.404 348.979 368.971 350.717 369.845H351.725C349.972 368.971 353.669 366.404 355.51 364.275Z" fill="white"/>
<path d="M418.157 357.944L405.343 360.037C405.696 361.56 405.489 363.159 404.762 364.542C403.363 367.448 400.226 371.177 402.113 371.974L420.625 368.981L418.157 357.944Z" fill="#00695C"/>
<path d="M411.889 188.711C411.889 188.711 426.544 234.861 402 260.433L394.919 255.012C394.919 255.012 409.425 204.608 401.306 192.779C415.622 188.021 411.889 188.711 411.889 188.711Z" fill="#00695C"/>
<path d="M401.789 192.789C401.789 192.789 398.812 190.31 401.789 185.846C404.767 181.381 410.217 184.853 410.217 184.853C410.217 184.853 412.202 191.303 410.217 192.789C408.233 194.275 401.789 192.789 401.789 192.789Z" fill="#CA7070"/>
<path opacity="0.2" d="M405.754 364.542C406.482 363.159 406.688 361.56 406.335 360.037L418.193 358.098L418.157 357.944L405.343 360.037C405.696 361.56 405.489 363.159 404.762 364.542C403.363 367.448 400.226 371.177 402.113 371.974L402.885 371.851C401.491 370.848 404.417 367.32 405.754 364.542Z" fill="white"/>
<path d="M390.59 231.718H388.697C385.386 231.718 382.702 234.403 382.702 237.715V246.304C382.702 249.617 385.386 252.301 388.697 252.301H390.59C393.901 252.301 396.586 249.617 396.586 246.304V237.715C396.586 234.403 393.901 231.718 390.59 231.718Z" fill="#CA7070"/>
<path opacity="0.2" d="M395.902 258.005C395.902 258.005 410.228 208.229 402.427 196.009C401.738 195.885 401.296 195.782 401.296 195.782C401.296 195.782 401.244 195.741 401.167 195.659L400.802 195.782C408.916 207.602 394.405 258.005 394.405 258.005L401.496 263.431C401.707 263.21 401.908 262.989 402.113 262.763L395.902 258.005Z" fill="white"/>
<path d="M389.89 238.908C398.379 238.908 405.26 232.026 405.26 223.535C405.26 215.045 398.379 208.162 389.89 208.162C381.402 208.162 374.52 215.045 374.52 223.535C374.52 232.026 381.402 238.908 389.89 238.908Z" fill="#CA7070"/>
<path opacity="0.2" d="M384.435 245.358V238.672C384.436 238.182 384.489 237.694 384.594 237.216C381.595 235.672 379.186 233.185 377.741 230.136C376.295 227.088 375.892 223.649 376.593 220.349C377.295 217.049 379.063 214.071 381.624 211.875C384.185 209.68 387.397 208.387 390.765 208.198C390.477 208.198 390.189 208.172 389.895 208.172C386.448 208.171 383.1 209.33 380.39 211.462C377.68 213.593 375.765 216.575 374.953 219.926C374.142 223.277 374.48 226.805 375.914 229.94C377.348 233.076 379.795 235.639 382.861 237.216C382.756 237.694 382.703 238.182 382.702 238.672V245.358C382.695 246.345 382.9 247.322 383.304 248.222C383.707 249.123 384.299 249.927 385.039 250.579C385.78 251.231 386.651 251.717 387.596 252.004C388.54 252.29 389.535 252.371 390.513 252.24C388.837 252.025 387.297 251.209 386.179 249.943C385.061 248.677 384.441 247.047 384.435 245.358Z" fill="white"/>
<path d="M405.512 300.18C405.512 300.18 375.862 303.528 374.767 300.18C367.08 276.624 374.767 258.005 374.767 258.005C374.767 253.928 376.387 250.018 379.269 247.135C382.151 244.252 386.061 242.632 390.137 242.632C392.156 242.631 394.155 243.029 396.021 243.801C397.886 244.573 399.581 245.705 401.009 247.133C402.436 248.561 403.569 250.255 404.342 252.121C405.115 253.986 405.512 255.986 405.512 258.005V300.18Z" fill="#00695C"/>
<path d="M405.512 300.18L418.882 361.677H405.512L391.628 316.047C391.628 316.047 374.274 323.484 369.81 338.363C365.347 353.242 369.81 361.672 369.81 361.672H355.412L355.268 361.004C352.902 350.045 353.459 338.658 356.881 327.982C360.303 317.307 366.472 307.719 374.767 300.18" fill="#263238"/>
<path opacity="0.2" d="M376.5 300.18C368.813 276.624 376.5 258.005 376.5 258.005C376.501 254.097 377.991 250.336 380.665 247.487C383.34 244.638 386.999 242.915 390.898 242.668C390.569 242.668 390.24 242.632 389.906 242.632C387.886 242.63 385.886 243.026 384.019 243.798C382.153 244.57 380.456 245.702 379.028 247.129C377.599 248.557 376.465 250.252 375.692 252.119C374.918 253.985 374.52 255.985 374.52 258.005C374.52 258.005 366.833 276.603 374.52 300.18C374.911 301.378 378.963 301.723 384.008 301.661C379.92 301.594 376.84 301.208 376.5 300.18Z" fill="white"/>
<path d="M374.52 257.759C374.52 257.759 334.854 229.985 338.818 194.769H347.745C347.745 194.769 369.07 240.894 382.712 245.358C396.354 249.822 374.52 257.759 374.52 257.759Z" fill="#00695C"/>
<g opacity="0.2">
<path opacity="0.2" d="M391.88 317.117L405.512 361.899H407.497L393.613 316.268C393.613 316.268 392.955 316.561 391.88 317.117Z" fill="white"/>
<path opacity="0.2" d="M376.752 300.411H374.767C366.474 307.953 360.308 317.542 356.888 328.218C353.468 338.895 352.915 350.283 355.284 361.24L355.428 361.909H357.412L357.268 361.24C354.9 350.283 355.453 338.895 358.873 328.218C362.293 317.542 368.458 307.953 376.752 300.411Z" fill="white"/>
</g>
<path opacity="0.2" d="M340.304 195.258H338.818C334.854 230.474 374.52 258.247 374.52 258.247C374.52 258.247 374.886 258.113 375.492 257.872C370.869 254.487 336.602 228.113 340.304 195.258Z" fill="white"/>
<path d="M377.631 216.674C378.66 218.577 378.927 220.789 379.426 222.846C380.454 227.156 382.635 231.456 386.466 233.688C388.592 234.846 390.958 235.494 393.377 235.581C397.038 235.812 401.003 235.097 403.594 232.495C405.271 230.818 406.196 228.519 406.716 226.205C408.258 219.287 406.201 211.582 401.121 206.66C396.04 201.738 388.034 199.897 381.457 202.546C380.223 203.06 379.03 203.677 377.724 203.904C376.737 204.062 375.727 203.979 374.779 203.663C373.831 203.347 372.973 202.807 372.278 202.088C371.461 204.145 373.389 206.717 375.595 206.537C374.458 207.084 373.223 207.4 371.963 207.468C370.703 207.536 369.442 207.354 368.252 206.933C368.925 208.344 370.104 209.451 371.555 210.033C373.005 210.615 374.622 210.631 376.084 210.076C373.273 211.319 370.224 211.93 367.152 211.865C367.794 211.865 369.044 213.048 369.82 213.28C370.89 213.593 371.754 213.352 372.762 213.491C374.973 213.774 376.51 214.555 377.631 216.674Z" fill="#263238"/>
<g opacity="0.2">
<path opacity="0.2" d="M375.58 206.517C374.442 207.066 373.206 207.383 371.944 207.447C373.54 207.529 375.132 207.209 376.572 206.517C374.613 206.691 372.875 204.665 373.086 202.767C372.79 202.558 372.515 202.322 372.263 202.062C371.445 204.125 373.374 206.717 375.58 206.517Z" fill="white"/>
<path opacity="0.2" d="M378.701 203.883C380.007 203.662 381.2 203.019 382.434 202.525C384.321 201.781 386.325 201.379 388.353 201.337C385.992 201.257 383.64 201.661 381.442 202.525C380.208 203.04 379.015 203.657 377.709 203.883C377.534 203.914 377.354 203.924 377.194 203.94C377.697 203.985 378.203 203.966 378.701 203.883Z" fill="white"/>
<path opacity="0.2" d="M370.833 213.259C370.057 213.033 368.807 211.86 368.165 211.845C371.225 211.897 374.259 211.279 377.055 210.034C376.422 210.297 375.746 210.438 375.06 210.451C372.54 211.428 369.854 211.908 367.152 211.865C367.794 211.865 369.044 213.048 369.82 213.28C370.493 213.442 371.187 213.498 371.877 213.444C371.523 213.426 371.172 213.364 370.833 213.259Z" fill="white"/>
<path opacity="0.2" d="M394.359 235.581C391.943 235.498 389.579 234.856 387.453 233.703C383.627 231.471 381.437 227.171 380.413 222.861C379.899 220.763 379.632 218.577 378.619 216.69C377.493 214.571 375.96 213.809 373.765 213.506C373.276 213.456 372.784 213.442 372.294 213.465C372.453 213.465 372.613 213.465 372.772 213.506C374.968 213.809 376.5 214.571 377.626 216.69C378.655 218.593 378.922 220.804 379.421 222.861C380.449 227.171 382.63 231.471 386.461 233.703C388.589 234.857 390.957 235.5 393.377 235.581C393.948 235.617 394.523 235.627 395.099 235.612L394.359 235.581Z" fill="white"/>
<path opacity="0.2" d="M374.433 210.456C373.391 210.382 372.383 210.048 371.503 209.486C370.622 208.924 369.895 208.151 369.388 207.237C368.998 207.154 368.613 207.046 368.237 206.913C368.787 208.063 369.675 209.019 370.782 209.652C371.889 210.285 373.162 210.565 374.433 210.456Z" fill="white"/>
</g>
<path opacity="0.2" d="M339.811 194.769C339.811 194.769 336.833 192.29 339.811 187.826C340.202 187.186 340.739 186.648 341.378 186.255C342.017 185.863 342.74 185.627 343.487 185.568C342.575 185.46 341.65 185.615 340.823 186.015C339.996 186.415 339.3 187.043 338.818 187.826C335.841 192.29 338.818 194.769 338.818 194.769C340.732 195.199 342.688 195.418 344.65 195.422C343.021 195.339 341.403 195.121 339.811 194.769Z" fill="white"/>
</g>
<defs>
<linearGradient id="paint0_linear_28_39" x1="216.409" y1="372" x2="216.409" y2="356.683" gradientUnits="userSpaceOnUse">
<stop stop-color="#808080" stop-opacity="0.25"/>
<stop offset="0.54" stop-color="#808080" stop-opacity="0.12"/>
<stop offset="1" stop-color="#808080" stop-opacity="0.1"/>
</linearGradient>
<linearGradient id="paint1_linear_28_39" x1="260401" y1="183031" x2="260401" y2="25176.9" gradientUnits="userSpaceOnUse">
<stop stop-color="#808080" stop-opacity="0.25"/>
<stop offset="0.54" stop-color="#808080" stop-opacity="0.12"/>
<stop offset="1" stop-color="#808080" stop-opacity="0.1"/>
</linearGradient>
<linearGradient id="paint2_linear_28_39" x1="58406.2" y1="32562.9" x2="58406.2" y2="22641.4" gradientUnits="userSpaceOnUse">
<stop stop-color="#808080" stop-opacity="0.25"/>
<stop offset="0.54" stop-color="#808080" stop-opacity="0.12"/>
<stop offset="1" stop-color="#808080" stop-opacity="0.1"/>
</linearGradient>
<linearGradient id="paint3_linear_28_39" x1="77499.7" y1="60187.5" x2="77499.7" y2="30492.1" gradientUnits="userSpaceOnUse">
<stop stop-color="#808080" stop-opacity="0.25"/>
<stop offset="0.54" stop-color="#808080" stop-opacity="0.12"/>
<stop offset="1" stop-color="#808080" stop-opacity="0.1"/>
</linearGradient>
<linearGradient id="paint4_linear_28_39" x1="782.769" y1="298.281" x2="782.769" y2="298.158" gradientUnits="userSpaceOnUse">
<stop stop-color="#808080" stop-opacity="0.25"/>
<stop offset="0.54" stop-color="#808080" stop-opacity="0.12"/>
<stop offset="1" stop-color="#808080" stop-opacity="0.1"/>
</linearGradient>
<linearGradient id="paint5_linear_28_39" x1="68476.8" y1="131112" x2="68476.8" y2="74863.5" gradientUnits="userSpaceOnUse">
<stop stop-color="#808080" stop-opacity="0.25"/>
<stop offset="0.54" stop-color="#808080" stop-opacity="0.12"/>
<stop offset="1" stop-color="#808080" stop-opacity="0.1"/>
</linearGradient>
<clipPath id="clip0_28_39">
<rect width="434" height="372" fill="white"/>
</clipPath>
</defs>
</svg>
