<svg width="599" height="447" viewBox="0 0 599 447" fill="none" xmlns="http://www.w3.org/2000/svg">
<g clip-path="url(#clip0_2_262)">
<g opacity="0.5" filter="url(#filter0_d_2_262)">
<path d="M589.182 199.047C589.074 199.681 588.967 200.315 588.848 200.949C585.014 222.546 578.753 243.367 569.444 262.483C569.138 263.117 568.827 263.752 568.511 264.386C562.537 276.439 555.2 287.767 546.646 298.145C542.009 303.746 536.953 309.063 530.941 312.902C522.514 318.281 512.662 320.467 502.979 322.256C492.918 324.119 482.727 325.654 472.558 327.352C468.954 327.941 465.372 328.558 461.812 329.204C451.989 330.982 442.238 333.037 432.72 335.761C420.951 339.159 409.532 343.536 398.787 349.736C397.927 350.227 397.077 350.731 396.236 351.248C395.393 351.758 394.539 352.278 393.719 352.811C392.899 353.343 392.073 353.87 391.259 354.408L390.003 355.257C389.591 355.529 389.183 355.823 388.776 356.095C387.566 356.922 386.373 357.794 385.179 358.632L385.134 358.666C384.348 359.232 383.567 359.798 382.787 360.364C378.381 363.632 374.072 367.052 369.779 370.483L367.07 372.652C365.671 373.762 364.272 374.87 362.874 375.976C362.054 376.627 361.222 377.273 360.396 377.918C359.797 378.388 359.203 378.858 358.592 379.322C355.533 381.684 352.433 383.994 349.272 386.202C348.52 386.729 347.756 387.255 347.01 387.771C340.681 392.105 333.95 395.818 326.91 398.858L326.819 398.897C323.352 400.377 319.783 401.609 316.142 402.584C314.055 403.15 311.968 403.597 309.853 403.948C304.218 404.924 298.466 405.023 292.801 404.243C281.665 402.663 271.231 397.448 260.123 395.704C237.207 392.142 214.952 403.631 193.387 412.652C188.109 414.864 182.772 416.94 177.376 418.88C173.802 420.171 170.21 421.4 166.602 422.567C144.62 429.685 121.968 434.537 99.001 437.045C89.6241 438.07 79.8456 438.557 70.2989 437.821C66.6938 437.556 63.1063 437.089 59.5533 436.423C47.4673 434.158 36.1844 429.35 27.0959 420.568C19.5457 413.382 14.2182 403.988 10.1574 394.186C8.52486 390.249 7.08646 386.221 5.84223 382.103C3.88653 375.648 2.41761 369.055 1.44784 362.38C1.22727 360.874 1.02933 359.362 0.882284 357.85C0.588194 355.257 0.369509 352.652 0.226234 350.036C-0.565616 336.132 0.790726 322.19 4.24735 308.7C8.09881 293.757 14.5236 279.448 17.3513 264.363C17.4701 263.729 17.5776 263.095 17.685 262.461C18.0621 260.196 18.3486 257.889 18.5447 255.541C19.9699 237.093 14.4557 219.035 10.1009 200.949C9.94819 200.315 9.79548 199.681 9.64844 199.047C9.17714 197.042 8.73035 195.036 8.30806 193.027C4.27563 173.9 3.17279 153.43 6.75278 134.342C6.86589 133.708 6.99597 133.068 7.12605 132.439C9.54098 120.616 13.8053 109.37 20.3375 99.3535C27.0394 89.0705 35.8395 80.5145 45.2221 72.9947C49.8031 69.333 54.5406 65.9072 59.4346 62.7174C62.9523 60.4297 66.5342 58.2648 70.1802 56.2225C99.6401 39.8014 133.251 31.7777 166.483 33.5727C168.244 33.6633 170.001 33.7841 171.754 33.9351C173.594 34.0937 175.429 34.2824 177.257 34.5014C198.652 36.9758 219.471 43.1083 240.164 49.8183C247.098 52.0833 254.015 54.3483 260.932 56.6133C264.008 57.6174 267.083 58.6083 270.156 59.586C285.228 64.3482 300.549 68.646 316.011 71.8849C319.597 72.6399 323.179 73.3288 326.757 73.9517C339.197 76.1828 351.785 77.4812 364.418 77.8361C369.319 77.9569 374.221 77.906 379.122 77.6833C381.599 77.57 384.078 77.4039 386.559 77.185C412.185 74.9879 436.894 67.6211 461.705 60.7015C465.291 59.6993 468.882 58.7027 472.451 57.7401C477.167 56.4717 481.89 55.2429 486.629 54.1104C516.14 47.0154 542.438 51.0924 569.874 65.7241C576.095 69.048 582.316 73.057 586.162 79.2631C590.008 85.4691 590.941 93.1531 591.653 100.548C592.66 111.069 593.35 121.737 593.571 132.451C593.571 133.085 593.571 133.719 593.61 134.353C594.108 156.046 592.79 177.903 589.182 199.047Z" fill="#FFC107"/>
</g>
<path d="M393.448 262.483H391.519V263.327V264.386H393.702L393.448 262.483ZM371.589 262.483C371.586 262.498 371.586 262.514 371.589 262.529L371.419 264.103V264.244V264.386H388.16V264.273L389.353 262.483H371.589ZM326.825 262.483V200.949H346.054C345.85 200.779 345.641 200.61 345.426 200.451L345.143 200.236C345.025 200.14 344.906 200.049 344.781 199.964C344.657 199.879 344.363 199.664 344.142 199.517C343.922 199.369 343.786 199.273 343.577 199.154L343.447 199.069H343.418H326.825V195.7L326.378 195.915L325.903 196.182H325.869L325.767 196.244L325.473 196.436C325.371 196.499 325.27 196.561 325.174 196.629C324.879 196.827 324.608 197.042 324.297 197.263L324.014 197.49C323.822 197.637 323.641 197.79 323.449 197.943C322.696 198.56 321.956 199.205 321.186 199.8C320.994 199.953 320.802 200.1 320.621 200.242C320.21 200.543 319.783 200.823 319.343 201.08C319.16 201.193 318.971 201.297 318.777 201.391L318.46 201.538L318.172 201.663C317.493 201.95 316.788 202.173 316.068 202.331V262.483H287.225C287.225 262.551 287.264 262.613 287.281 262.681C287.439 263.248 287.598 263.814 287.751 264.38H316.074V330.342H316.515L317.018 330.376L317.934 330.444L319.416 330.591L320.084 330.671L320.819 330.761H320.926C321.35 330.818 321.78 330.886 322.216 330.954L322.493 330.999L323.115 331.101L324.008 331.259L326.152 331.146L326.446 331.209C326.565 331.209 326.684 331.254 326.808 331.282V264.386H371.38V264.244V264.103L371.549 262.529C371.547 262.514 371.547 262.498 371.549 262.483H326.825ZM393.448 262.483H391.519V263.327V264.386H393.702L393.448 262.483ZM370.384 262.483L370.192 264.386H388.816L390.083 262.483H370.384ZM326.836 262.483V200.949H346.065C345.862 200.779 345.652 200.61 345.438 200.451L345.155 200.236C345.036 200.14 344.917 200.049 344.793 199.964C344.668 199.879 344.374 199.664 344.154 199.517C343.933 199.369 343.797 199.273 343.588 199.154L343.458 199.069H343.418H326.825V195.7L326.378 195.915L325.903 196.182H325.869L325.767 196.244L325.473 196.436C325.371 196.499 325.27 196.561 325.174 196.629C324.879 196.827 324.608 197.042 324.297 197.263L324.014 197.49C323.822 197.637 323.641 197.79 323.449 197.943C322.696 198.56 321.956 199.205 321.186 199.8C320.994 199.953 320.802 200.1 320.621 200.242C320.21 200.543 319.783 200.823 319.343 201.08C319.16 201.193 318.971 201.297 318.777 201.391L318.46 201.538L318.172 201.663C317.493 201.95 316.788 202.173 316.068 202.331V262.483H287.225C287.225 262.551 287.264 262.613 287.281 262.681C287.439 263.248 287.603 263.814 287.756 264.38H316.074V330.336L316.515 330.365L317.018 330.399L317.934 330.467L319.416 330.614L320.084 330.693L320.819 330.784H320.926C321.35 330.84 321.78 330.908 322.216 330.976L322.493 331.022L323.115 331.124L324.008 331.282L326.152 331.169L326.446 331.231C326.565 331.231 326.684 331.276 326.808 331.305V264.386H370.192L370.396 262.483H326.836ZM472.558 134.342H593.718C593.718 133.708 593.718 133.073 593.678 132.439H472.558V57.7288C468.961 58.6914 465.37 59.688 461.812 60.6902V132.439H330.037L329.704 132.077L330.207 131.511L379.218 77.6549C374.317 77.8814 369.415 77.9324 364.514 77.8078L326.825 119.2V73.9404C323.228 73.3175 319.646 72.6286 316.079 71.8736V117.117L260.977 56.6019C254.06 54.3369 247.143 52.0323 240.21 49.807L315.107 132.077L314.773 132.439H177.303V34.4787C175.47 34.2711 173.636 34.0823 171.8 33.9125C170.046 33.7577 168.289 33.6369 166.529 33.5501V132.439H70.2254V56.2225C66.5719 58.261 62.99 60.426 59.4798 62.7174V132.439H7.1034C6.97333 133.068 6.84324 133.708 6.73013 134.342H59.4345V199.047H9.64842C9.79546 199.681 9.94816 200.315 10.1009 200.949H59.4572V262.483H17.668C17.5606 263.117 17.4531 263.752 17.3344 264.386H59.4572V436.44C63.0102 437.106 66.5977 437.573 70.2028 437.838V264.386H166.529V422.584C170.141 421.41 173.732 420.181 177.303 418.897V264.386H316.057V402.606C319.699 401.632 323.267 400.4 326.734 398.92L326.825 398.881V264.386H461.779V329.204C465.357 328.558 468.939 327.941 472.524 327.352V264.386H568.483C568.799 263.752 569.11 263.117 569.416 262.483H472.558V200.949H588.854C588.973 200.315 589.08 199.681 589.188 199.047H472.558V134.342ZM70.231 134.342H166.529V199.047H70.2254L70.231 134.342ZM70.231 262.483V200.949H166.529V262.483H70.231ZM177.308 134.342H316.057V199.047H177.303L177.308 134.342ZM177.308 262.483V200.949H316.057V262.483H177.308ZM461.784 262.483H326.825V200.949H461.779L461.784 262.483ZM461.784 199.064H326.825V136.075L328.72 134.342H461.779L461.784 199.064ZM371.595 262.483C371.592 262.498 371.592 262.514 371.595 262.529L371.425 264.103V264.244V264.386H388.165V264.273L389.359 262.483H371.595ZM393.453 262.483H391.525V263.327V264.386H393.708L393.453 262.483ZM326.831 262.483V200.949H346.06C345.856 200.779 345.647 200.61 345.432 200.451L345.149 200.236C345.03 200.14 344.912 200.049 344.787 199.964C344.663 199.879 344.369 199.664 344.148 199.517C343.927 199.369 343.792 199.273 343.582 199.154L343.452 199.069H343.424H326.825V195.7L326.378 195.915L325.903 196.182H325.869L325.767 196.244L325.473 196.436C325.371 196.499 325.27 196.561 325.174 196.629C324.879 196.827 324.608 197.042 324.297 197.263L324.014 197.49C323.822 197.637 323.641 197.79 323.449 197.943C322.696 198.56 321.956 199.205 321.186 199.8C320.994 199.953 320.802 200.1 320.621 200.242C320.21 200.543 319.783 200.823 319.343 201.08C319.16 201.193 318.971 201.297 318.777 201.391L318.46 201.538L318.172 201.663C317.493 201.95 316.788 202.173 316.068 202.331V262.483H287.225C287.225 262.551 287.264 262.613 287.281 262.681C287.439 263.248 287.598 263.814 287.751 264.38H316.074V330.342H316.515L317.018 330.376L317.934 330.444L319.416 330.591L320.084 330.671L320.819 330.761H320.926C321.35 330.818 321.78 330.886 322.216 330.954L322.493 330.999L323.115 331.101L324.008 331.259L326.152 331.146L326.446 331.209C326.565 331.209 326.684 331.254 326.808 331.282V264.386H371.38V264.244V264.103L371.549 262.529C371.547 262.514 371.547 262.498 371.549 262.483H326.831Z" fill="#FFC107"/>
<path opacity="0.1" d="M116.528 89.7896H117.387C117.093 89.6191 116.846 89.3784 116.667 89.0889C116.489 88.7994 116.384 88.4701 116.364 88.1305C116.364 86.8168 117.97 85.7466 119.932 85.7466H144.902C146.864 85.7466 148.47 86.8168 148.47 88.1305C148.47 89.4385 146.864 90.5144 144.902 90.5144H144.07C144.363 90.6859 144.609 90.927 144.787 91.2164C144.964 91.5058 145.068 91.8345 145.088 92.1735C145.088 93.306 143.923 94.2346 142.362 94.4894H149.551C151.507 94.4894 153.114 95.5596 153.114 96.8733C153.114 98.187 151.507 99.2515 149.551 99.2515H124.553C122.596 99.2515 120.99 98.1813 120.99 96.8733C120.99 95.7408 122.155 94.8122 123.716 94.5574H116.528C114.571 94.5574 112.965 93.4872 112.965 92.1735C112.965 90.8598 114.56 89.7896 116.528 89.7896Z" fill="#FFC107"/>
<path opacity="0.1" d="M387.159 112.479H387.996C387.701 112.308 387.453 112.066 387.275 111.776C387.096 111.485 386.992 111.155 386.972 110.814C386.972 109.506 388.578 108.436 390.541 108.436H415.51C417.473 108.436 419.079 109.506 419.079 110.814C419.079 112.128 417.473 113.198 415.51 113.198H414.679C414.972 113.371 415.218 113.613 415.396 113.903C415.573 114.193 415.677 114.523 415.697 114.863C415.697 115.995 414.532 116.918 412.971 117.173H420.159C422.116 117.173 423.722 118.249 423.722 119.557C423.722 120.865 422.116 121.941 420.159 121.941H395.195C393.238 121.941 391.632 120.871 391.632 119.557C391.632 118.425 392.797 117.496 394.358 117.247H387.159C385.202 117.247 383.596 116.171 383.596 114.863C383.596 113.555 385.213 112.479 387.159 112.479Z" fill="#FFC107"/>
<path opacity="0.1" d="M78.2224 209.573H79.0594C78.7662 209.401 78.5199 209.159 78.3424 208.868C78.1648 208.578 78.0615 208.248 78.0414 207.908C78.0414 206.6 79.6419 205.525 81.6044 205.525H106.574C108.536 205.525 110.142 206.6 110.142 207.908C110.142 209.222 108.536 210.292 106.574 210.292H105.742C106.036 210.465 106.282 210.707 106.459 210.997C106.637 211.288 106.74 211.617 106.76 211.957C106.76 213.09 105.595 214.013 104.034 214.267H111.223C113.185 214.267 114.786 215.338 114.786 216.651C114.786 217.965 113.185 219.035 111.223 219.035H86.2477C84.2908 219.035 82.6846 217.959 82.6846 216.651C82.6846 215.519 83.8553 214.59 85.4106 214.335H78.2224C76.2656 214.335 74.6594 213.265 74.6594 211.957C74.6594 210.649 76.2656 209.573 78.2224 209.573Z" fill="#FFC107"/>
<path d="M367.002 372.675C365.603 373.784 364.205 374.892 362.806 375.998C361.986 376.65 361.154 377.295 360.329 377.941C359.729 378.411 359.135 378.881 358.525 379.345C355.465 381.706 352.366 384.017 349.204 386.225C348.452 386.751 347.688 387.278 346.942 387.793C340.613 392.127 333.882 395.84 326.842 398.88L326.751 398.92V372.675H367.002Z" fill="#65617D"/>
<path d="M429.938 269.527L430.571 249.964C430.192 249.669 429.808 249.397 429.44 249.125C429.596 243.292 429.263 237.457 428.445 231.679C425.888 212.116 409.289 211.691 404.606 215.728C403.986 216.264 403.309 216.732 402.587 217.121C403.011 214.33 403.537 211.532 403.916 208.769C405.964 193.866 402.785 177.099 391.237 167.467C386.401 163.441 380.491 160.967 375.18 157.598C365.668 151.59 358.151 142.717 348.531 136.867C338.911 131.018 325.4 128.827 317.007 136.346C313.755 139.257 311.657 143.294 308.32 146.103C302.099 151.335 292.399 151.68 286.97 157.524C286.699 157.818 286.438 158.118 286.19 158.436C281.665 164.245 282.904 172.484 284.346 179.692C286.082 188.367 285.364 195.321 292.795 197.812C292.824 198.158 292.846 198.503 292.886 198.843C293.49 204.164 295.249 209.289 298.039 213.859C300.829 218.429 304.583 222.333 309.038 225.298L307.834 225.728C304.621 226.861 301.731 227.959 299.882 228.712C293.095 231.481 278.809 235.088 278.809 235.088C278.809 235.088 278.47 239.165 278.532 245.179C273.77 250.36 265.824 259.465 263.488 264.861C260.095 272.732 240.922 295.275 235.815 298.678C230.708 302.081 225.172 306.118 225.172 306.118C225.172 306.118 217.084 310.586 213.255 311.01C210.603 311.305 202.396 309.731 202.396 309.731C202.396 309.731 169.622 269.527 171.749 300.376C173.875 331.225 200.055 332.273 200.055 332.273L226.45 331.848C226.45 331.848 240.713 333.762 247.098 328.451C252.55 323.921 280.806 299.068 289.883 287.794C290.092 288.027 290.301 288.253 290.522 288.474C290.522 288.474 294.136 283.797 294.566 288.474C294.995 293.151 292.219 295.269 293.712 296.968C295.205 298.666 299.673 304.623 299.882 306.962C300.091 309.3 293.926 318.853 304.35 326.101C304.514 326.214 304.689 326.322 304.881 326.429C306.742 330.671 312.658 334.821 312.658 334.821L344.584 334.396L404.821 339.074C404.821 339.074 406.614 337.494 409.04 334.912C412.281 337.89 416.777 340.444 421.845 338.875C421.845 338.875 429.084 330.161 429.299 324.419C429.299 324.419 424.616 312.296 422.512 308.683C420.408 305.071 424.005 297.2 424.005 297.2C424.005 297.2 426.556 289.544 428.049 289.544C429.542 289.544 428.473 284.448 428.473 284.448C427.908 283.615 427.555 282.657 427.444 281.656C427.333 280.656 427.466 279.643 427.834 278.706C429.084 275.484 429.938 269.527 429.938 269.527Z" fill="url(#paint0_linear_2_262)"/>
<path d="M393.827 265.122L391.564 267.772L382.425 278.429L370.486 279.153L351.376 280.331C351.376 280.331 325.609 249.244 330.45 242.478C332.209 240.037 332.497 236.815 332.147 233.775C332.102 233.356 332.039 232.936 331.966 232.523C331.387 229.306 330.374 226.182 328.957 223.237L329.591 222.948L329.998 222.761L352.53 212.467L358.106 209.919C358.384 211.457 358.899 212.944 359.633 214.324C359.74 214.539 359.859 214.754 359.984 214.958C367.67 227.699 392.317 219.641 392.317 219.641L393.827 265.122Z" fill="#EE8E9E"/>
<path d="M427.144 249.216C426.974 256.928 425.718 260.258 425.718 260.258L393.827 265.122L392.633 256.832L387.911 224.097L392.345 219.658C394.116 220.041 395.952 220.011 397.71 219.571C399.468 219.131 401.102 218.293 402.485 217.121C407.129 213.101 423.603 213.526 426.137 232.976C426.881 238.356 427.218 243.785 427.144 249.216Z" fill="#EE8E9E"/>
<path d="M419.593 339.549C419.593 339.549 426.77 330.88 426.985 325.172L419.803 313.117L413.468 306.322L401.637 329.187C401.637 329.187 409.453 342.72 419.593 339.549Z" fill="#DFE5EE"/>
<path opacity="0.1" d="M419.593 339.549C419.593 339.549 426.77 330.88 426.985 325.172L419.803 313.117L413.468 306.322L401.637 329.187C401.637 329.187 409.453 342.72 419.593 339.549Z" fill="black"/>
<path d="M360.329 377.941C359.729 378.411 359.135 378.881 358.525 379.345C355.465 381.706 352.366 384.017 349.204 386.225C348.452 386.752 347.688 387.278 346.942 387.793H316.057H177.303H166.529L113.151 385.88L70.2254 385.517L59.4798 384.951L5.86483 382.12C3.90066 375.66 2.42417 369.062 1.44782 362.38C1.22725 360.874 1.02931 359.362 0.882263 357.85L59.4572 361.101L70.2028 361.706L166.506 367.086L177.28 367.686L316.034 375.444L326.712 376.044H326.802L360.329 377.941Z" fill="#D48A9B"/>
<path d="M432.686 335.761C420.917 339.159 409.498 343.536 398.753 349.736C397.899 350.229 397.056 350.733 396.202 351.248C395.348 351.763 394.505 352.278 393.685 352.811C392.865 353.343 392.039 353.87 391.225 354.408L389.97 355.257L388.742 356.095C387.532 356.927 386.339 357.794 385.145 358.632L385.1 358.666C384.314 359.232 383.533 359.798 382.753 360.364C378.347 363.632 374.038 367.052 369.745 370.483C368.84 371.208 367.934 371.931 367.025 372.652L362.84 375.976C362.02 376.627 361.188 377.273 360.363 377.918C359.763 378.388 359.169 378.858 358.558 379.322L326.887 377.81H326.797L316.119 377.312L177.303 370.727L166.529 370.211L70.2254 365.631L59.4798 365.115L1.44784 362.38C1.22727 360.874 1.02932 359.362 0.882277 357.85C0.588186 355.257 0.369502 352.652 0.226227 350.036L59.4741 329.085L70.2197 325.274L79.9813 321.82L97.7681 322.749L138.879 324.861L166.546 326.316L177.32 326.882L184.202 327.245L185.848 327.335L243.773 330.365L244.383 330.404L270.23 331.752H270.524H270.693L273.278 331.882L282.089 332.347L293.106 332.913L296.737 333.105L297.422 333.145L302.557 333.411L304.022 333.485L308.925 333.745L310.876 333.853H310.938H311.346L315.932 334.096L323.036 334.47H323.07L325.275 334.583H325.513L326.831 334.657L330.066 334.827L332.893 334.974H332.922L336.094 335.138H336.145L338.549 335.268L340.393 335.365L346.936 335.71L348.113 335.772H348.52L349.085 335.806L351.003 335.908L351.862 335.954L358.536 336.299H359.147L368.999 336.214H369.067L406.523 335.908H407.242H408H410.228L422.286 335.812H424.084L432.686 335.761Z" fill="#EFC6CD"/>
<path d="M179.887 336.537L183.371 355.093L278.091 353.666C278.091 353.666 285.217 355.727 285.058 350.019C285.058 350.019 299.475 336.378 372.494 352.239L344.459 330.195L267.826 334.317L178.965 331.939L179.887 336.537Z" fill="#FFC107"/>
<path d="M181.629 332.097L184.955 352.239C184.955 352.239 266.395 349.861 279.199 352.08L269.523 333.683C269.523 333.683 220.279 329.085 181.629 332.097Z" fill="white"/>
<path opacity="0.1" d="M181.629 332.097L184.955 352.239C184.955 352.239 266.395 349.861 279.199 352.08L269.523 333.683C269.523 333.683 220.279 329.085 181.629 332.097Z" fill="black"/>
<path d="M182.845 332.024L186.125 350.755C186.125 350.755 266.531 348.547 279.199 350.608L269.658 333.502C269.658 333.502 221.009 329.221 182.845 332.024Z" fill="white"/>
<path opacity="0.1" d="M184.321 332.601L187.517 350.121C187.517 350.121 266.157 348.054 278.572 349.985L269.24 333.977C269.24 333.977 221.654 329.957 184.321 332.601Z" fill="black"/>
<path d="M184.955 331.962L188.167 349.515C188.167 349.515 266.808 347.448 279.222 349.379L269.868 333.354C269.868 333.354 222.287 329.34 184.955 331.962Z" fill="white"/>
<path d="M129.315 284.323C129.315 284.323 133.432 289.708 127.42 297.845C121.408 305.982 116.443 312.845 118.451 317.919C118.451 317.919 127.5 302.811 134.908 302.63C142.317 302.449 137.442 293.406 129.315 284.323Z" fill="#FFC107"/>
<path opacity="0.1" d="M129.315 284.323C129.677 284.846 129.961 285.418 130.158 286.022C137.363 294.516 141.203 302.443 134.275 302.613C127.822 302.794 120.085 314.346 118.23 317.267C118.294 317.486 118.368 317.707 118.451 317.93C118.451 317.93 127.5 302.823 134.908 302.641C142.317 302.46 137.442 293.406 129.315 284.323Z" fill="black"/>
<path d="M136.967 291.192C136.967 293.083 136.752 294.623 136.492 294.623C136.232 294.623 136.017 293.083 136.017 291.192C136.017 289.301 136.283 290.184 136.543 290.184C136.803 290.184 136.967 289.295 136.967 291.192Z" fill="#FFD037"/>
<path d="M139.591 293.451C137.928 294.363 136.481 294.912 136.356 294.68C136.232 294.448 137.487 293.547 139.139 292.619C140.79 291.69 140.145 292.37 140.27 292.619C140.394 292.868 141.254 292.545 139.591 293.451Z" fill="#FFD037"/>
<path d="M107.581 284.323C107.581 284.323 103.463 289.708 109.481 297.845C115.498 305.982 120.453 312.845 118.451 317.919C118.451 317.919 109.373 302.811 101.987 302.63C94.601 302.449 99.4535 293.406 107.581 284.323Z" fill="#FFC107"/>
<path opacity="0.1" d="M107.581 284.323C107.222 284.847 106.938 285.419 106.738 286.022C99.5327 294.516 95.6925 302.443 102.621 302.613C109.074 302.794 116.816 314.346 118.671 317.267C118.611 317.486 118.537 317.707 118.451 317.93C118.451 317.93 109.373 302.823 101.987 302.641C94.601 302.46 99.4535 293.406 107.581 284.323Z" fill="black"/>
<path d="M99.9286 291.192C99.9286 293.083 100.143 294.623 100.404 294.623C100.664 294.623 100.879 293.083 100.879 291.192C100.879 289.301 100.613 290.184 100.353 290.184C100.093 290.184 99.9286 289.295 99.9286 291.192Z" fill="#FFD037"/>
<path d="M97.3043 293.451C98.9671 294.363 100.421 294.912 100.545 294.68C100.669 294.448 99.4139 293.547 97.7624 292.619C96.111 291.69 96.7558 292.37 96.6313 292.619C96.5069 292.868 95.6416 292.545 97.3043 293.451Z" fill="#FFD037"/>
<path d="M140.575 310.654L140.372 312.352L140.083 314.725L139.964 315.716L139.676 318.094L139.552 319.085L139.257 321.463L135.966 348.485C135.672 350.897 131.736 352.777 126.985 352.777H109.894C105.143 352.777 101.212 350.897 100.918 348.485L97.6211 321.463L97.3326 319.085L97.2139 318.094L96.9198 315.716L96.801 314.725L96.5126 312.352L96.3033 310.654C96.1393 309.289 98.2658 308.14 100.958 308.14H135.943C138.63 308.14 140.762 309.289 140.575 310.654Z" fill="#65617D"/>
<path d="M140.389 312.336L140.1 314.714H96.801L96.5126 312.336H140.389Z" fill="#9D9CB5"/>
<path d="M139.981 315.705L139.693 318.083H97.2139L96.9198 315.705H139.981Z" fill="#9D9CB5"/>
<path d="M139.569 319.074L139.28 321.446H97.6211L97.3326 319.074H139.569Z" fill="#9D9CB5"/>
<path d="M192.771 308.468C192.771 308.468 181.788 297.896 182.212 311.639C182.636 325.382 192.771 308.468 192.771 308.468Z" fill="#EE8E9E"/>
<path d="M291.398 284.363C291.155 285.427 289.973 287.194 288.129 289.408C278.605 300.892 251.51 324.759 246.199 329.187C239.865 334.476 225.714 332.584 225.714 332.584L199.529 333.009C199.529 333.009 173.553 331.95 171.438 301.299C169.323 270.648 201.848 310.603 201.848 310.603C201.848 310.603 209.992 312.166 212.622 311.871C216.422 311.452 224.448 307.013 224.448 307.013C224.448 307.013 229.939 302.992 235.007 299.612C240.074 296.231 259.082 273.814 262.464 265.988C264.608 261.022 271.513 252.902 276.281 247.636C279.018 244.607 281.049 242.54 281.049 242.54C281.049 242.54 292.874 277.806 291.398 284.363Z" fill="#EE8E9E"/>
<path opacity="0.1" d="M291.398 284.363C291.155 285.427 289.973 287.194 288.129 289.408C278.515 279.606 276.507 260.048 276.281 247.614C279.018 244.584 281.049 242.517 281.049 242.517C281.049 242.517 292.874 277.806 291.398 284.363Z" fill="black"/>
<path opacity="0.1" d="M391.559 267.772L382.425 278.429L370.486 279.153L351.376 280.331C351.376 280.331 325.609 249.244 330.45 242.478C332.209 240.037 332.497 236.815 332.147 233.775C332.102 233.355 332.039 232.936 331.966 232.523C331.387 229.306 330.374 226.182 328.957 223.237L329.591 222.948L329.998 222.761C331.003 225.566 331.698 228.473 332.068 231.43C332.13 231.832 332.186 232.251 332.243 232.682C332.441 234.211 332.622 235.909 332.809 237.778C334.279 254.89 345.03 261.328 349.883 263.378C351.443 264.037 352.968 264.776 354.452 265.592C359.121 268.17 364.505 269.144 369.779 268.366C381.758 266.792 391.525 258.078 391.525 258.078L391.576 266.656L391.559 267.772Z" fill="black"/>
<path d="M391.926 334.266C391.926 334.266 313.365 334.051 303.009 326.865C292.654 319.68 298.79 310.161 298.575 307.834C298.36 305.507 293.932 299.589 292.456 297.891C290.98 296.192 293.723 294.085 293.299 289.436C292.874 284.788 289.289 289.436 289.289 289.436C274.499 274.42 277.667 236.362 277.667 236.362C277.667 236.362 291.806 232.772 298.592 230.015C300.43 229.267 303.292 228.203 306.51 227.053L307.703 226.623C316 223.65 325.864 220.292 325.864 220.292C325.864 220.292 327.758 218.95 329.664 222.965C330.535 224.811 331.412 227.784 332.113 232.534C332.175 232.936 332.232 233.356 332.288 233.786C332.486 235.315 332.667 237.013 332.854 238.882C334.324 255.994 345.076 262.432 349.928 264.482C351.488 265.141 353.014 265.88 354.498 266.696C359.166 269.274 364.55 270.248 369.824 269.471C381.803 267.896 391.57 259.182 391.57 259.182L391.621 267.761L391.768 293.536L391.926 334.266Z" fill="#DFE5EE"/>
<path d="M388.544 300.858L387.278 308.893C387.278 308.893 356.019 316.713 343.775 319.04C331.53 321.367 305.124 318.406 303.224 323.479C301.324 328.553 311.249 335.535 311.249 335.535L342.921 335.11L402.689 339.764C402.689 339.764 425.498 319.674 418.106 305.716C410.714 291.758 388.544 300.858 388.544 300.858Z" fill="#EE8E9E"/>
<path opacity="0.1" d="M324.133 237.421C324.133 237.421 309.768 249.261 312.516 254.975C315.265 260.688 324.133 237.421 324.133 237.421Z" fill="black"/>
<path opacity="0.1" d="M306.391 258.774C306.391 258.774 291.817 283.938 292.665 285.841C293.514 287.743 297.523 294.51 297.308 289.437C297.094 284.363 306.391 258.774 306.391 258.774Z" fill="black"/>
<path opacity="0.1" d="M312.307 263.219C312.307 263.219 308.914 278.865 305.549 285.422C302.183 291.979 312.307 263.219 312.307 263.219Z" fill="black"/>
<path opacity="0.1" d="M360.012 214.975C357.219 220.102 353.241 224.485 348.41 227.758C343.579 231.031 338.035 233.098 332.243 233.786H332.175C323.064 234.857 313.884 232.451 306.465 227.048C314.948 223.978 325.818 220.287 325.818 220.287C325.818 220.287 327.713 218.945 329.619 222.959L358.134 209.936C358.455 211.714 359.091 213.421 360.012 214.975Z" fill="black"/>
<path d="M364.469 196.187C364.479 202.555 362.822 208.815 359.661 214.341C358.152 216.976 356.322 219.415 354.215 221.6C348.336 227.729 340.501 231.607 332.068 232.563H331.994C330.646 232.717 329.29 232.795 327.934 232.795C318.957 232.795 310.294 229.486 303.598 223.5C296.902 217.513 292.642 209.268 291.63 200.338C291.473 198.967 291.396 197.589 291.398 196.21C291.398 186.508 295.248 177.204 302.099 170.344C308.951 163.484 318.244 159.63 327.934 159.63C337.623 159.63 346.916 163.484 353.768 170.344C360.619 177.204 364.469 186.508 364.469 196.21V196.187Z" fill="#EE8E9E"/>
<path opacity="0.1" d="M388.126 265.405L391.519 260.309C391.519 260.309 410.103 238.106 428.281 252.274L427.647 271.73C427.647 271.73 426.799 277.647 425.532 280.79C425.168 281.722 425.036 282.73 425.146 283.725C425.256 284.72 425.606 285.673 426.165 286.503C426.165 286.503 427.223 291.6 425.747 291.6C424.271 291.6 421.731 299.21 421.731 299.21C421.731 299.21 418.14 307.035 420.255 310.631C422.37 314.227 427.014 326.276 427.014 326.276C427.014 326.276 419.622 321.837 417.507 314.436C417.507 314.436 399.556 300.478 385.615 309.34L388.126 265.405Z" fill="black"/>
<path opacity="0.1" d="M427.144 249.216C426.974 256.928 425.719 260.258 425.719 260.258L393.827 265.122L392.633 256.832C396.807 252.472 411.987 238.61 427.144 249.216Z" fill="black"/>
<path d="M388.126 264.273L391.519 259.176C391.519 259.176 410.103 236.974 428.281 251.141L427.647 270.597C427.647 270.597 426.799 276.515 425.532 279.657C425.168 280.59 425.036 281.597 425.146 282.592C425.256 283.587 425.606 284.541 426.165 285.371C426.165 285.371 427.223 290.467 425.747 290.467C424.271 290.467 421.731 298.077 421.731 298.077C421.731 298.077 418.14 305.903 420.255 309.499C422.37 313.094 427.014 325.144 427.014 325.144C427.014 325.144 419.622 320.705 417.507 313.304C417.507 313.304 399.556 299.346 385.615 308.208L388.126 264.273Z" fill="#DFE5EE"/>
<path opacity="0.1" d="M418.112 249.896C418.112 249.896 387.492 268.718 388.969 285.224C388.969 285.224 406.077 254.969 418.112 249.896Z" fill="black"/>
<path opacity="0.1" d="M391.553 267.778L391.7 293.553C385.909 293.814 380.451 293.06 376.136 289.306C373.133 286.69 371.385 283.078 370.48 279.17C369.807 276.022 369.56 272.798 369.745 269.584C369.742 269.552 369.742 269.52 369.745 269.488C370.102 262.37 371.736 255.252 370.876 248.18C370.017 241.107 365.735 233.644 358.745 232.155C357.365 231.855 355.816 231.747 354.831 230.734C353.746 229.601 353.796 227.84 353.915 226.272L354.119 223.627C354.17 222.948 354.192 222.274 354.192 221.6C354.188 215.588 352.1 209.764 348.283 205.123C344.466 200.482 339.159 197.311 333.267 196.153L333.04 196.114C331.072 195.717 329.025 195.326 327.057 195.779C323.313 196.646 320.892 200.281 317.442 202.008C310.825 205.315 299.791 201.697 292.863 200.559C292.411 200.485 291.981 200.4 291.568 200.304C291.411 198.933 291.333 197.555 291.336 196.176C291.339 190.573 292.627 185.046 295.101 180.02C297.575 174.995 301.169 170.606 305.605 167.191C310.042 163.777 315.202 161.428 320.689 160.327C326.176 159.225 331.842 159.401 337.25 160.839C342.659 162.277 347.665 164.94 351.883 168.622C356.1 172.305 359.417 176.907 361.576 182.076C363.736 187.245 364.681 192.841 364.338 198.433C363.995 204.026 362.374 209.464 359.599 214.33C359.707 214.545 359.825 214.76 359.95 214.964C367.636 227.704 392.283 219.647 392.283 219.647L393.764 265.111L391.553 267.778Z" fill="black"/>
<path d="M318.771 201.38C322.199 199.647 324.619 196.012 328.386 195.151C330.348 194.698 332.396 195.089 334.375 195.479L334.601 195.525C340.831 196.759 346.392 200.238 350.231 205.302C354.07 210.367 355.92 216.665 355.431 223.005L355.227 225.649C355.103 227.212 355.052 228.984 356.149 230.105C357.128 231.119 358.677 231.238 360.057 231.521C367.048 233.016 371.329 240.439 372.188 247.551C373.048 254.663 371.385 261.804 371.057 268.95C370.729 276.096 372.041 283.983 377.437 288.678C385.92 296.039 398.815 291.849 410.041 291.175C405.076 291.175 401.354 286.045 401.083 281.084C400.811 276.124 403.017 271.402 405.127 266.928C407.236 262.455 409.351 257.642 408.882 252.693C408.237 245.898 402.887 240.456 400.84 233.916C398.453 226.306 400.755 218.135 401.835 210.224C403.865 195.411 400.704 178.735 389.251 169.16C384.455 165.157 378.591 162.694 373.32 159.342C363.875 153.345 356.426 144.551 346.88 138.719C337.333 132.887 323.929 130.723 315.599 138.198C312.375 141.091 310.294 145.106 306.979 147.898C300.504 153.362 290.211 153.464 285.019 160.168C280.551 165.938 281.761 174.132 283.192 181.295C285.098 190.847 284.023 198.282 294.22 199.981C301.12 201.074 312.149 204.692 318.771 201.38Z" fill="#603556"/>
<path opacity="0.1" d="M402.791 286.611C394.619 287.613 386.52 288.129 380.57 282.964C375.175 278.27 373.846 270.388 374.191 263.236C374.536 256.085 376.187 248.939 375.322 241.832C374.456 234.726 370.181 227.302 363.19 225.807C361.81 225.513 360.267 225.405 359.282 224.392C358.191 223.259 358.236 221.493 358.361 219.93L358.564 217.285C359.053 210.947 357.203 204.649 353.364 199.586C349.525 194.522 343.964 191.044 337.735 189.811L337.508 189.766C335.529 189.375 333.482 188.985 331.519 189.438C327.775 190.304 325.355 193.967 321.905 195.666C315.282 198.979 304.259 195.36 297.32 194.222C287.14 192.552 288.203 185.106 286.291 175.536C285.223 170.191 284.278 164.268 285.726 159.206C285.454 159.494 285.194 159.772 284.945 160.117C280.478 165.887 281.688 174.081 283.119 181.244C285.025 190.796 283.95 198.231 294.147 199.93C301.081 201.063 312.109 204.687 318.732 201.374C322.159 199.641 324.58 196.006 328.346 195.145C330.309 194.692 332.356 195.083 334.336 195.474L334.562 195.519C340.791 196.753 346.352 200.232 350.191 205.297C354.03 210.361 355.88 216.66 355.391 222.999L355.188 225.643C355.063 227.206 355.012 228.978 356.11 230.1C357.088 231.113 358.638 231.232 360.018 231.515C367.008 233.01 371.289 240.434 372.149 247.546C373.009 254.658 371.351 261.798 371.018 268.944C370.684 276.09 372.002 283.978 377.397 288.672C385.881 296.033 398.775 291.843 410.002 291.169C406.953 291.186 404.391 289.25 402.791 286.611Z" fill="black"/>
<path d="M173.265 305.501L208.131 292.477C208.955 292.169 209.868 292.201 210.669 292.566C211.469 292.932 212.093 293.6 212.401 294.425C212.709 295.25 212.677 296.164 212.312 296.966C211.947 297.767 211.28 298.391 210.456 298.7L175.589 311.724L168.112 310.976L173.265 305.501Z" fill="#5C5C8E"/>
<path opacity="0.1" d="M211.349 293.361C211.657 294.187 211.624 295.101 211.258 295.903C210.892 296.704 210.223 297.328 209.398 297.636L174.509 310.705L168.898 310.138L168.09 310.999L175.566 311.747L210.433 298.723C211.257 298.414 211.925 297.79 212.289 296.988C212.654 296.187 212.686 295.273 212.379 294.448C212.122 293.76 211.644 293.176 211.021 292.789C211.147 292.97 211.256 293.161 211.349 293.361Z" fill="white"/>
<path d="M173.27 305.501L175.589 311.724L169.458 311.107L168.118 310.971L169.95 309.023L173.27 305.501Z" fill="#EFC8C4"/>
<path d="M169.945 309.006C170.088 309.113 170.211 309.246 170.307 309.397C170.364 309.487 170.394 309.592 170.394 309.7C170.394 309.807 170.364 309.912 170.307 310.003C170.21 310.102 170.097 310.185 169.973 310.246C169.833 310.34 169.716 310.464 169.629 310.609C169.543 310.754 169.491 310.916 169.475 311.084L168.129 310.954L169.945 309.006Z" fill="#727A9C"/>
<path d="M282.74 345.246C282.74 345.246 312.941 338.898 363.615 346.944L343.763 332.358L307.647 324.957L282.095 331.752L282.74 345.246Z" fill="white"/>
<path opacity="0.1" d="M282.74 345.246C282.74 345.246 312.941 338.898 363.615 346.944L343.763 332.358L307.647 324.957L282.095 331.752L282.74 345.246Z" fill="black"/>
<path d="M279.199 352.109C279.199 352.109 294.407 310.92 372.516 352.239L344.482 334.176C344.482 334.176 277.322 315.597 269.562 337.007L279.199 352.109Z" fill="white"/>
<path opacity="0.1" d="M279.199 352.08C279.199 352.08 294.407 308.043 372.516 352.873L344.482 333.281C344.482 333.281 277.299 311.061 269.523 334.317L279.199 352.08Z" fill="black"/>
<path d="M279.199 352.097C279.199 352.097 294.407 307.409 372.516 352.239L344.482 332.647C344.482 332.647 277.322 311.061 269.562 334.345L279.199 352.097Z" fill="white"/>
<path opacity="0.1" d="M279.199 352.109C279.199 352.109 294.407 302.443 372.516 352.873L344.459 330.829C344.459 330.829 277.299 308.179 269.54 334.317L279.199 352.109Z" fill="black"/>
<path d="M279.199 352.08C279.199 352.08 294.407 301.809 372.516 352.239L344.459 330.195C344.459 330.195 277.299 307.545 269.54 333.683L279.199 352.08Z" fill="white"/>
<path opacity="0.1" d="M513.533 347.346C513.533 347.346 494.785 367.454 511.661 377.222C511.661 377.222 513.866 379.883 517.017 378.49C517.017 378.49 515.953 377.544 518.086 375.721C518.839 375.067 519.513 374.325 520.093 373.513C520.88 372.415 521.289 371.092 521.258 369.741C521.258 369.741 523.713 361.763 515.914 351.406C515.914 351.406 515.207 347.941 514.607 347.562L513.182 352.392C513.182 352.392 516.762 353.303 518.108 356.033C518.108 356.033 513.391 352.324 512.933 353.099C512.843 353.258 512.294 355.699 512.294 355.699C512.294 355.699 518.515 357.307 520.461 361.588C520.461 361.588 515.433 356.418 512.079 356.622L511.468 360.347C511.468 360.347 518.125 361.729 520.517 366.52C520.517 366.52 515.077 361.293 511.378 361.174L511.271 364.917C511.271 364.917 517.735 366.389 519.709 370.387C519.709 370.387 512.815 364.991 511.304 365.778C511.304 365.778 511.412 369.226 511.87 370.127C511.87 370.127 516.485 371.259 517.424 373.717C517.424 373.717 512.436 370.596 512.006 371.072C512.006 371.072 513.346 375.523 515.212 377.42C515.212 377.42 512.249 374.821 511.321 371.316C511.321 371.316 510.066 373.507 510.383 375.659C510.383 375.659 508.533 373.609 511.01 370.234C511.01 370.234 510.105 366.723 510.332 366.168C510.332 366.168 507.419 369.153 506.673 371.831C506.673 371.831 506.107 368.479 510.326 365.2V361.429C510.326 361.429 506.265 365.172 505.428 367.488C505.428 367.488 505.372 363.977 510.411 360.483L510.976 356.82C510.976 356.82 507.232 359.776 505.745 362.154C505.745 362.154 506.39 358.881 511.174 355.778L511.836 353.377C511.836 353.377 509.144 355.585 508.443 356.287C507.741 356.99 507.476 356.854 507.476 356.854C508.577 354.955 510.182 353.399 512.113 352.358C512.113 352.358 513.844 347.477 513.533 347.346Z" fill="#FFC107"/>
<path opacity="0.1" d="M597.343 20.1697C597.343 20.1697 572.294 31.4946 584.103 47.0041C584.103 47.0041 585.115 50.3166 588.554 50.2487C588.554 50.2487 587.938 48.9633 590.607 48.1026C591.556 47.7922 592.463 47.3682 593.31 46.8399C594.459 46.1312 595.346 45.068 595.838 43.8104C595.838 43.8104 601.177 37.4005 597.971 24.8355C597.971 24.8355 598.655 21.3645 598.248 20.7812L595.069 24.6883C595.069 24.6883 598.022 26.908 598.214 29.9487C598.214 29.9487 595.296 24.7053 594.572 25.2489C594.425 25.3565 592.982 27.395 592.982 27.395C592.982 27.395 598.072 31.2794 598.248 35.9849C598.248 35.9849 595.601 29.2692 592.422 28.1594L590.426 31.3644C590.426 31.3644 596.036 35.2092 596.41 40.5545C596.41 40.5545 593.401 33.635 590.036 32.0948L588.492 35.4923C588.492 35.4923 593.893 39.3484 594.147 43.7991C594.147 43.7991 589.866 36.1548 588.17 36.302C588.17 36.302 586.942 39.5183 587.038 40.5319C587.038 40.5319 590.85 43.3631 590.782 45.9905C590.782 45.9905 587.389 41.1887 586.824 41.4605C586.824 41.4605 586.343 46.0811 587.338 48.5556C587.338 48.5556 585.602 45.0109 586.1 41.4209C586.1 41.4209 584.092 42.9611 583.56 45.0675C583.56 45.0675 582.644 42.4571 586.23 40.2997C586.23 40.2997 586.744 36.7154 587.168 36.2907C587.168 36.2907 583.328 37.9158 581.62 40.0789C581.62 40.0789 582.384 36.7663 587.547 35.3734L589.018 31.908C589.018 31.908 583.832 33.7879 582.163 35.5999C582.163 35.5999 583.464 32.3383 589.459 31.0699L591.388 27.9103C591.388 27.9103 586.795 29.1956 584.505 30.8094C584.505 30.8094 586.365 28.0462 591.976 27.0269L593.508 25.0677C593.508 25.0677 590.172 26.0643 589.238 26.438C588.305 26.8117 588.107 26.5909 588.107 26.5909C589.865 25.2592 591.959 24.4435 594.153 24.2353C594.153 24.2353 597.546 20.3962 597.343 20.1697Z" fill="#FFC107"/>
<path opacity="0.1" d="M359.599 27.1798C359.599 27.1798 321.967 37.9385 340.263 53.9519C340.263 53.9519 341.886 57.3494 347.095 57.3494C347.095 57.3494 346.122 56.0357 350.149 55.2373C351.535 54.9581 352.894 54.5564 354.209 54.0368C355.761 53.4925 357.081 52.4362 357.953 51.0414C357.953 51.0414 365.871 44.6994 360.674 31.9136C360.674 31.9136 361.618 28.4255 360.985 27.8253L356.279 31.6871C356.279 31.6871 360.804 34.0144 361.183 37.0891C361.183 37.0891 356.619 31.7154 355.527 32.242C355.307 32.3496 353.174 34.3655 353.174 34.3655C353.174 34.3655 361.024 38.4311 361.381 43.1932C361.381 43.1932 357.195 36.336 352.332 35.1299L349.391 38.3122C349.391 38.3122 357.987 42.3495 358.694 47.7628C358.694 47.7628 353.955 40.6904 348.82 39.0426L346.557 42.4401C346.557 42.4401 354.837 46.4831 355.38 50.9904C355.38 50.9904 348.689 43.1479 346.122 43.2442C346.122 43.2442 344.352 46.4718 344.51 47.4967C344.51 47.4967 350.358 50.4865 350.33 53.1138C350.33 53.1138 345.047 48.1648 344.176 48.4253C344.176 48.4253 343.577 53.0855 345.149 55.611C345.149 55.611 342.423 51.9813 343.079 48.3687C343.079 48.3687 340.087 49.8692 339.335 51.9813C339.335 51.9813 337.876 49.3257 343.249 47.2419C343.249 47.2419 343.933 43.6292 344.561 43.2102C344.561 43.2102 338.792 44.7504 336.264 46.8908C336.264 46.8908 337.327 43.5613 345.109 42.2929L347.247 38.8275C347.247 38.8275 339.443 40.5942 336.965 42.3778C336.965 42.3778 338.849 39.1162 347.898 37.9838L350.725 34.8411C350.725 34.8411 343.803 36.0132 340.376 37.5874C340.376 37.5874 343.119 34.8411 351.585 33.9634L353.847 32.0269C353.847 32.0269 348.82 32.9442 347.417 33.2952C346.014 33.6463 345.72 33.4198 345.72 33.4198C348.547 32.0496 351.63 31.2932 354.769 31.2001C354.769 31.2001 359.927 27.4176 359.599 27.1798Z" fill="#FFC107"/>
<path opacity="0.1" d="M470.624 447.006C470.624 447.006 489.57 427.08 472.79 417.148C472.79 417.148 470.607 414.464 467.445 415.823C467.445 415.823 468.503 416.78 466.354 418.586C465.594 419.233 464.913 419.966 464.324 420.772C463.525 421.86 463.104 423.181 463.125 424.531C463.125 424.531 460.585 432.487 468.288 442.917C468.288 442.917 468.961 446.388 469.555 446.779L471.031 441.96C471.031 441.96 467.457 441.015 466.139 438.274C466.139 438.274 470.816 442.023 471.28 441.253C471.376 441.094 471.947 438.665 471.947 438.665C471.947 438.665 465.726 436.966 463.837 432.697C463.837 432.697 468.814 437.917 472.173 437.742L472.818 434.022C472.818 434.022 466.179 432.578 463.82 427.793C463.82 427.793 469.21 433.07 472.909 433.229L473.05 429.48C473.05 429.48 466.597 427.918 464.64 423.897C464.64 423.897 471.484 429.367 472.999 428.591C472.999 428.591 472.926 425.149 472.434 424.243C472.434 424.243 467.83 423.031 466.914 420.596C466.914 420.596 471.874 423.767 472.304 423.291C472.304 423.291 471.008 418.829 469.159 416.915C469.159 416.915 472.1 419.543 472.994 423.053C472.994 423.053 474.272 420.873 473.972 418.722C473.972 418.722 475.804 420.794 473.293 424.141C473.293 424.141 474.164 427.663 473.932 428.212C473.932 428.212 476.873 425.256 477.642 422.612C477.642 422.612 478.208 425.97 473.927 429.203L473.87 432.974C473.87 432.974 477.965 429.271 478.824 426.961C478.824 426.961 478.824 430.477 473.774 433.92L473.208 437.578C473.208 437.578 476.981 434.656 478.491 432.295C478.491 432.295 477.812 435.556 472.999 438.614L472.315 441.009C472.315 441.009 475.03 438.829 475.753 438.133C476.477 437.436 476.726 437.566 476.726 437.566C475.607 439.456 473.986 440.997 472.043 442.017C472.043 442.017 470.341 446.87 470.624 447.006Z" fill="#FFC107"/>
<path opacity="0.1" d="M285.839 0.702143C285.839 0.702143 289.068 28.0178 307.415 21.4267C307.415 21.4267 310.871 21.455 311.843 18.1482C311.843 18.1482 310.429 18.352 310.418 15.5434C310.405 14.5443 310.274 13.5503 310.028 12.582C309.702 11.2719 308.957 10.1046 307.907 9.25812C307.907 9.25812 303.405 2.22534 290.448 1.53453C290.448 1.53453 287.349 -0.164211 286.67 0.050962L289.436 4.25817C289.436 4.25817 292.439 2.10643 295.391 2.84255C295.391 2.84255 289.521 4.05432 289.82 4.90369C289.877 5.07922 291.381 7.06674 291.381 7.06674C291.381 7.06674 296.669 3.32952 301.194 4.60358C301.194 4.60358 294.006 5.10187 291.992 7.80286L294.407 10.6794C294.407 10.6794 299.757 6.47785 304.966 7.72925C304.966 7.72925 297.467 8.522 294.984 11.2683L297.8 13.7711C297.8 13.7711 303.094 9.7734 307.415 10.8493C307.415 10.8493 298.841 12.6386 298.468 14.2977C298.468 14.2977 301.166 16.4381 302.161 16.6646C302.161 16.6646 306.029 13.8843 308.484 14.7337C308.484 14.7337 302.885 16.5344 302.97 17.1686C302.97 17.1686 307.228 19.0145 309.881 18.8107C309.881 18.8107 305.984 19.3769 302.715 17.8481C302.715 17.8481 303.575 20.2206 305.424 21.3701C305.424 21.3701 302.664 21.455 301.686 17.4064C301.686 17.4064 298.428 15.8322 298.151 15.3056C298.151 15.3056 298.547 19.4562 300.091 21.7382C300.091 21.7382 297.161 20.0394 297.388 14.6658L294.56 12.2139C294.56 12.2139 294.792 17.7348 296.013 19.8752C296.013 19.8752 293.299 17.6499 293.887 11.5401L291.461 8.74849C291.461 8.74849 291.297 13.5163 292.145 16.189C292.145 16.189 290.069 13.5842 290.793 7.92178L289.385 5.86631C289.385 5.86631 289.334 9.34872 289.385 10.3566C289.436 11.3646 289.193 11.4608 289.193 11.4608C288.449 9.38605 288.297 7.14526 288.752 4.98862C288.752 4.98862 286.122 0.566244 285.839 0.702143Z" fill="#FFC107"/>
<path opacity="0.1" d="M422.964 385.053C422.964 385.053 396.485 377.692 395.636 397.193C395.636 397.193 394.302 400.387 396.988 402.538C396.988 402.538 397.333 401.157 399.935 402.204C400.863 402.572 401.831 402.829 402.819 402.969C404.155 403.162 405.518 402.911 406.699 402.255C406.699 402.255 414.899 400.749 420.465 389.039C420.465 389.039 423.207 386.814 423.292 386.1L418.355 387.069C418.355 387.069 419.203 390.67 417.405 393.127C417.405 393.127 418.536 387.227 417.614 387.182C417.427 387.182 415.018 387.81 415.018 387.81C415.018 387.81 416.466 394.073 413.576 397.782C413.576 397.782 415.838 390.93 414.102 388.043L410.516 389.226C410.516 389.226 412.371 395.772 409.238 400.121C409.238 400.121 411.353 392.878 409.747 389.537L406.388 391.174C406.388 391.174 408.084 397.595 405.443 401.196C405.443 401.196 407.038 392.578 405.641 391.599C405.641 391.599 402.644 393.297 402.061 394.124C402.061 394.124 403.192 398.762 401.45 400.715C401.45 400.715 401.903 394.843 401.286 394.685C401.286 394.685 397.961 397.929 397.147 400.466C397.147 400.466 398.08 396.632 400.755 394.192C400.755 394.192 398.232 394.09 396.474 395.364C396.474 395.364 397.435 392.776 401.564 393.416C401.564 393.416 404.256 390.987 404.849 390.936C404.849 390.936 400.891 389.724 398.165 390.291C398.165 390.291 400.868 388.229 405.726 390.472L409.074 388.773C409.074 388.773 403.882 386.899 401.445 387.221C401.445 387.221 404.527 385.523 409.928 388.405L413.423 387.21C413.423 387.21 409.08 385.257 406.286 385.03C406.286 385.03 409.481 384.096 414.441 386.91L416.873 386.383C416.873 386.383 413.672 385.013 412.716 384.685C411.761 384.356 411.766 384.118 411.766 384.118C413.957 384.219 416.077 384.924 417.891 386.157C417.891 386.157 422.981 385.364 422.964 385.053Z" fill="#FFC107"/>
</g>
<defs>
<filter id="filter0_d_2_262" x="-29.993" y="13.3255" width="653.704" height="464.849" filterUnits="userSpaceOnUse" color-interpolation-filters="sRGB">
<feFlood flood-opacity="0" result="BackgroundImageFix"/>
<feColorMatrix in="SourceAlpha" type="matrix" values="0 0 0 0 0 0 0 0 0 0 0 0 0 0 0 0 0 0 127 0" result="hardAlpha"/>
<feOffset dy="10"/>
<feGaussianBlur stdDeviation="15"/>
<feColorMatrix type="matrix" values="0 0 0 0 0 0 0 0 0 0 0 0 0 0 0 0 0 0 0.25 0"/>
<feBlend mode="normal" in2="BackgroundImageFix" result="effect1_dropShadow_2_262"/>
<feBlend mode="normal" in="SourceGraphic" in2="effect1_dropShadow_2_262" result="shape"/>
</filter>
<linearGradient id="paint0_linear_2_262" x1="301.109" y1="339.34" x2="301.109" y2="131.522" gradientUnits="userSpaceOnUse">
<stop stop-color="#808080" stop-opacity="0.25"/>
<stop offset="0.54" stop-color="#808080" stop-opacity="0.12"/>
<stop offset="1" stop-color="#808080" stop-opacity="0.1"/>
</linearGradient>
<clipPath id="clip0_2_262">
<rect width="599" height="447" fill="white"/>
</clipPath>
</defs>
</svg>
