<svg width="113" height="24" viewBox="0 0 113 24" fill="none" xmlns="http://www.w3.org/2000/svg">
<path d="M11.992 23.288C9.64533 23.288 7.59733 22.808 5.848 21.848C4.12 20.888 2.78667 19.5333 1.848 17.784C0.930667 16.0347 0.472 14.008 0.472 11.704C0.472 9.4 0.930667 7.384 1.848 5.656C2.78667 3.90667 4.12 2.552 5.848 1.592C7.59733 0.631999 9.64533 0.151999 11.992 0.151999C13.464 0.151999 14.8827 0.375999 16.248 0.823999C17.6347 1.272 18.7653 1.86933 19.64 2.616L17.816 6.776C15.96 5.47467 14.0613 4.824 12.12 4.824C10.2853 4.824 8.87733 5.4 7.896 6.552C6.936 7.704 6.456 9.42133 6.456 11.704C6.456 13.9867 6.936 15.7147 7.896 16.888C8.87733 18.04 10.2853 18.616 12.12 18.616C14.0613 18.616 15.96 17.9653 17.816 16.664L19.64 20.824C18.7653 21.5707 17.6347 22.168 16.248 22.616C14.8827 23.064 13.464 23.288 11.992 23.288ZM36.727 16.216H26.999C27.1697 17.24 27.543 17.976 28.119 18.424C28.695 18.872 29.5163 19.096 30.583 19.096C31.351 19.096 32.1297 18.968 32.919 18.712C33.7083 18.456 34.4123 18.104 35.031 17.656L36.471 21.4C35.6817 21.976 34.7323 22.4347 33.623 22.776C32.5137 23.096 31.4043 23.256 30.295 23.256C28.4817 23.256 26.9137 22.9253 25.591 22.264C24.2683 21.6027 23.2443 20.6533 22.519 19.416C21.815 18.1787 21.463 16.728 21.463 15.064C21.463 13.4853 21.7937 12.0773 22.455 10.84C23.1377 9.58133 24.0763 8.61067 25.271 7.928C26.487 7.224 27.8523 6.872 29.367 6.872C31.6283 6.872 33.4203 7.59733 34.743 9.048C36.0657 10.4773 36.727 12.44 36.727 14.936V16.216ZM29.527 10.712C28.0123 10.712 27.1483 11.6507 26.935 13.528H31.959C31.831 11.6507 31.0203 10.712 29.527 10.712ZM51.612 11.512L48.508 11.832C47.2707 11.96 46.4067 12.2907 45.916 12.824C45.4253 13.3573 45.18 14.1147 45.18 15.096V23H39.484V7.256H44.892V9.976C45.2547 9.016 45.852 8.29067 46.684 7.8C47.516 7.288 48.5293 7 49.724 6.936L51.292 6.808L51.612 11.512ZM69.4097 0.439999V23H63.8098V20.856C63.3617 21.6027 62.7004 22.1893 61.8258 22.616C60.9724 23.0427 60.0231 23.256 58.9777 23.256C57.6337 23.256 56.4284 22.9147 55.3617 22.232C54.3164 21.528 53.4951 20.5467 52.8977 19.288C52.3004 18.0293 52.0017 16.5893 52.0017 14.968C52.0017 13.3467 52.2897 11.928 52.8657 10.712C53.4631 9.47467 54.2844 8.52533 55.3297 7.864C56.3964 7.20267 57.6124 6.872 58.9777 6.872C59.9804 6.872 60.8977 7.07467 61.7297 7.48C62.5831 7.88533 63.2444 8.42933 63.7137 9.112V0.439999H69.4097ZM60.7058 19C61.7084 19 62.4764 18.6587 63.0098 17.976C63.5431 17.2933 63.8098 16.312 63.8098 15.032C63.8098 13.7733 63.5431 12.8133 63.0098 12.152C62.4764 11.4693 61.7084 11.128 60.7058 11.128C59.7244 11.128 58.9671 11.4587 58.4337 12.12C57.9004 12.7813 57.6337 13.7307 57.6337 14.968C57.6337 16.248 57.9004 17.24 58.4337 17.944C58.9884 18.648 59.7458 19 60.7058 19ZM80.0977 6.872C82.5724 6.872 84.3964 7.448 85.5697 8.6C86.7644 9.73067 87.3617 11.5013 87.3617 13.912V23H82.0177V20.792C81.7191 21.56 81.2177 22.168 80.5138 22.616C79.8097 23.0427 78.9671 23.256 77.9857 23.256C76.8977 23.256 75.9164 23.0427 75.0417 22.616C74.1671 22.168 73.4737 21.56 72.9617 20.792C72.4711 20.0027 72.2257 19.1173 72.2257 18.136C72.2257 17.0053 72.5137 16.1093 73.0897 15.448C73.6871 14.7653 74.6257 14.2747 75.9057 13.976C77.1857 13.6773 78.9138 13.528 81.0898 13.528H81.9537V13.144C81.9537 12.3547 81.7724 11.8107 81.4097 11.512C81.0471 11.192 80.4071 11.032 79.4897 11.032C78.7644 11.032 77.9217 11.1813 76.9617 11.48C76.0231 11.7573 75.1377 12.12 74.3057 12.568L72.8657 8.824C73.7831 8.26933 74.9244 7.81067 76.2897 7.448C77.6764 7.064 78.9457 6.872 80.0977 6.872ZM79.3298 19.448C80.0977 19.448 80.7271 19.1813 81.2177 18.648C81.7084 18.0933 81.9537 17.3893 81.9537 16.536V16.152H81.4417C80.0764 16.152 79.1058 16.28 78.5297 16.536C77.9537 16.7707 77.6657 17.176 77.6657 17.752C77.6657 18.2427 77.8151 18.648 78.1137 18.968C78.4337 19.288 78.8391 19.448 79.3298 19.448ZM97.05 23.256C95.5353 23.256 94.138 23.096 92.858 22.776C91.578 22.456 90.5007 21.9867 89.626 21.368L91.066 17.496C91.9193 18.0507 92.89 18.4987 93.978 18.84C95.066 19.16 96.1113 19.32 97.114 19.32C97.7327 19.32 98.2127 19.2347 98.554 19.064C98.8953 18.872 99.066 18.616 99.066 18.296C99.066 18.0187 98.938 17.8053 98.682 17.656C98.4473 17.5067 97.9567 17.3467 97.21 17.176L94.682 16.6C93.082 16.2373 91.93 15.704 91.226 15C90.522 14.296 90.17 13.2933 90.17 11.992C90.17 10.9893 90.4687 10.104 91.066 9.336C91.6633 8.54667 92.4953 7.93867 93.562 7.512C94.65 7.08533 95.8767 6.872 97.242 6.872C98.3727 6.872 99.4927 7.04267 100.602 7.384C101.733 7.704 102.757 8.16267 103.674 8.76L102.202 12.472C101.349 11.9387 100.485 11.5333 99.61 11.256C98.7567 10.9573 97.946 10.808 97.178 10.808C96.5593 10.808 96.0793 10.904 95.738 11.096C95.3967 11.288 95.226 11.5653 95.226 11.928C95.226 12.1413 95.3327 12.3227 95.546 12.472C95.7593 12.6 96.1327 12.728 96.666 12.856L99.322 13.464C100.986 13.8267 102.191 14.392 102.938 15.16C103.685 15.9067 104.058 16.9307 104.058 18.232C104.058 19.7893 103.429 21.016 102.17 21.912C100.933 22.808 99.226 23.256 97.05 23.256Z" fill="black" fill-opacity="0.8"/>
<path d="M112.193 17.176V23H106.273V17.176H112.193Z" fill="#FFC107"/>
</svg>
