<svg width="70" height="26" viewBox="0 0 70 26" fill="none" xmlns="http://www.w3.org/2000/svg">
<rect x="40" y="10" width="10" height="10" rx="5" transform="rotate(-180 40 10)" fill="#FFC107"/>
<rect x="55" y="10" width="10" height="10" rx="5" transform="rotate(-180 55 10)" fill="#FFC107"/>
<rect x="25" y="10" width="10" height="10" rx="5" transform="rotate(-180 25 10)" fill="#FFC107"/>
<rect x="10" y="10" width="10" height="10" rx="5" transform="rotate(-180 10 10)" fill="#FFC107"/>
<rect x="70" y="10" width="10" height="10" rx="5" transform="rotate(-180 70 10)" fill="#FFC107"/>
<rect x="55" y="26" width="10" height="10" rx="5" transform="rotate(-180 55 26)" fill="#FFC107"/>
<rect x="55" y="25" width="10" height="10" rx="5" transform="rotate(-180 55 25)" fill="#FFC107"/>
<rect x="40" y="25" width="10" height="10" rx="5" transform="rotate(-180 40 25)" fill="#FFC107"/>
<rect x="25" y="25" width="10" height="10" rx="5" transform="rotate(-180 25 25)" fill="#FFC107"/>
</svg>
