<svg width="251" height="185" viewBox="0 0 251 185" fill="none" xmlns="http://www.w3.org/2000/svg">
<g clip-path="url(#clip0_26_120)">
<path opacity="0.1" d="M110.627 6.98362C100.693 2.96865 90.1982 -0.383127 79.4849 0.0380866C63.7326 0.654223 48.6248 10.0755 41.2084 23.9061C34.9232 35.6239 34.148 49.3581 31.4415 62.362C28.1018 78.386 21.7152 93.6079 14.8915 108.498C11.2272 116.497 7.36012 124.668 6.76068 133.437C5.92461 145.608 11.7771 157.738 20.958 165.835C30.139 173.932 42.3261 178.205 54.5606 179.137C61.0711 179.632 67.8746 179.172 73.6594 176.159C79.7756 172.973 84.2376 167.213 90.3785 164.072C96.071 161.159 102.73 160.749 109.121 161.13C117.491 161.629 125.739 163.372 133.59 166.301C142.523 169.637 150.83 174.465 159.743 177.848C168.655 181.231 178.614 183.116 187.725 180.295C196.275 177.644 203.049 171.208 209.134 164.688C219.146 153.984 228.277 142.498 236.44 130.341C241.941 122.15 247.061 113.506 249.495 103.957C254.144 85.7012 247.744 65.1043 233.549 52.6494C221.794 42.314 206.01 37.833 190.56 35.1041C176.471 32.6239 160.18 32.4693 147.211 26.0032C134.843 19.8373 123.589 12.2264 110.627 6.98362Z" fill="#FFC107"/>
<path d="M210.488 129.259L210.864 129.635L211.033 128.988L210.853 128.349H210.389L210.488 129.259Z" fill="#464A5F"/>
<path opacity="0.1" d="M210.488 129.259L210.864 129.635L211.033 128.988L210.853 128.349H210.389L210.488 129.259Z" fill="black"/>
<path d="M210.488 129.259L210.853 129.646L210.488 130.072L210.096 129.926L209.999 129.738L210.488 129.259Z" fill="#9C9CA1"/>
<path opacity="0.1" d="M210.488 129.259L210.853 129.646L210.488 130.072L210.096 129.926L209.999 129.738L210.488 129.259Z" fill="black"/>
<path d="M141.119 61.1969L99.9065 102.171C99.1656 102.908 98.7485 103.906 98.7463 104.948C98.7442 105.99 99.1573 106.99 99.8953 107.73L163.067 171.035C163.805 171.775 164.809 172.193 165.857 172.199C166.906 172.204 167.914 171.796 168.66 171.064L210.488 130.074L141.119 61.1969Z" fill="#9C9CA1"/>
<path opacity="0.1" d="M141.119 61.1969L99.9065 102.171C99.1656 102.908 98.7485 103.906 98.7463 104.948C98.7442 105.99 99.1573 106.99 99.8953 107.73L163.067 171.035C163.805 171.775 164.809 172.193 165.857 172.199C166.906 172.204 167.914 171.796 168.66 171.064L210.488 130.074L141.119 61.1969Z" fill="black"/>
<path d="M141.119 60.3836L99.9065 101.358C99.1656 102.094 98.7485 103.093 98.7463 104.135C98.7442 105.177 99.1573 106.177 99.8953 106.916L163.067 170.219C163.805 170.959 164.808 171.378 165.857 171.384C166.905 171.39 167.913 170.982 168.66 170.251L210.488 129.25L141.119 60.3836Z" fill="#9C9CA1"/>
<path d="M145.446 31.5821L141.665 60.1125L211.033 128.988L215.018 99.9867C215.108 99.3379 215.044 98.6772 214.831 98.0574C214.618 97.4376 214.262 96.876 213.792 96.4176L146.861 31.0936C146.75 30.986 146.611 30.9112 146.459 30.8778C146.307 30.8443 146.149 30.8534 146.002 30.9041C145.856 30.9547 145.726 31.045 145.628 31.1647C145.529 31.2844 145.467 31.4289 145.446 31.5821Z" fill="#464A5F"/>
<path opacity="0.1" d="M145.446 31.5821L141.665 60.1125L211.033 128.988L215.018 99.9867C215.108 99.3379 215.044 98.6772 214.831 98.0574C214.618 97.4376 214.262 96.876 213.792 96.4176L146.861 31.0936C146.75 30.986 146.611 30.9112 146.459 30.8778C146.307 30.8443 146.149 30.8534 146.002 30.9041C145.856 30.9547 145.726 31.045 145.628 31.1647C145.529 31.2844 145.467 31.4289 145.446 31.5821Z" fill="black"/>
<path d="M144.901 31.8532L141.119 60.3836L210.488 129.259L214.472 100.258C214.562 99.609 214.499 98.9482 214.286 98.3285C214.073 97.7087 213.717 97.1471 213.246 96.6886L146.316 31.3648C146.205 31.2571 146.065 31.1824 145.914 31.1489C145.762 31.1154 145.604 31.1245 145.457 31.1752C145.31 31.2258 145.18 31.3161 145.082 31.4358C144.984 31.5555 144.921 31.7 144.901 31.8532Z" fill="#464A5F"/>
<g opacity="0.1">
<path opacity="0.1" d="M141.304 73.495L138.796 76.011C138.722 76.0845 138.663 76.1718 138.623 76.2679C138.583 76.364 138.562 76.4671 138.562 76.5711C138.562 76.6752 138.583 76.7783 138.623 76.8744C138.663 76.9705 138.722 77.0578 138.796 77.1313L141.338 79.7235C141.484 79.8748 141.685 79.9622 141.897 79.9664C142.108 79.9706 142.312 79.8913 142.465 79.7459L144.962 77.4024C145.113 77.2598 145.203 77.0636 145.21 76.8561C145.218 76.6486 145.143 76.4465 145.002 76.2933L142.46 73.5286C142.388 73.4482 142.3 73.3833 142.202 73.3378C142.104 73.2923 141.998 73.2672 141.889 73.2641C141.781 73.2609 141.673 73.2798 141.573 73.3195C141.472 73.3592 141.381 73.4189 141.304 73.495Z" fill="black"/>
<path opacity="0.1" d="M145.978 78.144L143.479 80.6578C143.332 80.8057 143.25 81.0049 143.25 81.2123C143.25 81.4198 143.332 81.6189 143.479 81.7669L146.021 84.3591C146.093 84.4343 146.18 84.4945 146.276 84.5364C146.372 84.5782 146.475 84.6008 146.579 84.6029C146.684 84.605 146.788 84.5865 146.886 84.5485C146.983 84.5105 147.072 84.4538 147.148 84.3815L149.644 82.0402C149.799 81.8966 149.889 81.6983 149.897 81.4884C149.905 81.2785 149.828 81.0742 149.685 80.9199L147.134 78.1619C147.061 78.0826 146.972 78.0189 146.874 77.9748C146.775 77.9307 146.668 77.907 146.56 77.9054C146.452 77.9037 146.344 77.924 146.244 77.965C146.144 78.006 146.054 78.0669 145.978 78.144Z" fill="black"/>
<path opacity="0.1" d="M150.886 83.0215L148.387 85.5376C148.241 85.6858 148.16 85.8848 148.16 86.0921C148.16 86.2994 148.241 86.4984 148.387 86.6466L150.931 89.2389C151.078 89.3902 151.279 89.4776 151.49 89.4818C151.701 89.486 151.905 89.4067 152.058 89.2613L154.555 86.9177C154.707 86.7752 154.796 86.579 154.804 86.3715C154.811 86.164 154.736 85.9618 154.595 85.8087L152.053 83.0439C151.981 82.9625 151.891 82.897 151.792 82.8514C151.692 82.8059 151.584 82.7812 151.475 82.7791C151.365 82.777 151.256 82.7975 151.155 82.8392C151.054 82.8809 150.962 82.943 150.886 83.0215Z" fill="black"/>
<path opacity="0.1" d="M155.849 87.9573L153.352 90.4846C153.206 90.6328 153.124 90.8318 153.124 91.0391C153.124 91.2464 153.206 91.4454 153.352 91.5936L155.896 94.1859C156.042 94.3372 156.243 94.4245 156.455 94.4287C156.666 94.4329 156.87 94.3537 157.023 94.2083L159.517 91.8647C159.67 91.7228 159.76 91.5267 159.768 91.319C159.776 91.1113 159.701 90.9089 159.56 90.7557L157.005 87.9797C156.932 87.9004 156.843 87.8366 156.745 87.7923C156.646 87.748 156.54 87.724 156.431 87.722C156.323 87.7199 156.216 87.7396 156.116 87.7801C156.015 87.8206 155.925 87.8809 155.849 87.9573Z" fill="black"/>
<path opacity="0.1" d="M160.813 92.8931L158.316 95.4137C158.167 95.5624 158.083 95.7638 158.083 95.9739C158.083 96.1839 158.167 96.3853 158.316 96.534L160.86 99.1263C161.007 99.2776 161.208 99.3649 161.419 99.3691C161.63 99.3733 161.835 99.294 161.987 99.1487L164.482 96.8051C164.635 96.6631 164.725 96.467 164.733 96.2593C164.741 96.0516 164.666 95.8492 164.525 95.696L161.983 92.9312C161.911 92.8487 161.822 92.7819 161.723 92.7349C161.624 92.688 161.516 92.6619 161.406 92.6583C161.296 92.6547 161.187 92.6738 161.085 92.7142C160.983 92.7546 160.89 92.8155 160.813 92.8931Z" fill="black"/>
<path opacity="0.1" d="M166.091 97.513L162.988 100.639C162.919 100.708 162.881 100.801 162.881 100.898C162.881 100.996 162.919 101.089 162.988 101.158L166.113 104.342C166.183 104.41 166.277 104.448 166.375 104.448C166.472 104.448 166.566 104.41 166.636 104.342L169.739 101.429C169.811 101.363 169.852 101.271 169.856 101.173C169.859 101.076 169.824 100.981 169.757 100.91L166.634 97.513C166.599 97.4763 166.557 97.4471 166.51 97.4272C166.463 97.4072 166.413 97.3969 166.362 97.3969C166.312 97.3969 166.261 97.4072 166.215 97.4272C166.168 97.4471 166.126 97.4763 166.091 97.513Z" fill="black"/>
<path opacity="0.1" d="M171.055 102.449L167.952 105.586C167.884 105.655 167.846 105.748 167.846 105.844C167.846 105.941 167.884 106.034 167.952 106.103L171.078 109.289C171.148 109.357 171.242 109.395 171.339 109.395C171.437 109.395 171.531 109.357 171.601 109.289L174.704 106.376C174.775 106.31 174.817 106.218 174.82 106.12C174.824 106.023 174.788 105.928 174.722 105.857L171.599 102.46C171.564 102.423 171.523 102.393 171.477 102.372C171.43 102.351 171.38 102.339 171.329 102.338C171.279 102.337 171.228 102.346 171.181 102.365C171.134 102.385 171.091 102.413 171.055 102.449Z" fill="black"/>
<path opacity="0.1" d="M175.45 106.818L172.347 109.955C172.279 110.024 172.24 110.117 172.24 110.213C172.24 110.31 172.279 110.403 172.347 110.472L175.472 113.658C175.542 113.726 175.636 113.764 175.734 113.764C175.831 113.764 175.925 113.726 175.995 113.658L179.098 110.745C179.17 110.679 179.211 110.587 179.215 110.489C179.218 110.392 179.183 110.297 179.116 110.226L175.991 106.84C175.957 106.802 175.917 106.772 175.871 106.75C175.825 106.728 175.776 106.716 175.725 106.714C175.675 106.712 175.624 106.72 175.577 106.738C175.529 106.756 175.486 106.783 175.45 106.818Z" fill="black"/>
<path opacity="0.1" d="M180.371 111.711L177.268 114.834C177.2 114.904 177.161 114.997 177.161 115.094C177.161 115.192 177.2 115.285 177.268 115.354L180.394 118.538C180.464 118.606 180.558 118.645 180.655 118.645C180.753 118.645 180.847 118.606 180.917 118.538L184.02 115.625C184.091 115.558 184.132 115.466 184.136 115.369C184.139 115.272 184.104 115.177 184.038 115.105L180.915 111.709C180.879 111.672 180.837 111.643 180.79 111.623C180.744 111.604 180.693 111.594 180.643 111.594C180.592 111.594 180.541 111.605 180.495 111.625C180.448 111.645 180.406 111.674 180.371 111.711Z" fill="black"/>
<path opacity="0.1" d="M185.138 116.45L182.035 119.573C181.966 119.642 181.927 119.736 181.927 119.833C181.927 119.93 181.966 120.024 182.035 120.093L185.16 123.279C185.23 123.347 185.324 123.385 185.422 123.385C185.519 123.385 185.613 123.347 185.683 123.279L188.786 120.366C188.857 120.299 188.899 120.207 188.902 120.11C188.905 120.013 188.87 119.918 188.804 119.846L185.67 116.461C185.636 116.425 185.595 116.397 185.55 116.377C185.504 116.357 185.456 116.346 185.406 116.345C185.357 116.344 185.307 116.353 185.261 116.371C185.215 116.389 185.173 116.415 185.138 116.45Z" fill="black"/>
<path opacity="0.1" d="M189.904 121.179L186.796 124.316C186.728 124.385 186.69 124.478 186.69 124.575C186.69 124.672 186.728 124.765 186.796 124.834L189.922 128.02C189.992 128.087 190.086 128.125 190.183 128.125C190.281 128.125 190.375 128.087 190.445 128.02L193.548 125.107C193.619 125.04 193.661 124.948 193.664 124.851C193.668 124.753 193.632 124.659 193.566 124.587L190.443 121.191C190.408 121.154 190.367 121.124 190.321 121.104C190.276 121.083 190.226 121.072 190.176 121.071C190.125 121.07 190.075 121.079 190.029 121.098C189.982 121.116 189.94 121.144 189.904 121.179Z" fill="black"/>
<path opacity="0.1" d="M194.67 125.927L191.567 129.053C191.499 129.122 191.461 129.215 191.461 129.312C191.461 129.41 191.499 129.503 191.567 129.572L194.684 132.756C194.752 132.825 194.845 132.866 194.943 132.868C195.041 132.87 195.135 132.834 195.207 132.767L198.31 129.855C198.381 129.788 198.423 129.696 198.426 129.598C198.43 129.501 198.394 129.406 198.328 129.335L195.204 125.938C195.17 125.902 195.129 125.873 195.084 125.853C195.038 125.833 194.989 125.822 194.94 125.821C194.89 125.82 194.84 125.829 194.794 125.847C194.748 125.865 194.706 125.892 194.67 125.927Z" fill="black"/>
<path opacity="0.1" d="M136.768 78.0074L134.271 80.5212C134.197 80.5947 134.138 80.682 134.098 80.7781C134.058 80.8742 134.037 80.9773 134.037 81.0814C134.037 81.1854 134.058 81.2885 134.098 81.3846C134.138 81.4807 134.197 81.568 134.271 81.6415L136.815 84.2337C136.887 84.3089 136.974 84.3692 137.07 84.411C137.166 84.4528 137.269 84.4755 137.374 84.4775C137.478 84.4796 137.582 84.4611 137.68 84.4231C137.777 84.3851 137.866 84.3284 137.942 84.2561L140.436 81.9148C140.591 81.7719 140.683 81.5736 140.691 81.3635C140.699 81.1535 140.623 80.9488 140.479 80.7946L137.921 78.0276C137.848 77.9487 137.76 77.8854 137.662 77.8415C137.563 77.7976 137.457 77.774 137.349 77.7721C137.241 77.7702 137.134 77.7901 137.034 77.8305C136.934 77.871 136.844 77.9312 136.768 78.0074Z" fill="black"/>
<path opacity="0.1" d="M126.852 87.8633L124.353 90.3771C124.204 90.5258 124.12 90.7272 124.12 90.9372C124.12 91.1472 124.204 91.3487 124.353 91.4974L126.895 94.0694C127.04 94.2182 127.239 94.3042 127.448 94.3088C127.656 94.3134 127.858 94.2363 128.01 94.0941L130.507 91.7505C130.66 91.6083 130.749 91.412 130.757 91.2043C130.765 90.9966 130.689 90.7944 130.548 90.6415L128.006 87.8857C127.933 87.8064 127.845 87.7427 127.746 87.6984C127.648 87.6541 127.542 87.6302 127.434 87.6281C127.326 87.626 127.219 87.6458 127.119 87.6862C127.019 87.7266 126.928 87.7869 126.852 87.8633Z" fill="black"/>
<path opacity="0.1" d="M141.442 82.6541L138.942 85.1679C138.868 85.2414 138.809 85.3287 138.769 85.4248C138.729 85.5209 138.709 85.624 138.709 85.7281C138.709 85.8321 138.729 85.9352 138.769 86.0313C138.809 86.1274 138.868 86.2147 138.942 86.2882L141.484 88.8804C141.631 89.0321 141.831 89.1198 142.043 89.1244C142.254 89.1291 142.458 89.0502 142.611 88.9051L145.106 86.5503C145.26 86.4067 145.351 86.2084 145.358 85.9985C145.366 85.7886 145.29 85.5843 145.146 85.4301L142.604 82.6675C142.531 82.5871 142.442 82.5226 142.342 82.4781C142.243 82.4335 142.135 82.4099 142.026 82.4086C141.917 82.4074 141.809 82.4285 141.708 82.4707C141.607 82.513 141.517 82.5754 141.442 82.6541Z" fill="black"/>
<path opacity="0.1" d="M146.347 87.5339L143.851 90.0477C143.704 90.1956 143.622 90.3948 143.622 90.6022C143.622 90.8097 143.704 91.0088 143.851 91.1568L146.395 93.749C146.467 93.8242 146.554 93.8845 146.65 93.9263C146.746 93.9681 146.849 93.9907 146.954 93.9928C147.058 93.9949 147.162 93.9764 147.26 93.9384C147.357 93.9004 147.446 93.8437 147.522 93.7714L150.016 91.4301C150.171 91.2871 150.263 91.0888 150.271 90.8788C150.279 90.6687 150.203 90.4641 150.059 90.3099L147.517 87.5451C147.443 87.4644 147.353 87.3997 147.253 87.355C147.153 87.3104 147.045 87.2869 146.935 87.2858C146.825 87.2848 146.716 87.3062 146.615 87.3489C146.514 87.3916 146.423 87.4546 146.347 87.5339Z" fill="black"/>
<path opacity="0.1" d="M151.312 92.4675L148.815 94.9835C148.669 95.1315 148.587 95.3306 148.587 95.5381C148.587 95.7455 148.669 95.9447 148.815 96.0926L151.359 98.6848C151.505 98.8338 151.704 98.9198 151.912 98.924C152.121 98.9282 152.323 98.8503 152.475 98.7072L154.972 96.3659C155.127 96.223 155.218 96.0247 155.226 95.8146C155.234 95.6046 155.158 95.3999 155.015 95.2457L152.468 92.5011C152.396 92.4213 152.308 92.3569 152.21 92.3117C152.112 92.2666 152.005 92.2418 151.897 92.2386C151.789 92.2355 151.682 92.2541 151.581 92.2935C151.48 92.3328 151.389 92.392 151.312 92.4675Z" fill="black"/>
<path opacity="0.1" d="M131.686 92.3532L129.187 94.8671C129.04 95.015 128.958 95.2141 128.958 95.4216C128.958 95.629 129.04 95.8282 129.187 95.9761L131.729 98.5684C131.801 98.6435 131.888 98.7038 131.984 98.7456C132.079 98.7875 132.183 98.8101 132.287 98.8122C132.392 98.8142 132.496 98.7958 132.594 98.7578C132.691 98.7198 132.78 98.663 132.855 98.5908L135.352 96.2494C135.507 96.1059 135.597 95.9075 135.605 95.6976C135.613 95.4878 135.536 95.2834 135.393 95.1292L132.851 92.3667C132.778 92.2859 132.688 92.2211 132.589 92.1763C132.489 92.1316 132.381 92.1078 132.271 92.1066C132.162 92.1053 132.053 92.1266 131.953 92.169C131.852 92.2115 131.761 92.2742 131.686 92.3532Z" fill="black"/>
<path opacity="0.1" d="M136.592 97.2308L134.095 99.7469C134.021 99.8204 133.962 99.9077 133.922 100.004C133.882 100.1 133.861 100.203 133.861 100.307C133.861 100.411 133.882 100.514 133.922 100.61C133.962 100.706 134.021 100.794 134.095 100.867L136.639 103.459C136.712 103.535 136.798 103.595 136.894 103.637C136.99 103.678 137.093 103.701 137.198 103.703C137.303 103.705 137.407 103.687 137.504 103.649C137.602 103.611 137.691 103.554 137.766 103.482L140.261 101.14C140.416 100.998 140.507 100.799 140.515 100.589C140.523 100.379 140.447 100.174 140.304 100.02L137.762 97.2554C137.689 97.1738 137.599 97.1081 137.5 97.0623C137.4 97.0165 137.292 96.9917 137.182 96.9894C137.072 96.9871 136.963 97.0073 136.862 97.0489C136.76 97.0904 136.668 97.1523 136.592 97.2308Z" fill="black"/>
<path opacity="0.1" d="M141.556 102.167L139.059 104.683C138.913 104.831 138.831 105.03 138.831 105.237C138.831 105.445 138.913 105.644 139.059 105.792L141.604 108.384C141.75 108.535 141.951 108.623 142.162 108.627C142.374 108.631 142.578 108.552 142.73 108.406L145.225 106.063C145.378 105.921 145.468 105.725 145.476 105.517C145.484 105.309 145.409 105.107 145.268 104.954L142.726 102.189C142.653 102.107 142.564 102.042 142.464 101.996C142.364 101.951 142.256 101.926 142.146 101.924C142.036 101.922 141.927 101.942 141.826 101.984C141.724 102.026 141.633 102.088 141.556 102.167Z" fill="black"/>
<path opacity="0.1" d="M156.277 97.4033L153.78 99.9193C153.633 100.067 153.552 100.266 153.552 100.474C153.552 100.681 153.633 100.88 153.78 101.028L156.324 103.621C156.396 103.696 156.483 103.756 156.579 103.798C156.675 103.84 156.778 103.862 156.883 103.864C156.987 103.867 157.091 103.848 157.189 103.81C157.286 103.772 157.375 103.715 157.451 103.643L159.948 101.302C160.025 101.231 160.087 101.146 160.13 101.051C160.174 100.956 160.198 100.854 160.202 100.75C160.206 100.646 160.189 100.542 160.152 100.445C160.116 100.347 160.06 100.258 159.988 100.181L157.431 97.4301C157.358 97.3506 157.27 97.2865 157.172 97.2418C157.074 97.1971 156.967 97.1728 156.859 97.1703C156.751 97.1677 156.644 97.1871 156.544 97.2272C156.444 97.2672 156.353 97.3271 156.277 97.4033Z" fill="black"/>
<path opacity="0.1" d="M161.241 102.339L158.742 104.855C158.596 105.003 158.514 105.202 158.514 105.41C158.514 105.617 158.596 105.816 158.742 105.964L161.286 108.556C161.359 108.632 161.445 108.692 161.541 108.734C161.637 108.776 161.74 108.798 161.845 108.8C161.95 108.802 162.054 108.784 162.151 108.746C162.249 108.708 162.338 108.651 162.413 108.579L164.91 106.235C165.062 106.093 165.152 105.897 165.16 105.689C165.167 105.481 165.092 105.279 164.951 105.126L162.395 102.359C162.322 102.28 162.234 102.217 162.135 102.172C162.037 102.128 161.931 102.105 161.823 102.103C161.715 102.101 161.607 102.121 161.507 102.162C161.408 102.202 161.317 102.263 161.241 102.339Z" fill="black"/>
<path opacity="0.1" d="M166.514 106.959L163.411 110.096C163.343 110.165 163.304 110.258 163.304 110.356C163.304 110.453 163.343 110.546 163.411 110.615L166.539 113.786C166.609 113.854 166.703 113.893 166.801 113.893C166.899 113.893 166.992 113.854 167.062 113.786L170.165 110.873C170.236 110.806 170.277 110.714 170.281 110.617C170.284 110.52 170.249 110.425 170.183 110.353L167.06 106.957C167.025 106.92 166.982 106.891 166.935 106.871C166.888 106.851 166.838 106.84 166.787 106.841C166.736 106.841 166.685 106.851 166.638 106.872C166.591 106.892 166.549 106.922 166.514 106.959Z" fill="black"/>
<path opacity="0.1" d="M170.913 111.321L167.81 114.458C167.741 114.527 167.703 114.621 167.703 114.718C167.703 114.815 167.741 114.909 167.81 114.978L170.936 118.161C171.005 118.23 171.099 118.268 171.197 118.268C171.295 118.268 171.389 118.23 171.459 118.161L174.562 115.249C174.633 115.182 174.674 115.09 174.677 114.993C174.681 114.895 174.646 114.801 174.58 114.729L171.456 111.332C171.422 111.295 171.381 111.265 171.335 111.244C171.288 111.223 171.238 111.212 171.187 111.211C171.137 111.21 171.086 111.219 171.039 111.238C170.992 111.257 170.949 111.285 170.913 111.321Z" fill="black"/>
<path opacity="0.1" d="M175.835 116.221L172.73 119.358C172.662 119.427 172.624 119.52 172.624 119.617C172.624 119.713 172.662 119.806 172.73 119.875L175.853 123.061C175.923 123.129 176.017 123.167 176.115 123.167C176.212 123.167 176.306 123.129 176.376 123.061L179.479 120.149C179.551 120.082 179.593 119.99 179.597 119.893C179.601 119.796 179.566 119.701 179.5 119.629L176.376 116.232C176.342 116.195 176.301 116.166 176.254 116.145C176.208 116.124 176.159 116.113 176.108 116.112C176.058 116.111 176.007 116.12 175.96 116.139C175.913 116.158 175.871 116.186 175.835 116.221Z" fill="black"/>
<path opacity="0.1" d="M180.601 120.955L177.498 124.092C177.429 124.161 177.391 124.255 177.391 124.352C177.391 124.449 177.429 124.543 177.498 124.612L180.622 127.796C180.692 127.864 180.786 127.902 180.884 127.902C180.982 127.902 181.076 127.864 181.147 127.796L184.248 124.883C184.319 124.816 184.361 124.725 184.365 124.627C184.369 124.53 184.334 124.435 184.268 124.363L181.144 120.967C181.11 120.929 181.069 120.899 181.023 120.878C180.976 120.857 180.926 120.846 180.875 120.845C180.825 120.844 180.774 120.853 180.727 120.872C180.68 120.891 180.637 120.919 180.601 120.955Z" fill="black"/>
<path opacity="0.1" d="M141.631 92.2233L139.132 94.7416C138.985 94.8895 138.903 95.0886 138.903 95.2961C138.903 95.5035 138.985 95.7027 139.132 95.8506L141.676 98.4429C141.748 98.5183 141.835 98.5788 141.931 98.6208C142.027 98.6628 142.13 98.6855 142.235 98.6876C142.339 98.6897 142.444 98.6711 142.541 98.6329C142.639 98.5948 142.728 98.5378 142.803 98.4653L145.3 96.124C145.454 95.9807 145.545 95.7822 145.553 95.5722C145.561 95.3621 145.484 95.1577 145.34 95.0037L142.785 92.2457C142.712 92.1661 142.624 92.1021 142.526 92.0576C142.427 92.0131 142.321 91.9891 142.213 91.987C142.105 91.9849 141.997 92.0048 141.897 92.0454C141.797 92.086 141.707 92.1466 141.631 92.2233Z" fill="black"/>
<path opacity="0.1" d="M146.595 97.1591L144.096 99.6707C143.95 99.8186 143.868 100.018 143.868 100.225C143.868 100.433 143.95 100.632 144.096 100.78L146.64 103.372C146.713 103.447 146.799 103.508 146.895 103.55C146.991 103.592 147.094 103.615 147.199 103.617C147.304 103.619 147.408 103.6 147.505 103.562C147.603 103.524 147.692 103.467 147.767 103.394L150.264 101.053C150.418 100.909 150.509 100.711 150.517 100.501C150.524 100.291 150.448 100.087 150.305 99.9328L147.763 97.1703C147.689 97.0893 147.599 97.0244 147.499 96.9796C147.399 96.9348 147.291 96.9111 147.181 96.9101C147.072 96.909 146.963 96.9306 146.862 96.9735C146.761 97.0163 146.67 97.0795 146.595 97.1591Z" fill="black"/>
<path opacity="0.1" d="M151.56 102.095L149.061 104.6C148.915 104.748 148.833 104.947 148.833 105.154C148.833 105.362 148.915 105.561 149.061 105.709L151.603 108.301C151.675 108.376 151.762 108.437 151.858 108.478C151.954 108.52 152.057 108.543 152.162 108.545C152.266 108.547 152.37 108.529 152.468 108.491C152.565 108.453 152.654 108.396 152.73 108.324L155.226 105.982C155.381 105.839 155.471 105.64 155.479 105.43C155.487 105.221 155.41 105.016 155.267 104.862L152.725 102.097C152.651 102.017 152.561 101.954 152.461 101.91C152.36 101.867 152.252 101.844 152.143 101.844C152.034 101.844 151.925 101.866 151.825 101.909C151.725 101.952 151.635 102.015 151.56 102.095Z" fill="black"/>
<path opacity="0.1" d="M156.525 107.031L154.025 109.545C153.879 109.693 153.797 109.892 153.797 110.099C153.797 110.307 153.879 110.506 154.025 110.654L156.567 113.246C156.64 113.321 156.726 113.381 156.822 113.423C156.918 113.465 157.021 113.488 157.126 113.49C157.231 113.492 157.335 113.473 157.432 113.435C157.53 113.397 157.619 113.341 157.694 113.268L160.191 110.927C160.345 110.783 160.436 110.585 160.444 110.375C160.451 110.165 160.375 109.961 160.232 109.807L157.69 107.042C157.616 106.962 157.526 106.897 157.427 106.853C157.327 106.809 157.219 106.785 157.11 106.784C157 106.783 156.892 106.804 156.791 106.847C156.691 106.889 156.6 106.952 156.525 107.031Z" fill="black"/>
<path opacity="0.1" d="M161.802 111.651L158.697 114.774C158.629 114.843 158.59 114.937 158.59 115.034C158.59 115.131 158.629 115.224 158.697 115.294L161.82 118.477C161.89 118.546 161.984 118.584 162.082 118.584C162.18 118.584 162.274 118.546 162.343 118.477L165.446 115.565C165.518 115.498 165.56 115.406 165.564 115.309C165.568 115.212 165.533 115.117 165.467 115.045L162.343 111.646C162.308 111.61 162.266 111.581 162.219 111.561C162.173 111.542 162.122 111.532 162.072 111.532C162.021 111.533 161.971 111.543 161.925 111.564C161.878 111.584 161.837 111.614 161.802 111.651Z" fill="black"/>
<path opacity="0.1" d="M166.197 116.026L163.091 119.15C163.023 119.219 162.985 119.312 162.985 119.409C162.985 119.507 163.023 119.6 163.091 119.669L166.215 122.853C166.284 122.921 166.378 122.96 166.476 122.96C166.574 122.96 166.668 122.921 166.738 122.853L169.841 119.94C169.912 119.874 169.955 119.782 169.958 119.685C169.962 119.587 169.927 119.492 169.861 119.421L166.74 116.026C166.705 115.989 166.663 115.96 166.616 115.94C166.57 115.92 166.519 115.909 166.468 115.909C166.417 115.909 166.367 115.92 166.32 115.94C166.274 115.96 166.232 115.989 166.197 116.026Z" fill="black"/>
<path opacity="0.1" d="M171.116 120.911L168.013 124.047C167.945 124.117 167.906 124.21 167.906 124.307C167.906 124.404 167.945 124.498 168.013 124.567L171.136 127.751C171.205 127.821 171.298 127.861 171.396 127.863C171.493 127.865 171.588 127.829 171.659 127.762L174.762 124.849C174.834 124.783 174.876 124.691 174.88 124.594C174.884 124.496 174.849 124.401 174.783 124.33L171.657 120.933C171.624 120.895 171.583 120.864 171.537 120.843C171.492 120.821 171.442 120.809 171.391 120.807C171.341 120.805 171.29 120.813 171.243 120.831C171.196 120.848 171.153 120.876 171.116 120.911Z" fill="black"/>
<path opacity="0.1" d="M175.885 125.66L172.779 128.775C172.711 128.844 172.673 128.937 172.673 129.035C172.673 129.132 172.711 129.225 172.779 129.294L175.903 132.478C175.971 132.548 176.064 132.589 176.162 132.591C176.26 132.593 176.355 132.556 176.426 132.489L179.529 129.577C179.6 129.51 179.643 129.418 179.646 129.321C179.65 129.224 179.615 129.129 179.549 129.057L176.43 125.66C176.395 125.623 176.353 125.593 176.306 125.572C176.259 125.552 176.209 125.541 176.157 125.541C176.106 125.541 176.055 125.552 176.008 125.572C175.961 125.593 175.919 125.623 175.885 125.66Z" fill="black"/>
<path opacity="0.1" d="M185.368 125.699L182.265 128.835C182.196 128.904 182.157 128.998 182.157 129.095C182.157 129.192 182.196 129.286 182.265 129.355L185.39 132.539C185.458 132.609 185.551 132.649 185.649 132.651C185.747 132.653 185.842 132.617 185.913 132.55L189.016 129.637C189.087 129.57 189.128 129.478 189.132 129.381C189.135 129.284 189.1 129.189 189.034 129.118L185.911 125.721C185.877 125.683 185.836 125.652 185.791 125.63C185.745 125.608 185.695 125.596 185.644 125.593C185.593 125.591 185.542 125.6 185.495 125.618C185.447 125.636 185.404 125.663 185.368 125.699Z" fill="black"/>
<path opacity="0.1" d="M190.134 130.439L187.022 133.563C186.953 133.632 186.914 133.725 186.914 133.823C186.914 133.92 186.953 134.013 187.022 134.082L190.154 137.266C190.222 137.336 190.315 137.377 190.413 137.379C190.511 137.381 190.606 137.344 190.677 137.277L193.78 134.365C193.851 134.298 193.892 134.206 193.896 134.109C193.899 134.011 193.864 133.917 193.798 133.845L190.675 130.448C190.641 130.411 190.599 130.381 190.553 130.361C190.507 130.34 190.457 130.329 190.406 130.328C190.356 130.327 190.305 130.337 190.259 130.356C190.212 130.375 190.169 130.403 190.134 130.439Z" fill="black"/>
<path opacity="0.1" d="M165.987 126.012L163.057 128.954C162.966 129.047 162.914 129.172 162.914 129.302C162.914 129.433 162.966 129.558 163.057 129.651L166.007 132.657C166.099 132.751 166.224 132.804 166.355 132.807C166.486 132.809 166.613 132.76 166.708 132.671L169.638 129.931C169.73 129.842 169.785 129.722 169.791 129.594C169.797 129.467 169.753 129.342 169.669 129.245L166.719 126.037C166.674 125.985 166.619 125.944 166.557 125.915C166.495 125.885 166.427 125.869 166.359 125.867C166.29 125.865 166.222 125.876 166.158 125.901C166.094 125.926 166.036 125.964 165.987 126.012Z" fill="black"/>
<path opacity="0.1" d="M170.753 130.751L167.824 133.693C167.732 133.786 167.681 133.911 167.681 134.041C167.681 134.171 167.732 134.296 167.824 134.389L170.774 137.396C170.865 137.489 170.99 137.543 171.121 137.545C171.252 137.548 171.379 137.499 171.475 137.41L174.404 134.669C174.5 134.58 174.556 134.457 174.561 134.327C174.566 134.196 174.52 134.069 174.431 133.973L171.472 130.764C171.426 130.716 171.371 130.677 171.31 130.65C171.249 130.623 171.183 130.608 171.116 130.607C171.049 130.606 170.982 130.618 170.92 130.643C170.858 130.667 170.801 130.704 170.753 130.751Z" fill="black"/>
<path opacity="0.1" d="M175.529 135.489L172.599 138.431C172.507 138.524 172.456 138.649 172.456 138.78C172.456 138.91 172.507 139.035 172.599 139.128L175.549 142.135C175.64 142.228 175.765 142.282 175.896 142.285C176.027 142.288 176.154 142.24 176.25 142.15L179.179 139.408C179.275 139.319 179.332 139.196 179.337 139.065C179.342 138.935 179.295 138.808 179.206 138.711L176.256 135.505C176.211 135.455 176.155 135.414 176.093 135.385C176.031 135.357 175.964 135.342 175.896 135.34C175.828 135.339 175.76 135.351 175.697 135.377C175.633 135.402 175.576 135.441 175.529 135.489Z" fill="black"/>
<path opacity="0.1" d="M180.381 140.134L177.277 143.259C177.209 143.329 177.171 143.422 177.171 143.519C177.171 143.617 177.209 143.71 177.277 143.779L180.403 146.963C180.473 147.031 180.567 147.07 180.665 147.07C180.762 147.07 180.856 147.031 180.926 146.963L184.029 144.05C184.1 143.984 184.142 143.892 184.146 143.794C184.149 143.697 184.114 143.602 184.047 143.531L180.924 140.134C180.889 140.097 180.847 140.068 180.8 140.048C180.753 140.028 180.703 140.018 180.652 140.018C180.601 140.018 180.551 140.028 180.504 140.048C180.458 140.068 180.416 140.097 180.381 140.134Z" fill="black"/>
<path opacity="0.1" d="M131.855 82.6295L129.191 85.3315C129.117 85.405 129.058 85.4923 129.018 85.5884C128.978 85.6845 128.957 85.7876 128.957 85.8916C128.957 85.9957 128.978 86.0988 129.018 86.1949C129.058 86.291 129.117 86.3783 129.191 86.4518L136.628 93.7715C136.775 93.9155 136.972 93.9974 137.178 93.9999C137.385 94.0024 137.584 93.9254 137.734 93.7849L140.511 91.1882C140.589 91.1153 140.651 91.0275 140.694 90.9301C140.738 90.8327 140.761 90.7277 140.762 90.6213C140.763 90.5149 140.743 90.4093 140.703 90.3107C140.662 90.2122 140.603 90.1228 140.527 90.0478L132.977 82.6228C132.827 82.4762 132.625 82.3946 132.415 82.3958C132.204 82.3971 132.003 82.4811 131.855 82.6295Z" fill="black"/>
<path opacity="0.1" d="M180.534 130.428L177.278 133.726C177.209 133.796 177.171 133.89 177.171 133.988C177.171 134.086 177.209 134.18 177.278 134.25L185.302 142.148C185.372 142.215 185.465 142.253 185.562 142.253C185.658 142.253 185.751 142.215 185.821 142.148L189.215 138.973C189.251 138.939 189.279 138.898 189.299 138.852C189.319 138.806 189.329 138.757 189.329 138.707C189.329 138.657 189.319 138.608 189.299 138.562C189.279 138.516 189.251 138.475 189.215 138.44L181.05 130.41C180.978 130.347 180.884 130.313 180.788 130.317C180.692 130.32 180.601 130.36 180.534 130.428Z" fill="black"/>
<path opacity="0.1" d="M146.683 106.8L143.576 109.86C143.541 109.895 143.513 109.935 143.495 109.98C143.476 110.025 143.466 110.073 143.466 110.121C143.466 110.17 143.476 110.218 143.495 110.263C143.513 110.308 143.541 110.348 143.576 110.383L160.881 128.017C160.95 128.085 161.044 128.123 161.142 128.123C161.24 128.123 161.333 128.085 161.403 128.017L164.784 124.847C164.819 124.813 164.848 124.771 164.867 124.726C164.887 124.68 164.897 124.631 164.897 124.582C164.897 124.532 164.887 124.483 164.867 124.438C164.848 124.392 164.819 124.351 164.784 124.316L147.206 106.793C147.135 106.726 147.041 106.689 146.943 106.691C146.845 106.692 146.752 106.731 146.683 106.8Z" fill="black"/>
</g>
<path d="M141.304 72.9528L138.796 75.4733C138.65 75.6213 138.568 75.8204 138.568 76.0279C138.568 76.2353 138.65 76.4345 138.796 76.5824L141.338 79.1746C141.485 79.3259 141.685 79.4133 141.897 79.4175C142.108 79.4217 142.312 79.3424 142.465 79.197L144.962 76.8535C145.114 76.7109 145.203 76.5147 145.21 76.3072C145.218 76.0997 145.143 75.8976 145.002 75.7444L142.46 72.9797C142.388 72.8997 142.3 72.8354 142.201 72.7905C142.103 72.7456 141.996 72.7211 141.888 72.7186C141.78 72.7161 141.672 72.7356 141.572 72.7758C141.471 72.8161 141.38 72.8763 141.304 72.9528Z" fill="#464A5F"/>
<path d="M145.978 77.6018L143.479 80.1157C143.332 80.2636 143.25 80.4627 143.25 80.6702C143.25 80.8776 143.332 81.0768 143.479 81.2247L146.021 83.817C146.093 83.8922 146.18 83.9524 146.276 83.9942C146.372 84.0361 146.475 84.0587 146.579 84.0608C146.684 84.0628 146.788 84.0444 146.886 84.0064C146.983 83.9684 147.072 83.9116 147.148 83.8394L149.644 81.498C149.799 81.3545 149.889 81.1561 149.897 80.9462C149.905 80.7364 149.828 80.532 149.685 80.3778L147.134 77.622C147.061 77.5425 146.973 77.4786 146.874 77.4343C146.775 77.39 146.669 77.3662 146.56 77.3643C146.452 77.3624 146.345 77.3825 146.245 77.4234C146.144 77.4642 146.054 77.5249 145.978 77.6018Z" fill="#464A5F"/>
<path d="M150.886 82.4793L148.387 84.9954C148.241 85.1436 148.16 85.3427 148.16 85.5499C148.16 85.7572 148.241 85.9563 148.387 86.1045L150.927 88.6922C151.073 88.8435 151.274 88.9309 151.485 88.9351C151.697 88.9393 151.901 88.86 152.053 88.7146L154.55 86.3711C154.627 86.3003 154.689 86.2151 154.733 86.1204C154.777 86.0257 154.801 85.9234 154.805 85.8193C154.809 85.7152 154.792 85.6114 154.755 85.5139C154.718 85.4163 154.662 85.3269 154.591 85.2508L152.049 82.4861C151.975 82.4064 151.885 82.3427 151.786 82.2989C151.686 82.2551 151.578 82.2322 151.469 82.2316C151.36 82.231 151.252 82.2526 151.152 82.2952C151.051 82.3379 150.961 82.4005 150.886 82.4793Z" fill="#464A5F"/>
<path d="M155.848 87.4152L153.352 89.929C153.203 90.078 153.12 90.2793 153.12 90.4892C153.12 90.699 153.203 90.9003 153.352 91.0493L155.896 93.6415C156.042 93.7928 156.243 93.8802 156.455 93.8844C156.666 93.8886 156.87 93.8093 157.023 93.6639L159.517 91.3204C159.67 91.1784 159.76 90.9823 159.768 90.7746C159.776 90.5669 159.701 90.3645 159.56 90.2113L157.005 87.4376C156.932 87.3583 156.843 87.2945 156.745 87.2502C156.646 87.2059 156.539 87.1819 156.431 87.1798C156.323 87.1777 156.216 87.1975 156.116 87.238C156.015 87.2785 155.925 87.3387 155.848 87.4152Z" fill="#464A5F"/>
<path d="M160.813 92.351L158.316 94.8648C158.167 95.0135 158.083 95.215 158.083 95.425C158.083 95.635 158.167 95.8364 158.316 95.9851L160.86 98.5751C161.007 98.7267 161.207 98.8145 161.419 98.8191C161.63 98.8237 161.834 98.7448 161.987 98.5997L164.482 96.2562C164.559 96.1857 164.622 96.1007 164.666 96.0061C164.71 95.9115 164.734 95.8091 164.738 95.7049C164.742 95.6008 164.725 95.4968 164.689 95.3992C164.652 95.3015 164.596 95.212 164.525 95.1359L161.983 92.3712C161.909 92.2899 161.82 92.2244 161.72 92.1791C161.62 92.1337 161.512 92.1093 161.402 92.1074C161.293 92.1055 161.184 92.1261 161.082 92.1681C160.981 92.21 160.889 92.2723 160.813 92.351Z" fill="#464A5F"/>
<path d="M166.091 96.9821L162.988 100.096C162.92 100.166 162.881 100.258 162.881 100.355C162.881 100.452 162.92 100.545 162.988 100.614L166.113 103.8C166.182 103.869 166.275 103.909 166.373 103.912C166.47 103.914 166.565 103.878 166.636 103.811L169.739 100.899C169.811 100.832 169.852 100.74 169.856 100.642C169.859 100.545 169.824 100.45 169.757 100.379L166.632 96.9821C166.597 96.9458 166.555 96.9169 166.508 96.8971C166.462 96.8774 166.412 96.8672 166.361 96.8672C166.311 96.8672 166.261 96.8774 166.214 96.8971C166.168 96.9169 166.126 96.9458 166.091 96.9821Z" fill="#464A5F"/>
<path d="M171.055 101.911L167.952 105.037C167.884 105.106 167.846 105.199 167.846 105.296C167.846 105.392 167.884 105.485 167.952 105.554L171.078 108.74C171.148 108.808 171.242 108.846 171.339 108.846C171.437 108.846 171.531 108.808 171.601 108.74L174.704 105.828C174.775 105.761 174.817 105.669 174.82 105.571C174.824 105.474 174.788 105.379 174.722 105.308L171.596 101.911C171.561 101.875 171.519 101.846 171.473 101.826C171.426 101.807 171.376 101.796 171.326 101.796C171.275 101.796 171.225 101.807 171.179 101.826C171.132 101.846 171.09 101.875 171.055 101.911Z" fill="#464A5F"/>
<path d="M175.45 106.276L172.347 109.401C172.279 109.47 172.24 109.563 172.24 109.66C172.24 109.757 172.279 109.85 172.347 109.919L175.47 113.114C175.54 113.182 175.634 113.22 175.732 113.22C175.829 113.22 175.923 113.182 175.993 113.114L179.096 110.201C179.167 110.134 179.209 110.042 179.213 109.945C179.216 109.847 179.181 109.753 179.114 109.681L175.991 106.285C175.956 106.248 175.915 106.218 175.869 106.198C175.823 106.177 175.773 106.166 175.722 106.165C175.672 106.164 175.621 106.174 175.575 106.193C175.528 106.212 175.485 106.24 175.45 106.276Z" fill="#464A5F"/>
<path d="M180.372 111.169L177.268 114.292C177.2 114.361 177.161 114.455 177.161 114.552C177.161 114.649 177.2 114.743 177.268 114.812L180.394 117.996C180.462 118.066 180.555 118.106 180.653 118.108C180.751 118.11 180.846 118.074 180.917 118.007L184.02 115.094C184.091 115.027 184.132 114.935 184.136 114.838C184.139 114.741 184.104 114.646 184.038 114.574L180.915 111.176C180.88 111.139 180.838 111.109 180.792 111.088C180.746 111.068 180.695 111.057 180.645 111.056C180.594 111.056 180.543 111.065 180.496 111.085C180.449 111.104 180.407 111.133 180.372 111.169Z" fill="#464A5F"/>
<path d="M185.138 115.908L182.035 119.031C181.966 119.1 181.927 119.193 181.927 119.291C181.927 119.388 181.966 119.481 182.035 119.551L185.158 122.748C185.228 122.816 185.322 122.854 185.42 122.854C185.517 122.854 185.611 122.816 185.681 122.748L188.784 119.835C188.855 119.768 188.896 119.676 188.9 119.579C188.903 119.482 188.868 119.387 188.802 119.315L185.67 115.919C185.636 115.883 185.595 115.854 185.55 115.834C185.504 115.815 185.456 115.804 185.406 115.803C185.357 115.802 185.308 115.81 185.261 115.828C185.215 115.846 185.173 115.873 185.138 115.908Z" fill="#464A5F"/>
<path d="M189.904 120.646L186.801 123.783C186.733 123.852 186.695 123.945 186.695 124.042C186.695 124.138 186.733 124.231 186.801 124.3L189.927 127.486C189.997 127.554 190.09 127.592 190.188 127.592C190.286 127.592 190.38 127.554 190.45 127.486L193.553 124.574C193.624 124.507 193.666 124.415 193.669 124.318C193.673 124.22 193.637 124.126 193.571 124.054L190.447 120.657C190.413 120.62 190.372 120.59 190.325 120.569C190.279 120.548 190.229 120.537 190.178 120.536C190.127 120.535 190.077 120.544 190.03 120.563C189.983 120.582 189.94 120.61 189.904 120.646Z" fill="#464A5F"/>
<path d="M194.67 125.385L191.567 128.522C191.499 128.591 191.461 128.684 191.461 128.782C191.461 128.879 191.499 128.972 191.567 129.041L194.684 132.214C194.754 132.282 194.848 132.32 194.945 132.32C195.043 132.32 195.137 132.282 195.207 132.214L198.31 129.301C198.381 129.234 198.423 129.142 198.426 129.045C198.43 128.948 198.394 128.853 198.328 128.782L195.204 125.385C195.17 125.35 195.128 125.322 195.082 125.302C195.036 125.283 194.987 125.273 194.937 125.273C194.888 125.273 194.838 125.283 194.793 125.302C194.747 125.322 194.705 125.35 194.67 125.385Z" fill="#464A5F"/>
<path d="M136.768 77.4652L134.271 79.979C134.124 80.127 134.042 80.3261 134.042 80.5336C134.042 80.741 134.124 80.9402 134.271 81.0881L136.815 83.6803C136.887 83.7555 136.974 83.8158 137.07 83.8576C137.166 83.8994 137.269 83.9221 137.374 83.9241C137.478 83.9262 137.582 83.9077 137.68 83.8697C137.777 83.8317 137.866 83.775 137.942 83.7027L140.436 81.3614C140.591 81.2185 140.683 81.0202 140.691 80.8101C140.699 80.6001 140.623 80.3954 140.479 80.2412L137.921 77.4899C137.849 77.4107 137.76 77.347 137.662 77.3027C137.564 77.2584 137.458 77.2344 137.35 77.2321C137.242 77.2298 137.135 77.2493 137.035 77.2893C136.935 77.3294 136.844 77.3892 136.768 77.4652Z" fill="#464A5F"/>
<path d="M126.852 87.3211L124.353 89.8349C124.204 89.9836 124.12 90.185 124.12 90.395C124.12 90.6051 124.204 90.8065 124.353 90.9552L126.897 93.5452C127.043 93.694 127.241 93.7799 127.45 93.7845C127.658 93.7892 127.861 93.712 128.013 93.5698L130.51 91.2263C130.664 91.083 130.755 90.8845 130.763 90.6745C130.771 90.4644 130.694 90.26 130.55 90.106L128.006 87.348C127.934 87.2681 127.846 87.2038 127.747 87.1589C127.649 87.114 127.543 87.0896 127.435 87.0871C127.327 87.0846 127.219 87.104 127.119 87.1443C127.019 87.1845 126.928 87.2447 126.852 87.3211Z" fill="#464A5F"/>
<path d="M141.442 82.112L138.942 84.6258C138.796 84.7737 138.714 84.9729 138.714 85.1803C138.714 85.3878 138.796 85.5869 138.942 85.7348L141.484 88.3271C141.557 88.4023 141.643 88.4625 141.739 88.5043C141.835 88.5462 141.938 88.5688 142.043 88.5709C142.148 88.573 142.252 88.5545 142.349 88.5165C142.447 88.4785 142.536 88.4217 142.611 88.3495L145.106 86.0037C145.26 85.8601 145.351 85.6617 145.358 85.4519C145.366 85.242 145.29 85.0377 145.146 84.8834L142.604 82.1209C142.531 82.0408 142.441 81.9767 142.342 81.9325C142.242 81.8883 142.134 81.8651 142.025 81.8643C141.916 81.8634 141.808 81.885 141.707 81.9276C141.607 81.9702 141.516 82.033 141.442 82.112Z" fill="#464A5F"/>
<path d="M146.348 86.9895L143.851 89.5056C143.704 89.6535 143.622 89.8527 143.622 90.0601C143.622 90.2676 143.704 90.4667 143.851 90.6147L146.395 93.2069C146.467 93.2821 146.554 93.3424 146.65 93.3842C146.746 93.426 146.849 93.4486 146.954 93.4507C147.058 93.4528 147.162 93.4343 147.26 93.3963C147.357 93.3583 147.446 93.3016 147.522 93.2293L150.016 90.888C150.171 90.745 150.263 90.5467 150.271 90.3367C150.279 90.1266 150.203 89.922 150.059 89.7677L147.504 87.0119C147.431 86.9329 147.342 86.8693 147.243 86.8252C147.145 86.7811 147.038 86.7572 146.93 86.7552C146.822 86.7531 146.715 86.7727 146.615 86.813C146.515 86.8533 146.424 86.9133 146.348 86.9895Z" fill="#464A5F"/>
<path d="M151.312 91.9253L148.815 94.4414C148.669 94.5893 148.587 94.7885 148.587 94.9959C148.587 95.2034 148.669 95.4025 148.815 95.5505L151.359 98.1427C151.505 98.2912 151.704 98.3768 151.913 98.3809C152.121 98.3851 152.323 98.3076 152.475 98.1651L154.972 95.8238C155.127 95.6808 155.218 95.4825 155.226 95.2725C155.234 95.0624 155.158 94.8578 155.015 94.7035L152.473 91.9388C152.399 91.8593 152.31 91.7957 152.21 91.7517C152.111 91.7077 152.004 91.6844 151.895 91.6832C151.787 91.6819 151.679 91.7027 151.579 91.7444C151.478 91.786 151.388 91.8476 151.312 91.9253Z" fill="#464A5F"/>
<path d="M131.686 91.811L129.187 94.3248C129.04 94.4728 128.958 94.6719 128.958 94.8794C128.958 95.0868 129.04 95.286 129.187 95.4339L131.729 98.0262C131.801 98.1014 131.888 98.1616 131.984 98.2034C132.08 98.2453 132.183 98.2679 132.287 98.27C132.392 98.272 132.496 98.2536 132.594 98.2156C132.691 98.1776 132.78 98.1208 132.856 98.0486L135.352 95.7072C135.507 95.5637 135.597 95.3653 135.605 95.1554C135.613 94.9456 135.536 94.7412 135.393 94.587L132.84 91.8289C132.767 91.7496 132.678 91.686 132.58 91.6419C132.481 91.5978 132.375 91.5742 132.267 91.5725C132.159 91.5709 132.051 91.5912 131.952 91.6322C131.852 91.6732 131.761 91.734 131.686 91.811Z" fill="#464A5F"/>
<path d="M136.592 96.6885L134.095 99.2046C133.949 99.3525 133.867 99.5517 133.867 99.7591C133.867 99.9666 133.949 100.166 134.095 100.314L136.639 102.906C136.786 103.057 136.987 103.145 137.198 103.149C137.409 103.153 137.613 103.074 137.766 102.928L140.261 100.587C140.416 100.444 140.507 100.246 140.515 100.036C140.523 99.8256 140.447 99.621 140.303 99.4668L137.761 96.702C137.688 96.6211 137.598 96.5562 137.498 96.5114C137.398 96.4666 137.289 96.4428 137.18 96.4416C137.07 96.4403 136.961 96.4616 136.86 96.5041C136.759 96.5466 136.668 96.6094 136.592 96.6885Z" fill="#464A5F"/>
<path d="M141.556 101.624L139.06 104.152C138.913 104.3 138.831 104.499 138.831 104.706C138.831 104.914 138.913 105.113 139.06 105.261L141.604 107.853C141.75 108.004 141.951 108.092 142.162 108.096C142.374 108.1 142.578 108.021 142.731 107.875L145.225 105.532C145.378 105.39 145.468 105.194 145.476 104.986C145.484 104.778 145.409 104.576 145.268 104.423L142.726 101.658C142.654 101.576 142.565 101.509 142.466 101.463C142.366 101.416 142.258 101.391 142.149 101.387C142.039 101.384 141.93 101.404 141.828 101.444C141.726 101.485 141.633 101.547 141.556 101.624Z" fill="#464A5F"/>
<path d="M156.277 96.8611L153.78 99.3772C153.633 99.5251 153.552 99.7243 153.552 99.9317C153.552 100.139 153.633 100.338 153.78 100.486L156.324 103.078C156.396 103.154 156.483 103.214 156.579 103.256C156.675 103.298 156.778 103.32 156.883 103.322C156.987 103.324 157.092 103.306 157.189 103.268C157.286 103.23 157.375 103.173 157.451 103.101L159.948 100.757C160.025 100.687 160.087 100.602 160.131 100.507C160.175 100.412 160.199 100.31 160.203 100.206C160.207 100.101 160.19 99.9976 160.153 99.9C160.116 99.8024 160.06 99.713 159.988 99.6371L157.446 96.8723C157.373 96.7913 157.283 96.7263 157.183 96.6815C157.082 96.6367 156.974 96.613 156.864 96.612C156.754 96.6109 156.645 96.6325 156.544 96.6754C156.443 96.7183 156.352 96.7815 156.277 96.8611Z" fill="#464A5F"/>
<path d="M161.241 101.797L158.742 104.313C158.596 104.461 158.514 104.66 158.514 104.868C158.514 105.075 158.596 105.274 158.742 105.422L161.286 108.014C161.359 108.089 161.445 108.15 161.541 108.192C161.637 108.233 161.74 108.256 161.845 108.258C161.95 108.26 162.054 108.242 162.151 108.204C162.249 108.166 162.338 108.109 162.413 108.037L164.91 105.693C165.062 105.551 165.152 105.355 165.16 105.147C165.167 104.939 165.092 104.737 164.951 104.584L162.409 101.819C162.336 101.738 162.247 101.672 162.147 101.627C162.047 101.581 161.939 101.557 161.83 101.555C161.72 101.552 161.611 101.573 161.51 101.615C161.409 101.656 161.317 101.718 161.241 101.797Z" fill="#464A5F"/>
<path d="M166.515 106.417L163.411 109.542C163.343 109.612 163.304 109.705 163.304 109.802C163.304 109.9 163.343 109.993 163.411 110.062L166.537 113.246C166.607 113.314 166.701 113.353 166.799 113.353C166.896 113.353 166.99 113.314 167.06 113.246L170.163 110.333C170.234 110.266 170.275 110.174 170.279 110.077C170.282 109.98 170.247 109.885 170.181 109.813L167.058 106.417C167.023 106.38 166.981 106.351 166.934 106.331C166.887 106.311 166.837 106.301 166.786 106.301C166.735 106.301 166.685 106.311 166.638 106.331C166.592 106.351 166.55 106.38 166.515 106.417Z" fill="#464A5F"/>
<path d="M170.914 110.786L167.81 113.911C167.742 113.981 167.703 114.074 167.703 114.171C167.703 114.269 167.742 114.362 167.81 114.431L170.936 117.615C171.006 117.683 171.1 117.722 171.197 117.722C171.295 117.722 171.389 117.683 171.459 117.615L174.562 114.702C174.633 114.635 174.674 114.543 174.678 114.446C174.681 114.349 174.646 114.254 174.58 114.182L171.457 110.786C171.422 110.749 171.38 110.72 171.333 110.7C171.286 110.68 171.236 110.67 171.185 110.67C171.134 110.67 171.084 110.68 171.037 110.7C170.991 110.72 170.948 110.749 170.914 110.786Z" fill="#464A5F"/>
<path d="M175.835 115.679L172.73 118.805C172.662 118.874 172.624 118.967 172.624 119.063C172.624 119.16 172.662 119.253 172.73 119.322L175.853 122.508C175.923 122.576 176.017 122.614 176.115 122.614C176.212 122.614 176.306 122.576 176.376 122.508L179.479 119.595C179.551 119.529 179.593 119.437 179.597 119.34C179.601 119.242 179.566 119.147 179.5 119.076L176.376 115.69C176.342 115.653 176.301 115.623 176.255 115.603C176.208 115.582 176.159 115.571 176.108 115.57C176.058 115.569 176.007 115.578 175.96 115.597C175.914 115.615 175.871 115.643 175.835 115.679Z" fill="#464A5F"/>
<path d="M180.601 120.418L177.498 123.543C177.429 123.612 177.391 123.706 177.391 123.803C177.391 123.9 177.429 123.994 177.498 124.063L180.622 127.247C180.692 127.315 180.786 127.353 180.884 127.353C180.982 127.353 181.076 127.315 181.147 127.247L184.248 124.334C184.319 124.268 184.361 124.176 184.365 124.078C184.369 123.981 184.334 123.886 184.268 123.814L181.144 120.418C181.11 120.381 181.067 120.352 181.021 120.332C180.974 120.312 180.924 120.302 180.873 120.302C180.822 120.302 180.772 120.312 180.725 120.332C180.678 120.352 180.636 120.381 180.601 120.418Z" fill="#464A5F"/>
<path d="M141.631 91.6811L139.132 94.1949C138.985 94.3428 138.903 94.542 138.903 94.7494C138.903 94.9569 138.985 95.156 139.132 95.304L141.676 97.8962C141.748 97.9717 141.835 98.0322 141.931 98.0742C142.027 98.1162 142.13 98.1389 142.235 98.1409C142.339 98.143 142.444 98.1245 142.541 98.0863C142.639 98.0481 142.728 97.9911 142.803 97.9186L145.3 95.5773C145.454 95.434 145.545 95.2356 145.553 95.0255C145.561 94.8155 145.484 94.611 145.34 94.4571L142.785 91.7035C142.712 91.6239 142.624 91.5599 142.526 91.5154C142.427 91.471 142.321 91.447 142.213 91.4449C142.105 91.4428 141.997 91.4626 141.897 91.5032C141.797 91.5439 141.707 91.6044 141.631 91.6811Z" fill="#464A5F"/>
<path d="M146.595 96.6169L144.096 99.1307C144.022 99.2042 143.963 99.2915 143.923 99.3876C143.883 99.4837 143.862 99.5868 143.862 99.6909C143.862 99.7949 143.883 99.898 143.923 99.9941C143.963 100.09 144.022 100.178 144.096 100.251L146.64 102.843C146.713 102.919 146.799 102.979 146.895 103.021C146.991 103.063 147.094 103.086 147.199 103.088C147.304 103.09 147.408 103.071 147.506 103.033C147.603 102.995 147.692 102.938 147.767 102.866L150.264 100.524C150.418 100.381 150.509 100.182 150.517 99.9725C150.524 99.7627 150.448 99.5583 150.305 99.4041L147.763 96.6415C147.69 96.5597 147.601 96.4937 147.502 96.4478C147.402 96.4018 147.294 96.3769 147.185 96.3746C147.075 96.3723 146.966 96.3926 146.864 96.4343C146.763 96.476 146.671 96.5382 146.595 96.6169Z" fill="#464A5F"/>
<path d="M151.56 101.553L149.061 104.067C148.915 104.214 148.833 104.414 148.833 104.621C148.833 104.828 148.915 105.028 149.061 105.176L151.603 107.768C151.675 107.843 151.762 107.903 151.858 107.945C151.954 107.987 152.057 108.01 152.162 108.012C152.266 108.014 152.37 107.995 152.468 107.957C152.565 107.919 152.654 107.862 152.73 107.79L155.226 105.449C155.381 105.305 155.471 105.107 155.479 104.897C155.487 104.687 155.41 104.483 155.267 104.329L152.725 101.564C152.651 101.484 152.562 101.419 152.462 101.375C152.362 101.33 152.254 101.307 152.145 101.306C152.036 101.305 151.927 101.326 151.827 101.369C151.726 101.411 151.635 101.474 151.56 101.553Z" fill="#464A5F"/>
<path d="M156.525 106.486L154.025 109.002C153.951 109.076 153.892 109.163 153.852 109.259C153.812 109.355 153.792 109.458 153.792 109.562C153.792 109.667 153.812 109.77 153.852 109.866C153.892 109.962 153.951 110.049 154.025 110.123L156.567 112.715C156.64 112.79 156.726 112.85 156.822 112.892C156.918 112.934 157.021 112.957 157.126 112.959C157.231 112.961 157.335 112.942 157.432 112.904C157.53 112.866 157.619 112.81 157.694 112.737L160.191 110.396C160.345 110.252 160.436 110.054 160.444 109.844C160.451 109.634 160.375 109.43 160.232 109.276L157.69 106.511C157.617 106.43 157.528 106.365 157.429 106.32C157.329 106.274 157.222 106.25 157.112 106.247C157.003 106.245 156.895 106.265 156.794 106.306C156.692 106.347 156.601 106.409 156.525 106.486Z" fill="#464A5F"/>
<path d="M161.802 111.108L158.697 114.234C158.629 114.303 158.59 114.397 158.59 114.494C158.59 114.591 158.629 114.684 158.697 114.754L161.82 117.937C161.888 118.007 161.982 118.048 162.079 118.05C162.177 118.052 162.272 118.016 162.343 117.949L165.446 115.036C165.518 114.969 165.56 114.877 165.564 114.779C165.568 114.681 165.533 114.586 165.467 114.514L162.343 111.117C162.309 111.08 162.268 111.05 162.221 111.03C162.175 111.009 162.125 110.998 162.075 110.997C162.024 110.996 161.974 111.006 161.927 111.025C161.88 111.044 161.838 111.072 161.802 111.108Z" fill="#464A5F"/>
<path d="M166.197 115.477L163.091 118.601C163.023 118.67 162.985 118.763 162.985 118.861C162.985 118.958 163.023 119.051 163.091 119.12L166.215 122.3C166.283 122.37 166.376 122.41 166.474 122.412C166.572 122.414 166.667 122.378 166.738 122.311L169.841 119.398C169.912 119.331 169.955 119.239 169.959 119.141C169.962 119.044 169.927 118.948 169.861 118.876L166.74 115.486C166.706 115.449 166.664 115.419 166.618 115.398C166.571 115.377 166.521 115.366 166.47 115.365C166.419 115.364 166.369 115.373 166.322 115.393C166.275 115.412 166.232 115.441 166.197 115.477Z" fill="#464A5F"/>
<path d="M171.116 120.368L168.013 123.505C167.945 123.575 167.907 123.668 167.907 123.765C167.907 123.862 167.945 123.955 168.013 124.025L171.137 127.209C171.206 127.277 171.3 127.315 171.398 127.315C171.496 127.315 171.59 127.277 171.659 127.209L174.763 124.296C174.834 124.23 174.876 124.138 174.88 124.04C174.884 123.943 174.849 123.848 174.783 123.776L171.657 120.38C171.623 120.343 171.582 120.313 171.536 120.292C171.489 120.271 171.44 120.26 171.389 120.259C171.339 120.258 171.288 120.267 171.241 120.286C171.195 120.305 171.152 120.333 171.116 120.368Z" fill="#464A5F"/>
<path d="M175.885 125.109L172.779 128.232C172.711 128.302 172.673 128.395 172.673 128.492C172.673 128.589 172.711 128.683 172.779 128.752L175.903 131.934C175.972 132.002 176.066 132.041 176.164 132.041C176.262 132.041 176.356 132.002 176.426 131.934L179.529 129.021C179.6 128.955 179.643 128.863 179.646 128.765C179.65 128.668 179.615 128.573 179.549 128.501L176.43 125.118C176.396 125.08 176.354 125.049 176.308 125.028C176.261 125.007 176.211 124.995 176.159 124.994C176.108 124.993 176.057 125.003 176.01 125.023C175.963 125.043 175.92 125.072 175.885 125.109Z" fill="#464A5F"/>
<path d="M185.368 125.156L182.265 128.293C182.196 128.362 182.157 128.456 182.157 128.553C182.157 128.65 182.196 128.744 182.265 128.813L185.39 131.997C185.46 132.065 185.554 132.103 185.652 132.103C185.749 132.103 185.843 132.065 185.913 131.997L189.016 129.084C189.087 129.017 189.128 128.925 189.132 128.828C189.135 128.731 189.1 128.636 189.034 128.564L185.909 125.168C185.874 125.13 185.833 125.101 185.787 125.08C185.741 125.059 185.691 125.048 185.64 125.047C185.59 125.046 185.54 125.055 185.493 125.074C185.446 125.093 185.403 125.121 185.368 125.156Z" fill="#464A5F"/>
<path d="M190.134 129.895L187.031 133.032C186.962 133.101 186.923 133.194 186.923 133.292C186.923 133.389 186.962 133.482 187.031 133.551L190.157 136.735C190.226 136.804 190.32 136.842 190.418 136.842C190.516 136.842 190.61 136.804 190.679 136.735L193.783 133.823C193.853 133.755 193.895 133.663 193.898 133.566C193.901 133.469 193.866 133.375 193.801 133.303L190.675 129.917C190.641 129.88 190.601 129.849 190.555 129.827C190.509 129.805 190.46 129.793 190.409 129.791C190.359 129.789 190.308 129.797 190.261 129.815C190.214 129.833 190.17 129.86 190.134 129.895Z" fill="#464A5F"/>
<path d="M165.987 125.47L163.058 128.412C162.966 128.505 162.914 128.63 162.914 128.76C162.914 128.891 162.966 129.016 163.058 129.109L166.008 132.115C166.099 132.208 166.224 132.262 166.355 132.265C166.486 132.267 166.613 132.218 166.708 132.129L169.638 129.389C169.733 129.299 169.789 129.176 169.794 129.046C169.799 128.916 169.753 128.789 169.665 128.692L166.715 125.483C166.669 125.434 166.613 125.394 166.551 125.366C166.489 125.338 166.422 125.323 166.354 125.322C166.286 125.32 166.218 125.333 166.155 125.358C166.092 125.384 166.035 125.422 165.987 125.47Z" fill="#464A5F"/>
<path d="M170.753 130.209L167.824 133.15C167.732 133.243 167.681 133.369 167.681 133.499C167.681 133.629 167.732 133.754 167.824 133.847L170.78 136.863C170.874 136.952 170.998 137.001 171.126 137.001C171.255 137.001 171.379 136.952 171.472 136.863L174.402 134.123C174.497 134.033 174.554 133.91 174.559 133.78C174.564 133.65 174.517 133.522 174.429 133.426L171.472 130.222C171.426 130.174 171.371 130.135 171.31 130.108C171.249 130.081 171.183 130.066 171.116 130.065C171.049 130.064 170.982 130.076 170.92 130.1C170.858 130.125 170.801 130.162 170.753 130.209Z" fill="#464A5F"/>
<path d="M175.529 134.947L172.599 137.889C172.507 137.982 172.456 138.107 172.456 138.238C172.456 138.368 172.507 138.493 172.599 138.586L175.549 141.593C175.641 141.686 175.765 141.74 175.897 141.743C176.028 141.745 176.155 141.696 176.25 141.606L179.18 138.866C179.276 138.777 179.332 138.654 179.337 138.523C179.342 138.393 179.295 138.265 179.207 138.169L176.257 134.961C176.211 134.911 176.155 134.87 176.093 134.842C176.031 134.814 175.964 134.799 175.896 134.798C175.827 134.797 175.76 134.809 175.697 134.835C175.634 134.861 175.576 134.899 175.529 134.947Z" fill="#464A5F"/>
<path d="M180.381 139.592L177.277 142.729C177.209 142.798 177.171 142.891 177.171 142.988C177.171 143.086 177.209 143.179 177.277 143.248L180.403 146.432C180.472 146.502 180.565 146.542 180.662 146.544C180.76 146.546 180.855 146.51 180.926 146.443L184.029 143.531C184.1 143.464 184.142 143.372 184.146 143.274C184.149 143.177 184.114 143.082 184.047 143.011L180.924 139.614C180.89 139.576 180.849 139.545 180.804 139.523C180.758 139.501 180.708 139.489 180.657 139.487C180.606 139.485 180.555 139.493 180.508 139.511C180.46 139.529 180.417 139.557 180.381 139.592Z" fill="#464A5F"/>
<path d="M131.855 82.0873L129.191 84.7916C129.117 84.8651 129.058 84.9524 129.018 85.0485C128.978 85.1446 128.957 85.2477 128.957 85.3517C128.957 85.4558 128.978 85.5589 129.018 85.655C129.058 85.7511 129.117 85.8384 129.191 85.9119L136.628 93.2316C136.775 93.3756 136.972 93.4575 137.178 93.46C137.385 93.4625 137.584 93.3855 137.734 93.245L140.511 90.6483C140.589 90.5754 140.651 90.4876 140.694 90.3902C140.737 90.2928 140.76 90.1878 140.762 90.0814C140.763 89.975 140.743 89.8694 140.703 89.7708C140.662 89.6723 140.602 89.5829 140.527 89.5079L132.977 82.0829C132.828 81.936 132.625 81.854 132.415 81.8548C132.205 81.8556 132.003 81.9392 131.855 82.0873Z" fill="#464A5F"/>
<path d="M180.534 129.886L177.278 133.191C177.209 133.261 177.171 133.355 177.171 133.453C177.171 133.551 177.209 133.645 177.278 133.715L185.302 141.613C185.372 141.68 185.465 141.717 185.562 141.717C185.658 141.717 185.751 141.68 185.821 141.613L189.215 138.438C189.251 138.403 189.279 138.362 189.299 138.316C189.319 138.27 189.329 138.221 189.329 138.171C189.329 138.122 189.319 138.072 189.299 138.026C189.279 137.981 189.251 137.939 189.215 137.905L181.05 129.875C180.979 129.81 180.886 129.775 180.79 129.777C180.693 129.779 180.602 129.818 180.534 129.886Z" fill="#464A5F"/>
<path d="M146.683 106.258L143.576 109.318C143.541 109.352 143.513 109.393 143.495 109.438C143.476 109.483 143.466 109.531 143.466 109.579C143.466 109.628 143.476 109.676 143.495 109.721C143.513 109.766 143.541 109.806 143.576 109.84L160.881 127.475C160.951 127.543 161.044 127.581 161.142 127.581C161.24 127.581 161.334 127.543 161.404 127.475L164.784 124.305C164.82 124.27 164.848 124.229 164.867 124.184C164.887 124.138 164.897 124.089 164.897 124.039C164.897 123.99 164.887 123.941 164.867 123.895C164.848 123.85 164.82 123.808 164.784 123.774L147.206 106.251C147.135 106.184 147.041 106.147 146.943 106.149C146.846 106.15 146.752 106.189 146.683 106.258Z" fill="#464A5F"/>
<path opacity="0.1" d="M134.476 108.409L120.813 121.903C120.434 122.278 120.219 122.786 120.215 123.317C120.211 123.848 120.417 124.359 120.79 124.74L146.061 150.541C146.248 150.731 146.47 150.883 146.716 150.988C146.961 151.093 147.225 151.148 147.493 151.151C147.76 151.154 148.025 151.104 148.273 151.005C148.521 150.906 148.746 150.759 148.937 150.572L163.006 136.814C163.196 136.627 163.348 136.405 163.451 136.16C163.555 135.914 163.609 135.651 163.61 135.385C163.611 135.119 163.559 134.856 163.458 134.61C163.356 134.364 163.206 134.141 163.017 133.952L137.34 108.409C136.96 108.032 136.445 107.82 135.908 107.82C135.371 107.82 134.856 108.032 134.476 108.409Z" fill="black"/>
<path d="M134.476 107.855L120.813 121.361C120.434 121.735 120.219 122.243 120.215 122.775C120.211 123.306 120.417 123.817 120.79 124.197L146.061 149.999C146.248 150.189 146.47 150.341 146.716 150.446C146.961 150.551 147.225 150.606 147.493 150.609C147.76 150.612 148.025 150.562 148.273 150.463C148.521 150.364 148.746 150.217 148.937 150.03L163.006 136.271C163.196 136.085 163.348 135.862 163.451 135.617C163.555 135.372 163.609 135.109 163.61 134.843C163.611 134.577 163.559 134.314 163.458 134.068C163.356 133.822 163.206 133.598 163.017 133.41L137.34 107.869C136.962 107.49 136.448 107.276 135.911 107.273C135.374 107.271 134.858 107.48 134.476 107.855Z" fill="#939498"/>
<path d="M147.6 37.0399L144.141 61.0849L208.237 124.605L211.5 100.771C211.587 100.127 211.524 99.4722 211.315 98.857C211.106 98.2417 210.756 97.6828 210.294 97.2241L149.022 36.5649C148.912 36.4556 148.773 36.379 148.622 36.3437C148.47 36.3085 148.311 36.3159 148.164 36.3652C148.016 36.4146 147.885 36.5038 147.786 36.623C147.686 36.7422 147.622 36.8865 147.6 37.0399Z" fill="#FFC107"/>
<path opacity="0.1" d="M66.4999 153.593C69.3762 153.593 71.7079 153.275 71.7079 152.883C71.7079 152.49 69.3762 152.172 66.4999 152.172C63.6237 152.172 61.292 152.49 61.292 152.883C61.292 153.275 63.6237 153.593 66.4999 153.593Z" fill="#FFC107"/>
<path opacity="0.1" d="M46.5471 155.605C49.4233 155.605 51.755 155.287 51.755 154.894C51.755 154.502 49.4233 154.184 46.5471 154.184C43.6708 154.184 41.3391 154.502 41.3391 154.894C41.3391 155.287 43.6708 155.605 46.5471 155.605Z" fill="#FFC107"/>
<path opacity="0.1" d="M23.0471 152.882C25.9233 152.882 28.255 152.564 28.255 152.172C28.255 151.78 25.9233 151.462 23.0471 151.462C20.1708 151.462 17.8391 151.78 17.8391 152.172C17.8391 152.564 20.1708 152.882 23.0471 152.882Z" fill="#FFC107"/>
<path opacity="0.1" d="M54.5335 161.127C56.5784 161.127 58.2361 160.901 58.2361 160.621C58.2361 160.342 56.5784 160.115 54.5335 160.115C52.4886 160.115 50.8309 160.342 50.8309 160.621C50.8309 160.901 52.4886 161.127 54.5335 161.127Z" fill="#FFC107"/>
<path opacity="0.1" d="M33.8258 160.621C35.8707 160.621 37.5284 160.394 37.5284 160.115C37.5284 159.835 35.8707 159.608 33.8258 159.608C31.7809 159.608 30.1232 159.835 30.1232 160.115C30.1232 160.394 31.7809 160.621 33.8258 160.621Z" fill="#FFC107"/>
<path d="M46.4366 154.735C46.4366 154.735 53.7403 130.928 45.2918 121.404C38.9819 114.27 31.7998 115.13 28.5863 116.006C27.7553 116.226 26.9824 116.623 26.3209 117.169C25.6594 117.715 25.1252 118.398 24.7552 119.17C23.6285 121.581 23.8358 125.49 31.7638 130.054C45.0417 137.696 45.8665 148.18 45.8665 148.18L46.4366 154.735Z" fill="#FFC107"/>
<path d="M29.7244 119.371C29.7244 119.371 51.2593 126.064 46.4322 154.735" stroke="#565987" stroke-miterlimit="10"/>
<path d="M42.3058 121.771C42.3058 121.771 39.3424 123.756 40.2776 126.743" stroke="#565987" stroke-miterlimit="10"/>
<path d="M31.89 123.539C31.89 123.539 33.6928 121.706 35.908 122.716" stroke="#565987" stroke-miterlimit="10"/>
<path d="M40.4016 132.758C40.4016 132.758 43.5836 131.152 44.4084 133.164" stroke="#565987" stroke-miterlimit="10"/>
<path d="M48.2778 136.106C48.2778 136.106 45.8868 135.917 45.8439 137.053" stroke="#565987" stroke-miterlimit="10"/>
<path d="M46.7318 154.926C46.7318 154.926 38.1683 137.622 35.8246 138.001C34.7091 138.18 34.1953 139.271 33.9632 140.369C33.6753 141.787 33.8375 143.259 34.4274 144.581C35.6421 147.351 38.903 152.609 46.7318 154.926Z" fill="#FFC107"/>
<path d="M35.89 141.283C35.89 141.283 44.8681 154.231 46.6033 154.798" stroke="#565987" stroke-miterlimit="10"/>
<path d="M35.0629 143.304H37.1587" stroke="#565987" stroke-miterlimit="10"/>
<path d="M37.5734 148.041L40.859 148.18" stroke="#565987" stroke-miterlimit="10"/>
<path d="M39.5722 144.252L39.2162 145.953" stroke="#565987" stroke-miterlimit="10"/>
<path d="M43.0675 149.43L43.0021 150.976" stroke="#565987" stroke-miterlimit="10"/>
<path d="M46.4772 154.926C46.4772 154.926 55.0407 137.622 57.3821 138.001C58.5089 138.18 59.0137 139.271 59.2458 140.369C59.5342 141.787 59.3711 143.26 58.7793 144.581C57.5669 147.351 54.306 152.609 46.4772 154.926Z" fill="#FFC107"/>
<path d="M57.3189 141.283C57.3189 141.283 48.3385 154.231 46.6033 154.798" stroke="#565987" stroke-miterlimit="10"/>
<path d="M58.1438 143.304H56.048" stroke="#565987" stroke-miterlimit="10"/>
<path d="M55.6333 148.041L52.3476 148.18" stroke="#565987" stroke-miterlimit="10"/>
<path d="M53.6344 144.252L53.9905 145.953" stroke="#565987" stroke-miterlimit="10"/>
<path d="M50.1414 149.43L50.2045 150.976" stroke="#565987" stroke-miterlimit="10"/>
<path d="M31.7862 158.965C31.5529 158.777 31.3831 158.522 31.2995 158.235C31.262 158.091 31.2753 157.939 31.3373 157.803C31.3992 157.668 31.506 157.558 31.6397 157.491C31.953 157.372 32.2865 157.588 32.5412 157.805C32.7958 158.022 33.0865 158.271 33.4178 158.226C33.2471 158.073 33.1194 157.878 33.0471 157.661C32.9748 157.444 32.9604 157.211 33.0054 156.987C33.0191 156.894 33.0589 156.806 33.1203 156.734C33.2938 156.55 33.6071 156.629 33.8144 156.774C34.477 157.236 34.6595 158.119 34.664 158.932C34.701 158.634 34.7048 158.334 34.6753 158.036C34.6628 157.887 34.6868 157.738 34.7453 157.601C34.8038 157.464 34.895 157.343 35.011 157.249C35.1683 157.166 35.3446 157.125 35.5226 157.131C35.6693 157.108 35.8191 157.116 35.9624 157.154C36.1057 157.193 36.2392 157.261 36.3542 157.355C36.6066 157.623 36.5412 158.071 36.3204 158.367C36.0761 158.643 35.7856 158.875 35.4618 159.053C35.2148 159.198 35.0044 159.397 34.8465 159.635C34.8284 159.668 34.8133 159.703 34.8015 159.738H32.94C32.5223 159.533 32.1342 159.273 31.7862 158.965Z" fill="#FFC107"/>
<path d="M64.3883 151.997C64.1549 151.809 63.9844 151.554 63.8993 151.267C63.8623 151.123 63.8758 150.971 63.9377 150.836C63.9996 150.7 64.1061 150.59 64.2396 150.523C64.5528 150.404 64.8864 150.62 65.141 150.837C65.3957 151.054 65.6841 151.303 66.0154 151.256C65.845 151.102 65.7176 150.907 65.6453 150.69C65.573 150.473 65.5585 150.241 65.603 150.017C65.6182 149.925 65.6579 149.838 65.7179 149.766C65.8914 149.58 66.2047 149.661 66.4143 149.806C67.0745 150.268 67.2593 151.151 67.2616 151.962C67.2995 151.664 67.304 151.364 67.2751 151.065C67.2608 150.917 67.284 150.767 67.3427 150.63C67.4013 150.493 67.4935 150.372 67.6109 150.279C67.7676 150.194 67.9443 150.153 68.1224 150.16C68.2687 150.138 68.4181 150.146 68.561 150.185C68.7038 150.224 68.8369 150.291 68.9517 150.384C69.2041 150.653 69.1388 151.104 68.9202 151.399C68.6741 151.671 68.3829 151.898 68.0593 152.071C67.8145 152.219 67.6053 152.417 67.4464 152.654C67.4273 152.687 67.4122 152.723 67.4013 152.759H65.5376C65.1221 152.557 64.7355 152.301 64.3883 151.997Z" fill="#FFC107"/>
<path d="M53.5217 158.965C53.2884 158.777 53.1186 158.522 53.0349 158.235C52.9975 158.091 53.0108 157.939 53.0727 157.803C53.1347 157.668 53.2414 157.558 53.3752 157.491C53.6885 157.372 54.022 157.588 54.2766 157.805C54.5313 158.022 54.822 158.271 55.1533 158.226C54.9826 158.073 54.8548 157.878 54.7826 157.661C54.7103 157.444 54.6959 157.211 54.7409 156.987C54.7546 156.894 54.7944 156.806 54.8558 156.734C55.0293 156.55 55.3426 156.629 55.5499 156.774C56.2102 157.236 56.395 158.119 56.3995 158.932C56.4365 158.634 56.4402 158.334 56.4108 158.036C56.3984 157.888 56.4223 157.739 56.4803 157.603C56.5384 157.466 56.629 157.346 56.7443 157.251C56.9015 157.168 57.0778 157.127 57.2558 157.133C57.4025 157.11 57.5524 157.118 57.6957 157.156C57.839 157.195 57.9724 157.263 58.0874 157.357C58.3398 157.626 58.2744 158.074 58.0536 158.369C57.8093 158.646 57.5188 158.878 57.195 159.055C56.9481 159.2 56.7377 159.399 56.5798 159.638C56.5616 159.671 56.5466 159.705 56.5347 159.741H54.6733C54.2562 159.535 53.8689 159.274 53.5217 158.965Z" fill="#FFC107"/>
<path d="M22.7089 144.879C22.7089 144.879 22.0103 145.787 23.0312 147.156C24.052 148.525 24.8926 149.683 24.5523 150.537C24.5523 150.537 23.0131 147.991 21.7602 147.958C20.5072 147.924 21.3297 146.41 22.7089 144.879Z" fill="#FFC107"/>
<path opacity="0.1" d="M22.7089 144.879C22.6485 144.967 22.6007 145.063 22.5669 145.164C21.3433 146.591 20.692 147.924 21.8683 147.958C22.9613 147.987 24.2751 149.934 24.5884 150.422C24.5787 150.461 24.5667 150.498 24.5523 150.534C24.5523 150.534 23.0131 147.989 21.7602 147.956C20.5072 147.922 21.3297 146.41 22.7089 144.879Z" fill="black"/>
<path d="M21.4109 146.036C21.4109 146.356 21.447 146.614 21.4921 146.614C21.5372 146.614 21.5732 146.356 21.5732 146.036C21.5732 145.715 21.5281 145.867 21.4831 145.867C21.438 145.867 21.4109 145.715 21.4109 146.036Z" fill="#FFD037"/>
<path d="M20.967 146.416C21.2487 146.569 21.4943 146.663 21.5146 146.623C21.5349 146.582 21.3253 146.43 21.0436 146.275C20.7619 146.121 20.8723 146.235 20.852 146.275C20.8318 146.316 20.6853 146.273 20.967 146.416Z" fill="#FFD037"/>
<path d="M26.3958 144.879C26.3958 144.879 27.0921 145.787 26.0735 147.156C25.0549 148.525 24.2121 149.683 24.5524 150.537C24.5524 150.537 26.0915 147.991 27.3445 147.958C28.5975 147.924 27.7727 146.41 26.3958 144.879Z" fill="#FFC107"/>
<path opacity="0.1" d="M26.3958 144.879C26.4562 144.967 26.504 145.063 26.5378 145.164C27.7592 146.591 28.4105 147.924 27.2364 147.958C26.1412 147.987 24.8296 149.934 24.5141 150.422C24.5245 150.461 24.5373 150.498 24.5524 150.534C24.5524 150.534 26.0916 147.989 27.3445 147.956C28.5975 147.922 27.7727 146.41 26.3958 144.879Z" fill="black"/>
<path d="M27.6961 146.036C27.6961 146.356 27.6601 146.614 27.6173 146.614C27.5744 146.614 27.5361 146.356 27.5361 146.036C27.5361 145.715 27.5812 145.867 27.6263 145.867C27.6714 145.867 27.6961 145.715 27.6961 146.036Z" fill="#FFD037"/>
<path d="M28.1467 146.416C27.865 146.569 27.6194 146.663 27.5968 146.623C27.5743 146.582 27.7884 146.43 28.0701 146.275C28.3518 146.121 28.2414 146.235 28.2616 146.275C28.2819 146.316 28.4194 146.273 28.1467 146.416Z" fill="#FFD037"/>
<path d="M27.4707 150.418C27.4707 150.418 25.5191 150.357 24.931 149.943C24.3428 149.528 21.9293 149.029 21.776 149.696C21.6228 150.364 18.8464 153.017 21.0481 153.035C23.2498 153.053 26.1659 152.694 26.7541 152.338C27.3423 151.982 27.4707 150.418 27.4707 150.418Z" fill="#A8A8A8"/>
<path opacity="0.2" d="M21.0143 152.802C23.2182 152.82 26.1343 152.461 26.7203 152.105C27.171 151.834 27.3445 150.864 27.3963 150.416H27.4707C27.4707 150.416 27.3467 151.984 26.7608 152.336C26.1749 152.688 23.2566 153.051 21.0548 153.033C20.4193 153.033 20.1985 152.809 20.2098 152.47C20.2999 152.672 20.541 152.797 21.0143 152.802Z" fill="black"/>
<path d="M38.8646 74.8505C38.8286 75.7915 39.6399 77.0417 39.6399 77.0417C39.8877 77.6355 42.9278 80.3868 42.9278 80.3868L45.1813 81.8834C44.7261 82.2174 44.2487 82.5206 43.7526 82.7908C42.6551 83.3487 42.0557 85.1949 42.0557 85.1949C42.0557 85.1949 40.3925 89.1673 43.7526 89.7252L43.8157 89.7364L44.1176 90.0613C44.8613 90.8589 45.7695 91.8111 46.085 92.0239C46.6506 92.4071 48.3836 95.2995 48.3836 95.2995C48.3836 95.2995 50.2202 98.2973 52.6653 98.4362C55.1104 98.5751 55.1037 95.788 54.9189 95.6132C54.8455 95.4965 54.7943 95.3674 54.7679 95.2323C55.3516 96.1666 56.1471 97.3944 56.404 97.5647C56.8277 97.8425 58.2068 100.029 58.2068 100.029C58.2068 100.029 59.9398 103.966 60.2215 104.385C60.5032 104.804 60.999 106.894 60.999 106.894C60.999 106.894 61.9905 109.784 62.4502 110.17C62.91 110.555 63.1556 111.946 63.1556 111.946C63.1556 111.946 64.6046 114.037 64.8525 114.384C65.1425 114.891 65.4021 115.415 65.63 115.952C65.63 115.952 66.4075 117.207 66.4075 117.696C66.4075 118.184 68.0345 119.017 68.0345 119.017C68.0345 119.017 69.2019 120.377 69.8734 120.622C70.545 120.866 71.1805 122.468 71.2864 122.362C71.3489 122.333 71.4178 122.319 71.487 122.322L71.7619 122.596C72.8346 123.658 74.9777 125.775 75.5276 126.265C76.2712 126.938 77.9682 127.032 79.3811 126.754C80.1068 126.61 80.9902 125.927 81.6775 125.295C81.833 125.151 81.9574 124.976 82.0433 124.783C82.1292 124.589 82.1748 124.38 82.1773 124.168C82.1799 123.957 82.1393 123.747 82.058 123.551C81.9768 123.356 81.8565 123.178 81.7045 123.03C81.0285 122.383 80.2465 121.672 79.9017 121.563C79.2662 121.352 77.4634 120.1 76.616 119.053C76.1653 118.509 75.3743 117.991 74.7095 117.622L74.6284 117.575C74.5268 117.191 74.4582 116.8 74.4233 116.405C74.4233 116.405 75.5907 113.793 74.9529 113.654C74.3152 113.515 71.9129 109.368 71.9129 109.368C71.8791 106.231 68.9833 103.583 68.9833 103.583C68.9833 103.583 67.5342 100.168 67.1106 99.4377C66.9846 99.2525 66.9173 99.034 66.9173 98.8104C66.9173 98.5868 66.9846 98.3683 67.1106 98.1831C67.1106 98.1831 66.2971 97.5557 66.1573 97.2421C66.0176 96.9284 65.3438 94.5535 65.3438 94.5535C65.3438 94.5535 64.5303 93.124 64.4942 92.4631C64.4582 91.8021 62.8739 89.9582 62.8739 89.9582C62.8739 89.9582 62.2317 86.8529 61.5218 86.295C61.3843 86.1874 61.4046 85.7774 61.5218 85.1882L61.5556 85.1523L61.6638 85.047L61.6953 85.0157C62.0201 84.6971 62.3256 84.3597 62.6102 84.0052L62.6238 83.9873C62.6688 83.9313 62.7117 83.8775 62.7522 83.8215C63.7776 82.4279 64.4131 79.1164 64.4131 79.1164C64.4131 79.1164 64.6159 79.0223 64.8796 78.8789C65.2501 78.695 65.5929 78.4604 65.8982 78.1821C65.9127 78.166 65.9249 78.1479 65.9342 78.1284C65.9354 78.1225 65.9354 78.1164 65.9342 78.1104C65.9412 78.0967 65.9472 78.0825 65.9523 78.0679C65.9531 78.0597 65.9531 78.0514 65.9523 78.0432C65.9535 78.0268 65.9535 78.0103 65.9523 77.9939C65.9523 77.9939 65.9523 77.9783 65.9523 77.9693V77.8886C65.9523 77.8595 65.9523 77.8304 65.941 77.799C65.9408 77.7953 65.9408 77.7915 65.941 77.7878C65.941 77.7609 65.9297 77.734 65.923 77.7049V77.678C65.923 77.6534 65.9094 77.6287 65.9004 77.6019C65.9011 77.5922 65.9011 77.5824 65.9004 77.5727L65.8734 77.4898C65.8725 77.4831 65.8725 77.4764 65.8734 77.4697C65.8306 77.3576 65.7787 77.2456 65.7201 77.1246L65.6593 77.0104C65.5489 76.802 65.4339 76.5981 65.3123 76.4211L65.2942 76.3942C65.5421 75.6997 66.0221 74.4764 66.4683 74.0372C67.1038 73.4099 66.1145 70.0648 66.1145 70.0648C66.1145 70.0648 65.9027 67.6966 65.6187 66.9998C65.3348 66.303 65.6187 66.2022 65.3934 65.6062C65.1207 64.9341 64.9224 64.9789 65.2739 63.4464C65.4069 62.8684 65.612 62.232 65.7968 61.6383L66.0221 61.8444C67.3292 63.07 69.3822 64.6652 69.3822 64.6652C69.3822 64.6652 73.4115 68.2881 73.7653 68.3934C74.1191 68.4987 75.1805 72.0521 75.1805 72.0521C75.1805 72.0521 74.9326 77.9402 78.1845 78.1844C79.5659 78.2875 80.1518 77.2255 80.3637 75.973C80.5204 75.001 80.4588 74.0066 80.1833 73.061C79.9078 72.1155 79.4253 71.2423 78.7704 70.504L76.8234 68.3038L75.0904 65.2388C73.9872 63.5085 73.058 61.6744 72.3163 59.763C71.529 57.8901 70.3736 56.1923 68.9179 54.769L68.7782 54.6323L68.9585 54.4665C68.9585 54.4665 68.6745 52.1677 68.4627 51.8899C68.2509 51.6121 67.4734 50.0079 67.4734 49.6494C67.4734 49.2909 66.9776 49.2327 66.6959 48.8137C66.6959 48.8137 66.2001 47.8391 65.7404 47.6935C65.6564 47.6611 65.5798 47.6123 65.5151 47.5501C64.709 46.8416 63.6973 46.4061 62.626 46.3066L62.3443 46.2797C61.7179 46.2515 61.0903 46.2605 60.4649 46.3066H60.4491C59.9691 46.1632 59.6063 45.7913 59.2344 45.4597C58.6356 44.927 57.9716 44.4716 57.2581 44.1042C56.5257 43.7256 55.6964 43.432 54.8783 43.571C54.2383 43.674 53.6659 44.0191 53.0417 44.2005C52.1538 44.4492 51.0631 44.3977 50.5042 45.1214C50.236 45.4664 50.1594 45.9257 49.9093 46.282C49.5532 46.7883 48.8997 47.0236 48.5323 47.5232C48.2865 47.8868 48.1743 48.3236 48.2146 48.7599C48.2023 49.1131 48.2449 49.466 48.3408 49.8063C48.4344 50.0987 48.503 50.3985 48.5459 50.7025C48.5409 50.7522 48.5327 50.8016 48.5211 50.8503C48.4715 51.0744 48.3566 51.2626 48.3115 51.4799C48.2887 51.5981 48.2849 51.7191 48.3002 51.8384C48.2326 52.3739 48.5797 52.8825 48.814 53.3799C48.9954 53.7684 49.1147 54.1826 49.1678 54.6076C48.5814 54.7801 48.0095 54.9981 47.4574 55.2596C46.7205 55.6136 45.9791 56.0931 45.5554 56.707C44.8657 57.6712 44.0023 58.4999 43.0089 59.1514C42.7032 59.8997 42.4435 60.6659 42.2314 61.4456C42.0196 62.3418 41.8078 63.8138 41.1723 64.5823C40.5368 65.3508 40.2438 67.6316 40.2438 67.6316C40.2438 67.6316 39.3942 68.9894 39.3942 69.2694C39.3942 69.5495 39.2883 70.8378 39.3942 71.2187C39.4565 71.3383 39.5397 71.446 39.6399 71.5368L39.5768 71.7609C39.2838 72.7848 38.8872 74.2613 38.8646 74.8505ZM58.795 59.1559C58.777 59.2343 58.7567 59.3082 58.7319 59.3799C58.7319 59.3082 58.7432 59.2387 58.7477 59.1671L58.795 59.1559ZM50.7408 88.9365L50.6281 88.8335L50.5741 88.7842C50.5741 88.7573 50.5876 88.7304 50.5943 88.699L50.7408 88.9365ZM44.8816 74.6758L44.9267 74.5929L45.0934 74.2926L46.4456 73.1948L46.6191 73.3516C46.6191 73.3516 46.4771 74.8147 46.1256 74.7452C46.0444 74.7295 46.0084 75.0656 45.9994 75.5921C45.3616 75.0499 44.8748 74.6758 44.8748 74.6758H44.8816Z" fill="url(#paint0_linear_26_120)"/>
<path d="M57.0845 47.5366C57.0845 47.5366 61.2919 47.1602 62.2925 47.2632L62.5652 47.2879C63.6092 47.3935 64.592 47.8276 65.3708 48.5269C65.4358 48.5883 65.5124 48.6363 65.5962 48.668C66.0469 48.8047 66.5269 49.7659 66.5269 49.7659C66.5269 49.7659 65.4587 58.1655 65.4587 58.2686C65.4587 58.3716 63.2502 62.176 63.2502 62.176L61.1116 63.0005L57.4226 63.5181L57.3189 61.9363C57.3189 61.9363 59.0947 60.9684 58.8964 58.9676C58.6981 56.9668 57.0845 47.5366 57.0845 47.5366Z" fill="#464353"/>
<path d="M59.1533 57.5135C59.1533 57.5135 58.2519 61.5598 59.1533 62.8615C60.0548 64.1633 50.2563 60.7376 50.2563 60.7376L48.4535 57.5135C48.4535 57.5135 49.1296 57.0363 49.8913 56.4201C50.9639 55.562 52.2485 54.4373 52.2485 53.9556C52.2597 53.1243 59.1533 57.5135 59.1533 57.5135Z" fill="#ECB4B6"/>
<path opacity="0.1" d="M59.1533 57.5135C59.1533 57.5135 58.2519 61.5598 59.1533 62.8615C60.0548 64.1633 50.2563 60.7376 50.2563 60.7376L48.4535 57.5135C48.4535 57.5135 49.1296 57.0363 49.8913 56.4201C50.9639 55.562 52.2485 54.4373 52.2485 53.9556C52.2597 53.1243 59.1533 57.5135 59.1533 57.5135Z" fill="black"/>
<path opacity="0.1" d="M57.0846 60.1954C60.399 60.1954 63.0858 57.5241 63.0858 54.2289C63.0858 50.9338 60.399 48.2625 57.0846 48.2625C53.7703 48.2625 51.0834 50.9338 51.0834 54.2289C51.0834 57.5241 53.7703 60.1954 57.0846 60.1954Z" fill="black"/>
<path d="M57.0846 59.9198C60.399 59.9198 63.0858 57.2486 63.0858 53.9534C63.0858 50.6582 60.399 47.9869 57.0846 47.9869C53.7703 47.9869 51.0834 50.6582 51.0834 53.9534C51.0834 57.2486 53.7703 59.9198 57.0846 59.9198Z" fill="#ECB4B6"/>
<path d="M64.8435 61.3582C64.866 61.5823 65.2942 62.0461 65.8756 62.595C67.1511 63.8004 69.1545 65.371 69.1545 65.371C69.1545 65.371 73.087 68.9356 73.4363 69.0387C73.7856 69.1417 74.8154 72.6391 74.8154 72.6391C74.8154 72.6391 74.5743 78.4331 77.745 78.6728C79.0972 78.7736 79.6651 77.7318 79.8724 76.4973C80.025 75.5426 79.965 74.5663 79.6967 73.6372C79.4284 72.7081 78.9584 71.8489 78.3197 71.1201L76.4357 68.9401L74.7456 65.9221C73.6621 64.223 72.7496 62.4219 72.021 60.5449C71.2584 58.6993 70.1329 57.0236 68.7106 55.6159C68.3568 55.2663 68.1292 55.0804 68.1292 55.0804L66.5517 55.5598C66.5517 55.5598 64.7759 60.6682 64.8435 61.3582Z" fill="#ECB4B6"/>
<path d="M70.8785 121.769L71.4825 122.371C72.5281 123.418 74.6194 125.508 75.1558 125.983C75.8792 126.635 77.5355 126.738 78.9147 126.463C79.6223 126.324 80.4922 125.649 81.1547 125.029C81.3079 124.886 81.4304 124.715 81.515 124.524C81.5995 124.333 81.6443 124.128 81.6466 123.919C81.649 123.711 81.6087 123.504 81.5285 123.312C81.4482 123.119 81.3294 122.945 81.1795 122.799C80.526 122.163 79.7598 121.455 79.4307 121.354C78.811 121.148 77.051 119.916 76.2239 118.89C75.7935 118.354 75.0138 117.846 74.367 117.48C73.7721 117.147 73.2921 116.936 73.2921 116.936L70.8785 121.769Z" fill="#C17174"/>
<path opacity="0.1" d="M71.7303 121.769C71.7303 121.769 71.9309 121.973 72.2419 122.282C73.1321 123.178 74.9101 124.943 75.3676 125.354C75.9828 125.907 77.3957 125.994 78.5631 125.761C79.0904 125.656 79.7191 125.206 80.251 124.74C80.4126 124.599 80.5432 124.426 80.6344 124.233C80.7255 124.04 80.7754 123.83 80.7806 123.616C80.7859 123.402 80.7466 123.19 80.6651 122.992C80.5837 122.795 80.4618 122.616 80.3073 122.468C79.798 121.982 79.2527 121.5 79.0025 121.417C78.4752 121.242 76.9743 120.191 76.2757 119.318C75.8233 118.831 75.2896 118.425 74.6983 118.119C74.1935 117.834 73.7856 117.655 73.7856 117.655L71.7303 121.769Z" fill="black"/>
<path d="M43.4709 89.1941C43.4709 89.1941 43.9442 89.7251 44.5188 90.348C45.2422 91.1344 46.1301 92.0709 46.4366 92.2793C46.9887 92.6579 48.6789 95.5033 48.6789 95.5033C48.6789 95.5033 50.4817 98.4518 52.8525 98.5885C55.2232 98.7252 55.2322 95.9828 55.0587 95.8125C54.8852 95.6423 54.6463 94.0963 54.3015 92.9649C54.0401 92.109 51.9015 90.0746 50.8783 89.1359C50.5493 88.8334 50.3352 88.6452 50.3352 88.6452L43.4709 89.1941Z" fill="#C17174"/>
<path opacity="0.1" d="M43.978 89.5884C43.978 89.5884 44.4062 90.0724 44.9313 90.6415C45.5916 91.3584 46.4006 92.2098 46.68 92.4025C47.1848 92.7475 48.724 95.342 48.724 95.342C48.724 95.342 50.3601 98.0306 52.5302 98.1538C54.7004 98.2771 54.6982 95.7789 54.5427 95.6221C54.3872 95.4652 54.1641 94.0537 53.8508 93.0276C53.6119 92.2479 51.6626 90.3928 50.7297 89.5369C50.4299 89.2613 50.2339 89.0888 50.2339 89.0888L43.978 89.5884Z" fill="black"/>
<path opacity="0.1" d="M43.4709 89.1941C43.4709 89.1941 43.9442 89.7251 44.5188 90.348C47.5476 90.7961 48.9561 90.292 48.9561 90.292C48.9561 90.292 50.3691 89.6736 50.68 89.64C50.7589 89.64 50.8153 89.4361 50.8784 89.1359C50.5493 88.8334 50.3352 88.6452 50.3352 88.6452L43.4709 89.1941Z" fill="black"/>
<path d="M47.1195 81.1037C47.1195 81.1037 45.222 82.6429 44.147 83.1941C43.0721 83.7452 42.4974 85.5556 42.4974 85.5556C42.4974 85.5556 40.8771 89.4652 44.1515 90.0119C47.426 90.5586 48.9471 90.0119 48.9471 90.0119C48.9471 90.0119 50.3601 89.3958 50.6711 89.3622C50.982 89.3285 50.9798 86.3778 52.1178 85.4861C53.2559 84.5944 55.8768 82.5735 55.8768 82.5735L47.1195 81.1037Z" fill="#5E5A6B"/>
<path opacity="0.1" d="M47.1195 81.1037C47.1195 81.1037 45.222 82.6429 44.147 83.1941C43.0721 83.7452 42.4974 85.5556 42.4974 85.5556C42.4974 85.5556 40.8771 89.4652 44.1515 90.0119C47.426 90.5586 48.9471 90.0119 48.9471 90.0119C48.9471 90.0119 50.3601 89.3958 50.6711 89.3622C50.982 89.3285 50.9798 86.3778 52.1178 85.4861C53.2559 84.5944 55.8768 82.5735 55.8768 82.5735L47.1195 81.1037Z" fill="black"/>
<path d="M64.8412 76.4054C64.8412 76.4054 66.1934 78.2359 65.7742 78.675C65.355 79.1142 64.3274 79.5936 64.3274 79.5936C64.3274 79.5936 63.7054 82.8513 62.7049 84.2225C61.7043 85.5937 59.7415 87.1038 59.7415 87.1038L61.1184 79.457L64.8412 76.4054Z" fill="#5E5A6B"/>
<path opacity="0.1" d="M59.7438 87.1038C60.3574 86.6219 60.9456 86.1089 61.5061 85.5668C61.942 85.152 62.343 84.7024 62.705 84.2225C63.7056 82.8513 64.3275 79.5936 64.3275 79.5936C64.3275 79.5936 65.3619 79.1142 65.7743 78.675C66.0267 78.4084 65.6278 77.6309 65.2763 77.0596C65.0509 76.6877 64.8436 76.4054 64.8436 76.4054L62.8898 78.0051L61.1185 79.457L60.5979 82.4189L59.7438 87.1038Z" fill="black"/>
<path opacity="0.1" d="M70.8785 121.769L71.4825 122.371C71.8633 122.371 72.4312 122.418 72.4312 122.418C72.4312 122.418 75.2234 119.091 74.7749 118.509C74.572 118.195 74.4334 117.844 74.367 117.476C73.7721 117.142 73.2921 116.932 73.2921 116.932L70.8785 121.769Z" fill="black"/>
<path d="M49.5668 86.658C49.5668 87.2405 54.2564 94.372 54.2564 94.372C54.2564 94.372 56.084 97.4572 56.4987 97.7327C56.9133 98.0083 58.2564 100.166 58.2564 100.166C58.2564 100.166 59.9466 104.04 60.2238 104.452C60.501 104.864 60.981 106.917 60.981 106.917C60.981 106.917 61.9478 109.762 62.3962 110.138C62.8447 110.515 63.0858 111.888 63.0858 111.888C63.0858 111.888 64.4988 113.945 64.7399 114.288C65.0229 114.786 65.2765 115.301 65.4993 115.829C65.4993 115.829 66.2588 117.064 66.2588 117.545C66.2588 118.027 67.8363 118.847 67.8363 118.847C67.8363 118.847 68.963 120.191 69.6278 120.416C70.2926 120.64 70.9056 122.233 71.007 122.13C71.1084 122.026 72.2848 122.13 72.2848 122.13C72.2848 122.13 75.0769 118.805 74.6285 118.222C74.18 117.64 74.0763 116.266 74.0763 116.266C74.0763 116.266 75.2031 113.696 74.5947 113.56C73.9862 113.423 71.6403 109.354 71.6403 109.354C71.6065 106.269 68.7782 103.663 68.7782 103.663C68.7782 103.663 67.363 100.303 66.9506 99.5834C66.8273 99.4009 66.7614 99.186 66.7614 98.9661C66.7614 98.7463 66.8273 98.5314 66.9506 98.3489C66.9506 98.3489 66.1574 97.7327 66.0199 97.4236C65.8824 97.1144 65.2267 94.7843 65.2267 94.7843C65.2267 94.7843 64.4334 93.3772 64.3974 92.7252C64.3613 92.0733 62.8199 90.2607 62.8199 90.2607C62.8199 90.2607 62.1934 87.2069 61.5038 86.658C61.3686 86.5504 61.3911 86.1494 61.5038 85.5668C61.8216 84.0321 62.8334 81.2584 63.532 79.4413C63.9309 78.4017 64.2261 77.6736 64.2261 77.6736L62.892 78.0052L51.5341 80.8282C51.5341 80.8282 50.9189 82.4705 50.3781 84.0187C49.9476 85.2375 49.5668 86.4003 49.5668 86.658Z" fill="#5E5A6B"/>
<path opacity="0.1" d="M71.6041 114.738C71.6041 114.738 75.1557 113.367 73.407 115.114C71.6582 116.862 68.3049 116.761 68.3049 116.761L71.6041 114.738Z" fill="black"/>
<path opacity="0.1" d="M65.5332 107.736C65.5332 107.736 63.5343 108.834 63.9129 109.896C64.2915 110.958 65.5332 107.736 65.5332 107.736Z" fill="black"/>
<path opacity="0.1" d="M63.5274 99.2405C63.3344 99.5847 63.047 99.8673 62.6987 100.055C62.3504 100.243 61.9555 100.329 61.56 100.303C60.12 100.269 63.5274 99.2405 63.5274 99.2405Z" fill="black"/>
<path opacity="0.1" d="M44.7735 83.9872C44.7735 83.9872 45.5329 86.3196 44.7735 86.4899C44.0141 86.6602 44.7735 83.9872 44.7735 83.9872Z" fill="black"/>
<path opacity="0.1" d="M64.8435 61.3582C64.866 61.5823 65.2942 62.0461 65.8756 62.595C66.2046 61.5419 66.5111 60.5785 66.3263 60.2604C66.0514 59.7809 67.1286 58.7525 66.9348 58.0669C66.7861 57.5427 68.0841 56.2141 68.7016 55.6203C68.3478 55.2708 68.1202 55.0848 68.1202 55.0848L66.5427 55.5643C66.5427 55.5643 64.7759 60.6681 64.8435 61.3582Z" fill="black"/>
<path opacity="0.1" d="M50.3757 84.0186C51.685 83.9469 54.7386 83.0059 54.7386 83.0059C54.7386 83.0059 58.2789 82.8894 60.5978 82.4189C61.7246 82.1948 62.5449 81.8745 62.5449 81.451C62.5449 80.8842 63.0114 80.1246 63.5409 79.4346C63.903 78.9786 64.2897 78.5426 64.6993 78.1283C64.9146 77.909 65.0785 77.645 65.1793 77.3554C65.2108 77.2635 65.2491 77.1604 65.2874 77.0529C65.0621 76.681 64.8548 76.3987 64.8548 76.3987L62.9009 77.9984L51.5431 80.8214C51.5431 80.8214 50.9076 82.4704 50.3757 84.0186Z" fill="black"/>
<path d="M46.6011 81.7892C46.6011 81.7892 49.1521 83.2971 49.9116 83.5704C50.671 83.8438 54.7387 82.5936 54.7387 82.5936C54.7387 82.5936 62.5337 82.3382 62.5337 81.0252C62.5337 80.0193 64.012 78.4016 64.6881 77.716C64.9039 77.4962 65.0679 77.2314 65.1681 76.9408C65.4047 76.2687 65.8825 75.0207 66.3264 74.5793C66.9484 73.9632 65.9816 70.6719 65.9816 70.6719C65.9816 70.6719 65.7743 68.3396 65.4994 67.654C65.2244 66.9684 65.4994 66.8675 65.274 66.2828C65.0081 65.6263 64.8233 65.6644 65.1591 64.1565C65.4949 62.6487 66.3309 60.7286 66.0605 60.2469C65.7901 59.7652 66.8628 58.739 66.669 58.0534C66.4752 57.3678 68.749 55.3111 68.749 55.3111C68.749 55.3111 68.465 53.0683 68.26 52.7816C68.0549 52.4948 67.2954 50.9309 67.2954 50.5881C67.2954 50.2453 66.8109 50.1759 66.536 49.7658C66.2611 49.3558 63.0768 60.3948 63.0768 60.3948L58.4368 61.4343L58.1798 61.4904C58.1798 61.4904 55.5409 61.6136 53.8283 60.6681C53.8283 60.6681 50.8693 60.1886 49.9026 55.32C49.1632 55.5046 48.4444 55.7628 47.7572 56.0908C47.0383 56.438 46.3172 56.9108 45.9025 57.5135C45.2335 58.4615 44.3929 59.2775 43.4236 59.9198C43.1256 60.6562 42.872 61.4095 42.6642 62.1759C42.4591 63.0721 42.2518 64.5083 41.6298 65.2633C41.0078 66.0184 40.7284 68.2791 40.7284 68.2791L46.9459 73.9049C46.9459 73.9049 46.8085 75.3456 46.4637 75.2761C46.1189 75.2067 46.6011 81.7892 46.6011 81.7892Z" fill="#464353"/>
<path opacity="0.1" d="M47.7662 56.3641L51.0834 63.2402C51.0834 63.2402 52.4626 64.1364 52.9471 63.6502C53.4316 63.1641 55.2569 63.1708 55.2569 63.1708L55.4981 63.6502L58.9933 62.8302L58.4457 61.71L58.1888 61.7682C58.1888 61.7682 55.5499 61.8914 53.8372 60.946C53.8372 60.946 50.8783 60.4642 49.9115 55.5956C49.1723 55.7795 48.4535 56.0369 47.7662 56.3641Z" fill="black"/>
<path d="M47.7662 56.0908L51.0834 62.9646C51.0834 62.9646 52.4626 63.8608 52.9471 63.3769C53.4316 62.8929 55.2569 62.8974 55.2569 62.8974L55.4981 63.3769L58.9933 62.5546L58.4457 61.4344L58.1888 61.4904C58.1888 61.4904 55.5499 61.6136 53.8372 60.6681C53.8372 60.6681 50.8783 60.1887 49.9115 55.3201C49.1722 55.5046 48.4534 55.7628 47.7662 56.0908Z" fill="#464353"/>
<path opacity="0.1" d="M49.222 76.0962C49.222 76.0962 56.5415 78.386 57.0846 78.675C57.6277 78.964 49.2558 76.8848 49.222 76.0962Z" fill="black"/>
<path opacity="0.1" d="M53.8372 79.5936C53.8372 79.5936 51.9127 80.6579 51.2231 80.2792C50.5335 79.9006 53.8372 79.5936 53.8372 79.5936Z" fill="black"/>
<path opacity="0.1" d="M59.8789 66.8766C59.8789 66.8766 61.7314 76.7146 58.9933 79.5936L59.8789 66.8766Z" fill="black"/>
<path opacity="0.1" d="M62.9235 52.0646C63.2661 51.6976 63.4625 51.2191 63.4762 50.7186C63.4899 50.2181 63.3199 49.7297 62.9979 49.3447C62.759 49.0758 62.4457 48.8719 62.2497 48.5695C62.1493 48.3587 62.0269 48.1589 61.8846 47.9735C61.5285 47.6105 60.9291 47.7069 60.4401 47.559C59.9511 47.4111 59.6198 47.0527 59.257 46.7278C58.6746 46.2003 58.0271 45.7486 57.3302 45.3835C56.6136 45.0116 55.8045 44.7293 55.0068 44.8592C54.3825 44.9623 53.8259 45.3073 53.2152 45.4798C52.3498 45.724 51.2839 45.6747 50.7363 46.3872C50.4772 46.7255 50.4028 47.1759 50.1572 47.5276C49.8101 48.025 49.1724 48.258 48.805 48.7487C48.4016 49.3021 48.4445 50.0616 48.618 50.7226C48.7329 51.1505 48.8952 51.5897 48.7938 52.0198C48.7442 52.2304 48.6338 52.4254 48.5909 52.6382C48.4783 53.1938 48.8388 53.7204 49.08 54.2357C49.3395 54.7933 49.4675 55.4026 49.454 56.0169C49.4371 56.1546 49.4565 56.2944 49.5104 56.4224C49.5786 56.5252 49.6726 56.6086 49.7831 56.6644L50.8197 57.3141C50.8685 57.3485 50.9236 57.3728 50.9819 57.3858C51.1848 57.4172 51.3087 57.1864 51.4327 57.0318C51.7797 56.6196 52.44 56.6509 52.929 56.8839C53.418 57.117 53.8192 57.5001 54.3104 57.7219C55.462 58.2439 56.7893 57.7801 58.0355 57.5404C58.4623 57.4793 58.8835 57.3849 59.2953 57.2581C59.6835 57.1015 60.0537 56.904 60.3995 56.6689C60.7503 56.4726 61.0688 56.224 61.3438 55.9317C61.4928 55.7708 61.5994 55.5757 61.6541 55.3638C61.7087 55.1518 61.7097 54.9298 61.657 54.7174C61.5556 54.3567 61.2311 54.0318 61.2964 53.6307C61.4271 52.9362 62.4705 52.5217 62.9235 52.0646Z" fill="black"/>
<path d="M62.9235 51.7913C63.2662 51.4239 63.4628 50.9451 63.4765 50.4441C63.4901 49.9432 63.32 49.4545 62.9979 49.0691C62.759 48.8025 62.4457 48.5964 62.2497 48.2961C62.1488 48.0849 62.0265 47.8844 61.8846 47.6979C61.5285 47.3372 60.9291 47.4335 60.4401 47.2857C59.9511 47.1378 59.6198 46.7771 59.257 46.4522C58.6752 45.9239 58.0277 45.4721 57.3302 45.1079C56.6136 44.736 55.8045 44.4537 55.0068 44.5836C54.3825 44.6867 53.8259 45.0317 53.2152 45.2042C52.3498 45.4485 51.2839 45.3969 50.7363 46.1004C50.4772 46.441 50.4028 46.8913 50.1572 47.2431C49.8101 47.7405 49.1724 47.9735 48.805 48.4642C48.4016 49.0176 48.4445 49.7771 48.618 50.4381C48.7329 50.8637 48.8952 51.3051 48.7938 51.7353C48.7442 51.9459 48.6338 52.1408 48.5909 52.3537C48.4783 52.9093 48.8388 53.4358 49.08 53.9489C49.3475 54.5138 49.4794 55.1328 49.4653 55.757C49.4484 55.8955 49.4678 56.0359 49.5217 56.1648C49.5912 56.2665 49.6848 56.3496 49.7943 56.4067L50.831 57.0542C50.8795 57.0894 50.9347 57.1145 50.9932 57.1282C51.196 57.1573 51.32 56.9288 51.4439 56.7719C51.791 56.3597 52.4513 56.3933 52.9403 56.6241C53.4293 56.8548 53.8304 57.2402 54.3217 57.462C55.4733 57.984 56.8006 57.5203 58.0468 57.2828C58.4734 57.2198 58.8945 57.1247 59.3065 56.9982C59.6947 56.8423 60.0649 56.6455 60.4108 56.4112C60.7617 56.2141 61.0801 55.9648 61.355 55.6718C61.504 55.5114 61.6107 55.3166 61.6653 55.1051C61.72 54.8935 61.721 54.6718 61.6683 54.4597C61.5668 54.0968 61.2423 53.7719 61.3077 53.3731C61.4271 52.6606 62.4705 52.2461 62.9235 51.7913Z" fill="#464353"/>
<path d="M39.3943 75.377C39.3582 76.3023 40.1515 77.5368 40.1515 77.5368C40.3926 78.1193 43.3582 80.8281 43.3582 80.8281L45.7042 82.3965C45.7042 82.3965 48.8434 84.3166 49.5848 84.6594C49.9566 84.8319 50.3555 85.5556 50.6643 86.2636C50.973 86.9715 51.1871 87.6078 51.1871 87.6078C51.8666 87.5086 52.4935 87.1867 52.9682 86.6932C53.443 86.1997 53.7385 85.5628 53.808 84.8834C53.8958 84.0007 53.9544 83.2075 53.8778 83.1918C53.7043 83.1582 51.773 81.7176 51.773 81.7176C51.773 81.7176 49.533 80.2769 48.8073 78.8385C48.0817 77.4001 45.2557 75.2045 45.2557 75.2045L45.3008 75.1216L45.4631 74.8258L45.8079 73.6944L40.3993 71.2948C40.3993 71.2948 40.2664 71.7317 40.0951 72.3299C39.8022 73.3381 39.4145 74.8012 39.3943 75.377Z" fill="#ECB4B6"/>
<path opacity="0.1" d="M40.0906 72.3366C41.1126 73.337 42.2053 74.2632 43.3605 75.1081C43.6963 75.303 44.8727 75.182 45.3031 75.1283L45.4654 74.8325L45.8101 73.7011L40.4016 71.3015C40.4016 71.3015 40.2597 71.7339 40.0906 72.3366Z" fill="black"/>
<path d="M45.4631 68.176C45.4631 68.176 48.2214 69.8228 48.0839 70.542C47.9465 71.2612 46.7769 73.7481 46.7769 73.7481L45.4631 74.828C45.4631 74.828 43.7729 75.0678 43.3583 74.828C42.9436 74.5883 40.014 72.1887 39.9103 71.8123C39.8067 71.4359 39.9103 70.1656 39.9103 69.8922C39.9103 69.6189 40.7374 68.2791 40.7374 68.2791L41.9453 66.1551L45.4631 68.176Z" fill="#464353"/>
<path opacity="0.1" d="M54.7387 82.9992L55.55 85.1658L54.1821 86.4518L54.119 86.8394L51.0835 88.5758L50.119 86.1538L54.7387 82.9992Z" fill="black"/>
<path d="M54.7387 82.8625L55.55 85.0269L54.1821 86.3152L54.119 86.7028L51.0835 88.4391L50.119 86.0172L54.7387 82.8625Z" fill="#5E5A6B"/>
<g opacity="0.1">
<path opacity="0.1" d="M61.3595 53.2029C61.3116 53.0795 61.2961 52.9462 61.3144 52.8153C61.4271 52.114 62.4705 51.695 62.9234 51.2469C63.2189 50.9409 63.4064 50.5478 63.4575 50.1266C63.501 50.4283 63.4756 50.7358 63.3832 51.0263C63.2907 51.3169 63.1336 51.5829 62.9234 51.8048C62.5065 52.2103 61.5916 52.5957 61.3595 53.2029Z" fill="black"/>
<path opacity="0.1" d="M48.6157 52.3245C48.7354 52.7045 48.8947 53.0709 49.0912 53.4179C49.3515 53.9754 49.4803 54.5846 49.4675 55.1991C49.4497 55.3374 49.4684 55.4779 49.5216 55.6069C49.591 55.7087 49.6847 55.7918 49.7943 55.8488L50.8309 56.4963C50.8797 56.5326 50.9358 56.5579 50.9955 56.5703C51.196 56.5994 51.32 56.3709 51.4462 56.2163C51.7932 55.804 52.4558 55.8354 52.9425 56.0662C53.4293 56.2969 53.8327 56.6823 54.3239 56.9063C55.4778 57.4261 56.8028 56.9646 58.0491 56.7249C58.4758 56.663 58.897 56.5678 59.3088 56.4403C59.6972 56.285 60.0674 56.0882 60.413 55.8533C60.7647 55.6565 61.0839 55.4071 61.3595 55.1139C61.514 54.9351 61.6237 54.7224 61.6795 54.4933C61.7231 54.6995 61.7168 54.9131 61.6612 55.1164C61.6056 55.3197 61.5022 55.507 61.3595 55.6629C61.0833 55.9553 60.7642 56.2046 60.413 56.4022C60.0674 56.6371 59.6972 56.8339 59.3088 56.9892C58.8967 57.1157 58.4756 57.2108 58.0491 57.2738C56.8051 57.5113 55.4778 57.9751 54.3239 57.453C53.8327 57.229 53.4225 56.8481 52.9425 56.6151C52.4625 56.3821 51.7932 56.3507 51.4462 56.7629C51.3155 56.9198 51.1915 57.1483 50.9955 57.1192C50.9362 57.1058 50.8802 57.0807 50.8309 57.0453L49.7943 56.3977C49.6857 56.3394 49.5923 56.2565 49.5216 56.1558C49.4686 56.0268 49.4499 55.8863 49.4675 55.748C49.4803 55.1335 49.3515 54.5243 49.0912 53.9668C48.8501 53.4537 48.4895 52.9272 48.6022 52.3716C48.6056 52.3556 48.6102 52.3399 48.6157 52.3245Z" fill="black"/>
<path opacity="0.1" d="M48.6315 49.9071C48.7419 50.3238 48.8997 50.7562 48.8118 51.1774C48.7712 50.9354 48.6946 50.6935 48.6315 50.456C48.5236 50.0791 48.4854 49.6859 48.5188 49.2954C48.5389 49.5021 48.5766 49.7067 48.6315 49.9071Z" fill="black"/>
</g>
<path opacity="0.1" d="M4.87442 34.6739C7.56649 34.6739 9.74884 32.5042 9.74884 29.8277C9.74884 27.1512 7.56649 24.9815 4.87442 24.9815C2.18235 24.9815 0 27.1512 0 29.8277C0 32.5042 2.18235 34.6739 4.87442 34.6739Z" fill="#FFC107"/>
<path opacity="0.1" d="M137.182 14.254C139.875 14.254 142.057 12.0843 142.057 9.40784C142.057 6.73136 139.875 4.56165 137.182 4.56165C134.49 4.56165 132.308 6.73136 132.308 9.40784C132.308 12.0843 134.49 14.254 137.182 14.254Z" fill="#FFC107"/>
<path opacity="0.1" d="M214.513 33.399C217.205 33.399 219.387 31.2293 219.387 28.5529C219.387 25.8764 217.205 23.7067 214.513 23.7067C211.821 23.7067 209.638 25.8764 209.638 28.5529C209.638 31.2293 211.821 33.399 214.513 33.399Z" fill="#FFC107"/>
<path opacity="0.1" d="M14.621 64.6854C19.1327 64.6854 22.7901 61.0491 22.7901 56.5636C22.7901 52.078 19.1327 48.4418 14.621 48.4418C10.1093 48.4418 6.4519 52.078 6.4519 56.5636C6.4519 61.0491 10.1093 64.6854 14.621 64.6854Z" fill="#FFC107"/>
<path opacity="0.1" d="M114.399 185.002C118.911 185.002 122.568 181.366 122.568 176.88C122.568 172.395 118.911 168.759 114.399 168.759C109.887 168.759 106.23 172.395 106.23 176.88C106.23 181.366 109.887 185.002 114.399 185.002Z" fill="#FFC107"/>
<path opacity="0.1" d="M223.225 180.32C227.737 180.32 231.394 176.683 231.394 172.198C231.394 167.712 227.737 164.076 223.225 164.076C218.713 164.076 215.056 167.712 215.056 172.198C215.056 176.683 218.713 180.32 223.225 180.32Z" fill="#FFC107"/>
</g>
<defs>
<linearGradient id="paint0_linear_26_120" x1="60.519" y1="126.908" x2="60.519" y2="43.5329" gradientUnits="userSpaceOnUse">
<stop stop-color="#808080" stop-opacity="0.25"/>
<stop offset="0.54" stop-color="#808080" stop-opacity="0.12"/>
<stop offset="1" stop-color="#808080" stop-opacity="0.1"/>
</linearGradient>
<clipPath id="clip0_26_120">
<rect width="251" height="185" fill="white"/>
</clipPath>
</defs>
</svg>
