<svg width="223" height="153" viewBox="0 0 223 153" fill="none" xmlns="http://www.w3.org/2000/svg">
<g clip-path="url(#clip0_26_63)">
<path d="M218.171 54.0459C218.171 53.2656 217.965 52.499 217.574 51.8233C217.184 51.1476 216.622 50.5864 215.945 50.1963V37.7034H215.864V37.659H206.258L105.355 11.7684L0 41.4092V46.5951L50.4241 65.6024L47.4859 116.243C74.3124 123.872 95.43 126.639 112.017 126.511H112.386H112.892C161.669 125.852 170.727 99.9532 170.727 99.9532C168.085 86.226 168.454 70.995 168.894 63.3743L212.944 43.6426L212.318 39.8976H212.983V49.6628C212.051 49.8201 211.192 50.27 210.533 50.9473C209.874 51.6245 209.447 52.4938 209.316 53.4293C209.185 54.3647 209.355 55.3176 209.803 56.1498C210.25 56.982 210.951 57.6502 211.805 58.0576L208.531 65.9032C208.874 66.3368 209.335 66.6612 209.859 66.8368L201.112 90.3554C202.05 91.1062 203.055 91.7698 204.114 92.3377L205.525 93.2766L205.559 93.0438C207.947 94.0899 210.956 94.7489 213.677 93.4622L214.416 93.2766L214.298 93.1301C214.899 92.7667 215.451 92.3272 215.94 91.8225L215.199 66.6302L214.565 58.3976C215.578 58.2018 216.491 57.6608 217.149 56.8671C217.807 56.0733 218.168 55.0761 218.171 54.0459Z" fill="url(#paint0_linear_26_63)"/>
<path d="M169.038 99.1373C169.038 99.1373 153.142 144.597 49.099 115.012L51.9954 65.2233L132.197 53.6771L167.603 58.7271C167.603 58.7271 165.424 80.3758 169.038 99.1373Z" fill="#FFC107"/>
<path opacity="0.15" d="M51.9823 65.2233V69.5514L111.954 90.4783L164.701 68.1104L165.424 63.7797L111.954 83.2629L51.9823 65.2233Z" fill="black"/>
<path opacity="0.15" d="M167.674 58.7297L132.268 53.6797L131.108 53.8471L165.343 58.7323C165.343 58.7323 163.175 80.3783 166.788 99.1398C166.788 99.1398 157.885 124.609 109.765 125.012C159.922 125.428 169.117 99.1398 169.117 99.1398C165.505 80.3757 167.674 58.7297 167.674 58.7297Z" fill="black"/>
<path d="M213.154 38.5245H210.262V51.5535H213.154V38.5245Z" fill="#FFC107"/>
<path opacity="0.1" d="M213.154 38.5245H210.262V51.5535H213.154V38.5245Z" fill="black"/>
<path d="M198.703 89.7957C198.703 89.7957 207.374 97.0921 213.153 91.2393L212.431 66.706L208.097 64.5406L198.703 89.7957Z" fill="#FFC107"/>
<path opacity="0.1" d="M198.703 89.7957C198.703 89.7957 207.374 97.0921 213.153 91.2393L212.431 66.706L208.097 64.5406L198.703 89.7957Z" fill="black"/>
<path d="M2.84921 42.1336V47.1836L111.954 88.3129L210.221 44.299L209.5 39.9682L111.232 83.263L2.84921 42.1336Z" fill="#FFC107"/>
<path opacity="0.07" d="M2.84921 42.1336V47.1836L111.954 88.3129L210.221 44.299L209.5 39.9682L111.232 83.263L2.84921 42.1336Z" fill="black"/>
<path d="M2.84921 42.1336L111.755 84.3091L209.5 39.9682L105.452 13.2696L2.84921 42.1336Z" fill="#FFC107"/>
<path d="M107.599 42.8162C111.578 42.8162 114.804 40.725 114.804 38.1454C114.804 35.5658 111.578 33.4747 107.599 33.4747C103.621 33.4747 100.395 35.5658 100.395 38.1454C100.395 40.725 103.621 42.8162 107.599 42.8162Z" fill="#FFC107"/>
<path opacity="0.1" d="M107.599 42.8162C111.578 42.8162 114.804 40.725 114.804 38.1454C114.804 35.5658 111.578 33.4747 107.599 33.4747C103.621 33.4747 100.395 35.5658 100.395 38.1454C100.395 40.725 103.621 42.8162 107.599 42.8162Z" fill="black"/>
<path d="M213.072 38.4854H112.638V40.6507H213.072V38.4854Z" fill="#FFC107"/>
<path opacity="0.1" d="M213.072 38.4854H112.638V40.6507H213.072V38.4854Z" fill="black"/>
<path d="M210.985 58.7689C213.379 58.7689 215.319 56.8311 215.319 54.4407C215.319 52.0503 213.379 50.1125 210.985 50.1125C208.592 50.1125 206.651 52.0503 206.651 54.4407C206.651 56.8311 208.592 58.7689 210.985 58.7689Z" fill="#FFC107"/>
<path opacity="0.1" d="M210.985 58.7689C213.379 58.7689 215.319 56.8311 215.319 54.4407C215.319 52.0503 213.379 50.1125 210.985 50.1125C208.592 50.1125 206.651 52.0503 206.651 54.4407C206.651 56.8311 208.592 58.7689 210.985 58.7689Z" fill="black"/>
<path d="M205.928 65.9843C205.928 65.9843 207.374 68.2282 212.431 66.7061L211.708 57.3254H209.54L205.928 65.9843Z" fill="#FFC107"/>
<path opacity="0.1" d="M205.928 65.9843C205.928 65.9843 207.374 68.2282 212.431 66.7061L211.708 57.3254H209.54L205.928 65.9843Z" fill="black"/>
<path opacity="0.2" d="M200.83 91.2001L203.718 87.5911L202.995 92.6437L200.83 91.2001Z" fill="white"/>
<path opacity="0.2" d="M208.778 89.0347V93.3655L211.666 92.6437L208.778 89.0347Z" fill="white"/>
<path opacity="0.15" d="M63.5441 91.2001C63.5441 91.2001 85.2195 98.4155 98.2268 94.0768L63.5441 91.2001Z" fill="black"/>
<path opacity="0.15" d="M122.497 96.2396C122.497 96.2396 145.302 97.6675 156.764 90.1566L122.497 96.2396Z" fill="black"/>
<path opacity="0.15" d="M138.152 113.369C138.152 113.369 151.411 108.358 158.207 103.248L138.152 113.369Z" fill="black"/>
<path opacity="0.15" d="M57.7567 102.024C57.7567 102.024 80.8855 111.408 86.6677 107.796L57.7567 102.024Z" fill="black"/>
<path d="M10.2101 94.875C12.0553 90.1536 12.9766 86.1023 12.2679 85.8261C11.5592 85.5499 9.48888 89.1534 7.64371 93.8747C5.79854 98.5961 4.87724 102.647 5.58593 102.924C6.29462 103.2 8.36494 99.5963 10.2101 94.875Z" fill="#E0E0E0"/>
<path d="M129.223 141.316C131.068 136.595 132.173 132.615 131.691 132.427C131.208 132.239 129.322 135.914 127.477 140.635C125.631 145.357 124.527 149.337 125.009 149.525C125.491 149.713 127.378 146.038 129.223 141.316Z" fill="#E0E0E0"/>
<path d="M65.9417 123.886L61.3954 120.768L50.9896 135.9L55.5358 139.018L65.9417 123.886Z" fill="#F55F44"/>
<path opacity="0.05" d="M57.535 139.977L63.676 140.857L66.2849 122.686L60.1439 121.807L57.535 139.977Z" fill="black"/>
<path d="M57.8755 140.247L63.3354 141.018L65.9088 122.846L60.4489 122.075L57.8755 140.247Z" fill="#F55F44"/>
<path d="M12.4321 85.3968L5.41504 103.352L124.847 149.901L131.865 131.946L12.4321 85.3968Z" fill="url(#paint1_linear_26_63)"/>
<path d="M125.017 149.485C122.683 148.612 3.87315 102.262 5.58581 102.935C11.0485 92.7352 12.2689 85.8363 12.2689 85.8363L131.7 132.387C131.7 132.387 128.309 139.783 125.017 149.485Z" fill="#F5F5F5"/>
<path opacity="0.05" d="M74.7317 109.397L64.9023 105.597L58.2851 122.668L68.1146 126.468L74.7317 109.397Z" fill="black"/>
<path d="M73.9178 109.857L64.9281 106.353L58.2452 123.453L67.2349 126.957L73.9178 109.857Z" fill="#F55F44"/>
<path opacity="0.05" d="M72.2058 109.191L66.2119 106.854L59.529 123.954L65.5229 126.291L72.2058 109.191Z" fill="black"/>
<path d="M71.7789 109.024L66.6412 107.022L59.9583 124.122L65.096 126.124L71.7789 109.024Z" fill="#F55F44"/>
<path d="M83.1424 148.246C83.5661 148.24 83.9045 147.892 83.8981 147.469C83.8917 147.045 83.5431 146.708 83.1194 146.714C82.6957 146.72 82.3573 147.068 82.3637 147.492C82.37 147.915 82.7187 148.253 83.1424 148.246Z" fill="#DBDBDB"/>
<g opacity="0.5">
<path opacity="0.5" d="M23.1891 126.053H22.4034V130.499H23.1891V126.053Z" fill="#47E6B1"/>
<path opacity="0.5" d="M25.0222 128.668V127.884H20.5703V128.668H25.0222Z" fill="#47E6B1"/>
</g>
<g opacity="0.5">
<path opacity="0.5" d="M221.167 70.6105H220.381V75.0564H221.167V70.6105Z" fill="#47E6B1"/>
<path opacity="0.5" d="M223 73.2257V72.4412H218.548V73.2257H223Z" fill="#47E6B1"/>
</g>
<g opacity="0.5">
<path opacity="0.5" d="M27.9029 15.4297H27.1172V19.8755H27.9029V15.4297Z" fill="#47E6B1"/>
<path opacity="0.5" d="M29.736 18.0449V17.2603H25.2841V18.0449H29.736Z" fill="#47E6B1"/>
</g>
<g opacity="0.5">
<path opacity="0.5" d="M197.598 8.63019H196.812V13.076H197.598V8.63019Z" fill="#47E6B1"/>
<path opacity="0.5" d="M199.431 11.2454V10.4608H194.979V11.2454H199.431Z" fill="#47E6B1"/>
</g>
<path opacity="0.5" d="M17.9254 66.2849C17.711 66.1888 17.5394 66.0176 17.4429 65.8036C17.3464 65.5897 17.3317 65.3478 17.4016 65.1238C17.4128 65.089 17.4199 65.053 17.4226 65.0166C17.4293 64.9131 17.4023 64.8102 17.3457 64.7232C17.289 64.6363 17.2058 64.57 17.1084 64.5341C17.0109 64.4982 16.9045 64.4948 16.8049 64.5242C16.7053 64.5536 16.6179 64.6144 16.5558 64.6975C16.5347 64.7268 16.5171 64.7583 16.5034 64.7917C16.4071 65.0057 16.2357 65.1771 16.0214 65.2735C15.8072 65.3699 15.565 65.3845 15.3407 65.3147C15.3058 65.3035 15.2698 65.2965 15.2333 65.2938C15.1297 65.2871 15.0266 65.314 14.9396 65.3706C14.8525 65.4271 14.7861 65.5102 14.7502 65.6076C14.7142 65.7049 14.7108 65.8112 14.7403 65.9106C14.7697 66.0101 14.8306 66.0973 14.9138 66.1594C14.9431 66.1805 14.9747 66.198 15.0081 66.2117C15.2224 66.3079 15.3941 66.4791 15.4906 66.693C15.5871 66.907 15.6018 67.1488 15.5318 67.3729C15.5206 67.4077 15.5136 67.4436 15.5109 67.4801C15.4999 67.5854 15.5241 67.6915 15.5796 67.7817C15.6351 67.872 15.7189 67.9414 15.818 67.9793C15.9171 68.0171 16.0259 68.0213 16.1275 67.9911C16.2292 67.9609 16.3181 67.898 16.3803 67.8122C16.4014 67.783 16.419 67.7514 16.4327 67.7181C16.529 67.504 16.7004 67.3326 16.9147 67.2362C17.1289 67.1399 17.3711 67.1252 17.5954 67.195C17.6302 67.2062 17.6663 67.2132 17.7028 67.216C17.8064 67.2226 17.9094 67.1957 17.9965 67.1391C18.0836 67.0826 18.15 66.9995 18.1859 66.9022C18.2218 66.8049 18.2253 66.6986 18.1958 66.5991C18.1663 66.4997 18.1055 66.4124 18.0223 66.3503C17.9929 66.3245 17.9603 66.3026 17.9254 66.2849Z" fill="#4D8AF0"/>
<path opacity="0.5" d="M62.9679 14.7654C62.7536 14.6693 62.5819 14.498 62.4854 14.2841C62.3889 14.0701 62.3743 13.8283 62.4442 13.6043C62.4554 13.5695 62.4624 13.5335 62.4651 13.497C62.4718 13.3935 62.4448 13.2907 62.3882 13.2037C62.3316 13.1168 62.2484 13.0504 62.1509 13.0146C62.0535 12.9787 61.947 12.9752 61.8475 13.0047C61.7479 13.0341 61.6605 13.0949 61.5983 13.178C61.5773 13.2072 61.5597 13.2388 61.546 13.2721C61.4497 13.4862 61.2782 13.6576 61.064 13.754C60.8497 13.8503 60.6076 13.865 60.3832 13.7952C60.3484 13.784 60.3124 13.777 60.2759 13.7742C60.1722 13.7676 60.0692 13.7945 59.9821 13.8511C59.8951 13.9076 59.8286 13.9907 59.7927 14.088C59.7568 14.1853 59.7533 14.2916 59.7828 14.3911C59.8123 14.4905 59.8732 14.5778 59.9564 14.6399C59.9857 14.6609 60.0173 14.6785 60.0507 14.6922C60.265 14.7883 60.4366 14.9596 60.5331 15.1735C60.6297 15.3875 60.6443 15.6293 60.5744 15.8533C60.5632 15.8881 60.5562 15.9241 60.5534 15.9606C60.5425 16.0659 60.5666 16.172 60.6222 16.2622C60.6777 16.3525 60.7615 16.4219 60.8606 16.4597C60.9596 16.4976 61.0684 16.5017 61.1701 16.4715C61.2718 16.4413 61.3606 16.3785 61.4229 16.2927C61.4439 16.2634 61.4615 16.2319 61.4752 16.1985C61.5715 15.9845 61.743 15.8131 61.9572 15.7167C62.1715 15.6203 62.4136 15.6057 62.638 15.6755C62.6728 15.6867 62.7088 15.6937 62.7453 15.6964C62.849 15.7031 62.952 15.6762 63.0391 15.6196C63.1261 15.5631 63.1926 15.4799 63.2285 15.3826C63.2644 15.2853 63.2679 15.179 63.2384 15.0796C63.2089 14.9801 63.148 14.8929 63.0648 14.8308C63.0354 14.805 63.0029 14.783 62.9679 14.7654Z" fill="#4D8AF0"/>
<path opacity="0.5" d="M74.7523 151.279C74.538 151.183 74.3664 151.012 74.2698 150.798C74.1733 150.584 74.1587 150.342 74.2286 150.118C74.2398 150.083 74.2468 150.047 74.2495 150.011C74.2562 149.907 74.2293 149.804 74.1726 149.717C74.116 149.631 74.0328 149.564 73.9353 149.528C73.8379 149.492 73.7315 149.489 73.6319 149.518C73.5323 149.548 73.4449 149.609 73.3827 149.692C73.3617 149.721 73.3441 149.753 73.3304 149.786C73.2341 150 73.0626 150.171 72.8484 150.268C72.6341 150.364 72.392 150.379 72.1676 150.309C72.1328 150.298 72.0967 150.291 72.0603 150.288C71.9566 150.281 71.8536 150.308 71.7665 150.365C71.6795 150.421 71.613 150.504 71.5771 150.602C71.5412 150.699 71.5377 150.805 71.5672 150.905C71.5967 151.004 71.6576 151.092 71.7408 151.154C71.77 151.175 71.8017 151.192 71.835 151.206C72.0494 151.302 72.221 151.473 72.3175 151.687C72.4141 151.901 72.4287 152.143 72.3588 152.367C72.3476 152.402 72.3406 152.438 72.3378 152.474C72.3269 152.58 72.351 152.686 72.4066 152.776C72.4621 152.866 72.5459 152.936 72.645 152.973C72.744 153.011 72.8528 153.015 72.9545 152.985C73.0562 152.955 73.145 152.892 73.2073 152.806C73.2283 152.777 73.2459 152.746 73.2597 152.712C73.3559 152.498 73.5274 152.327 73.7416 152.23C73.9559 152.134 74.1981 152.119 74.4224 152.189C74.4572 152.2 74.4933 152.207 74.5298 152.21C74.6334 152.217 74.7364 152.19 74.8235 152.133C74.9105 152.077 74.977 151.994 75.0129 151.896C75.0488 151.799 75.0523 151.693 75.0228 151.593C74.9933 151.494 74.9324 151.407 74.8492 151.345C74.8198 151.319 74.7873 151.297 74.7523 151.279Z" fill="#4D8AF0"/>
<path opacity="0.5" d="M213.572 117.684C214.44 117.684 215.144 116.982 215.144 116.115C215.144 115.249 214.44 114.546 213.572 114.546C212.705 114.546 212.001 115.249 212.001 116.115C212.001 116.982 212.705 117.684 213.572 117.684Z" fill="#F55F44"/>
<path opacity="0.5" d="M144.437 151.682C145.305 151.682 146.009 150.979 146.009 150.113C146.009 149.246 145.305 148.544 144.437 148.544C143.57 148.544 142.866 149.246 142.866 150.113C142.866 150.979 143.57 151.682 144.437 151.682Z" fill="#4D8AF0"/>
<path opacity="0.5" d="M171.149 122.653C172.016 122.653 172.72 121.951 172.72 121.084C172.72 120.217 172.016 119.515 171.149 119.515C170.281 119.515 169.577 120.217 169.577 121.084C169.577 121.951 170.281 122.653 171.149 122.653Z" fill="#47E6B1"/>
<path opacity="0.5" d="M122.44 3.13825C123.308 3.13825 124.011 2.43573 124.011 1.56912C124.011 0.702521 123.308 0 122.44 0C121.572 0 120.869 0.702521 120.869 1.56912C120.869 2.43573 121.572 3.13825 122.44 3.13825Z" fill="#F55F44"/>
</g>
<defs>
<linearGradient id="paint0_linear_26_63" x1="109.087" y1="126.513" x2="109.087" y2="11.771" gradientUnits="userSpaceOnUse">
<stop stop-color="#808080" stop-opacity="0.25"/>
<stop offset="0.54" stop-color="#808080" stop-opacity="0.12"/>
<stop offset="1" stop-color="#808080" stop-opacity="0.1"/>
</linearGradient>
<linearGradient id="paint1_linear_26_63" x1="-141415" y1="330364" x2="-137988" y2="321571" gradientUnits="userSpaceOnUse">
<stop stop-color="#808080" stop-opacity="0.25"/>
<stop offset="0.54" stop-color="#808080" stop-opacity="0.12"/>
<stop offset="1" stop-color="#808080" stop-opacity="0.1"/>
</linearGradient>
<clipPath id="clip0_26_63">
<rect width="223" height="153" fill="white"/>
</clipPath>
</defs>
</svg>
