<svg width="252" height="208" viewBox="0 0 252 208" fill="none" xmlns="http://www.w3.org/2000/svg">
<g clip-path="url(#clip0_26_6)">
<g opacity="0.7">
<path opacity="0.7" d="M232.653 79.1753V76.1451H217.563V90.1532C217.563 90.9362 217.873 91.6871 218.425 92.2408C218.977 92.7944 219.725 93.1055 220.505 93.1055H229.711C230.491 93.1055 231.239 92.7944 231.791 92.2408C232.343 91.6871 232.653 90.9362 232.653 90.1532V87.0425C233.693 87.0425 234.692 86.6276 235.427 85.8891C236.163 85.1506 236.577 84.1491 236.577 83.1047C236.577 82.0603 236.163 81.0588 235.427 80.3203C234.692 79.5818 233.693 79.1669 232.653 79.1669V79.1753ZM232.653 85.5357V80.6876C232.977 80.6765 233.299 80.731 233.602 80.8478C233.904 80.9646 234.18 81.1413 234.413 81.3674C234.646 81.5934 234.832 81.8642 234.958 82.1637C235.085 82.4631 235.15 82.785 235.15 83.1103C235.15 83.4355 235.085 83.7574 234.958 84.0569C234.832 84.3563 234.646 84.6271 234.413 84.8531C234.18 85.0792 233.904 85.2559 233.602 85.3727C233.299 85.4895 232.977 85.544 232.653 85.533V85.5357Z" fill="url(#paint0_linear_26_6)"/>
</g>
<path d="M232.179 79.6478C231.471 79.6478 230.778 79.8586 230.189 80.2535C229.6 80.6485 229.141 81.2099 228.87 81.8667C228.599 82.5235 228.528 83.2462 228.666 83.9435C228.804 84.6407 229.145 85.2812 229.646 85.7839C230.147 86.2866 230.785 86.6289 231.48 86.7676C232.175 86.9063 232.895 86.8351 233.55 86.563C234.204 86.291 234.764 85.8303 235.157 85.2392C235.551 84.6481 235.761 83.9531 235.761 83.2422C235.761 82.2889 235.384 81.3746 234.712 80.7006C234.04 80.0265 233.129 79.6478 232.179 79.6478ZM232.179 85.455C231.741 85.455 231.312 85.3246 230.948 85.0802C230.583 84.8359 230.299 84.4885 230.132 84.0822C229.964 83.6758 229.92 83.2286 230.005 82.7972C230.091 82.3658 230.302 81.9696 230.612 81.6585C230.922 81.3475 231.317 81.1357 231.747 81.0499C232.177 80.9641 232.622 81.0081 233.027 81.1764C233.432 81.3448 233.778 81.6298 234.022 81.9955C234.265 82.3613 234.395 82.7912 234.395 83.2311C234.395 83.8209 234.162 84.3866 233.746 84.8037C233.33 85.2207 232.767 85.455 232.179 85.455Z" fill="#FFC107"/>
<path opacity="0.1" d="M232.179 79.6478C231.471 79.6478 230.778 79.8586 230.189 80.2535C229.6 80.6485 229.141 81.2099 228.87 81.8667C228.599 82.5235 228.528 83.2462 228.666 83.9435C228.804 84.6407 229.145 85.2812 229.646 85.7839C230.147 86.2866 230.785 86.6289 231.48 86.7676C232.175 86.9063 232.895 86.8351 233.55 86.563C234.204 86.291 234.764 85.8303 235.157 85.2392C235.551 84.6481 235.761 83.9531 235.761 83.2422C235.761 82.2889 235.384 81.3746 234.712 80.7006C234.04 80.0265 233.129 79.6478 232.179 79.6478ZM232.179 85.455C231.741 85.455 231.312 85.3246 230.948 85.0802C230.583 84.8359 230.299 84.4885 230.132 84.0822C229.964 83.6758 229.92 83.2286 230.005 82.7972C230.091 82.3658 230.302 81.9696 230.612 81.6585C230.922 81.3475 231.317 81.1357 231.747 81.0499C232.177 80.9641 232.622 81.0081 233.027 81.1764C233.432 81.3448 233.778 81.6298 234.022 81.9955C234.265 82.3613 234.395 82.7912 234.395 83.2311C234.395 83.8209 234.162 84.3866 233.746 84.8037C233.33 85.2207 232.767 85.455 232.179 85.455Z" fill="black"/>
<path d="M218.389 76.8818H232.168V89.6695C232.168 90.3883 231.883 91.0777 231.377 91.586C230.87 92.0943 230.183 92.3799 229.467 92.3799H221.09C220.373 92.3799 219.686 92.0943 219.18 91.586C218.673 91.0777 218.389 90.3883 218.389 89.6695V76.8818Z" fill="#FFC107"/>
<path opacity="0.1" d="M229.686 76.8818V89.6695C229.686 90.0236 229.616 90.3742 229.481 90.7014C229.346 91.0285 229.148 91.3258 228.899 91.5762C228.649 91.8266 228.353 92.0252 228.027 92.1607C227.701 92.2962 227.352 92.366 226.999 92.366H228.384C229.096 92.366 229.78 92.0819 230.284 91.5762C230.788 91.0705 231.071 90.3846 231.071 89.6695V76.8818H229.686Z" fill="black"/>
<path d="M221.098 66.5738C220.98 66.5775 220.864 66.6073 220.759 66.6611C220.653 66.7149 220.561 66.7914 220.489 66.8851C220.309 67.2132 220.635 67.5857 220.935 67.8108C221.489 68.2278 222.068 68.6448 222.444 69.2203C222.821 69.7957 222.937 70.6102 222.527 71.1662C221.993 71.8946 220.713 72.053 220.588 72.9482C220.508 73.5236 221.004 74.0157 221.508 74.3048C222.749 75.0192 224.35 75.2083 225.248 76.3258C225.619 75.5585 226.453 75.1137 227.281 74.9358C228.11 74.7579 228.971 74.7607 229.813 74.6328C229.952 74.6303 230.088 74.5947 230.21 74.5289C230.333 74.4632 230.438 74.3692 230.517 74.2547C230.752 73.7766 230.082 73.2011 230.315 72.723C230.492 72.356 231.007 72.3866 231.384 72.2393C231.999 72.0002 232.251 71.2079 232.077 70.5713C231.902 69.9347 231.409 69.4343 230.891 69.0257C229.506 67.9137 227.816 67.2771 226.118 66.8017C225.328 66.5849 224.4 66.2457 223.58 66.2124C222.76 66.179 221.89 66.4403 221.098 66.5738Z" fill="#EEEEEE"/>
<path d="M124.4 95.6352L95.5897 185.705" stroke="#E0E0E0" stroke-width="8" stroke-miterlimit="10"/>
<g opacity="0.7">
<path opacity="0.7" d="M146.723 195.849C143.18 196.055 140.022 199.035 140.022 199.035L138.495 195.235L138.371 195.276C139.116 192.002 154.291 124.466 139.099 118.645C127.428 114.172 115.048 108.637 105.347 108.843V92.8804H118.946V92.3244H129.711C131.775 90.8455 128.774 89.8224 125.425 89.1914C125.562 89.0345 125.683 88.8641 125.785 88.6827L143.027 57.6392C143.027 57.6392 146.994 51.1008 144.443 47.9734C141.891 44.8459 138.21 55.9351 138.21 55.9351L124.046 76.4037C124.046 76.4037 109.735 61.4449 100.654 54.0086C99.6447 53.0046 98.5061 52.1407 97.2685 51.4399C95.6064 50.314 94.3515 49.7275 93.731 49.9582H93.7143C92.3358 49.5749 90.9119 49.3804 89.4814 49.38H88.3484V47.0476C90.887 46.2065 93.2095 44.8136 95.1503 42.9684C97.091 41.1233 98.6022 38.8712 99.5761 36.3727C101.174 33.7163 102.15 30.7303 102.431 27.6401C102.711 24.5499 102.288 21.4361 101.194 18.5339C101.363 18.5134 101.525 18.4565 101.67 18.3671C102.183 18.0363 102.224 17.3107 102.186 16.6991C102 14.6508 101.319 12.6787 100.203 10.9534C99.0874 9.22817 97.5695 7.80158 95.7809 6.797C94.3459 6.01028 92.7004 5.46542 91.6422 4.21445C90.7336 3.13861 90.3513 1.63467 89.2487 0.756213C87.9412 -0.286261 86.0519 -0.108346 84.4479 0.358683C82.6622 0.877416 80.9705 1.67885 79.4365 2.73274C77.7024 3.92533 76.1344 5.45708 74.1371 6.1187C72.7187 6.58851 71.1785 6.57739 69.749 7.0194C68.6525 7.3677 67.6525 7.96873 66.829 8.77439C66.0054 9.58006 65.3813 10.568 65.0064 11.6591C64.6448 12.8272 64.5075 14.0535 64.6019 15.273C63.7328 16.7301 63.0488 18.2907 62.5658 19.9183L62.2445 20.0934L62.5547 19.9544C61.4711 23.6249 61.435 27.5268 62.4506 31.2168C63.4663 34.9067 65.4929 38.2369 68.3002 40.8289C70.5186 43.7271 73.5541 45.8889 77.0126 47.0337V49.8554C74.5451 50.3894 72.1912 51.3569 70.0593 52.7131C70.0593 52.7131 69.8792 52.8243 69.569 53.0356L69.4748 53.0995C67.3777 54.5284 60.3524 59.7436 60.5906 65.3813C60.5906 65.5981 60.5906 65.8159 60.5906 66.0346C60.2071 67.6634 60.0128 69.3314 60.0117 71.0051V111.934C60.0044 116.454 61.5162 120.845 64.3028 124.396C58.3911 125.725 54.6236 127.732 54.6236 129.987C54.6519 130.171 54.6519 130.359 54.6236 130.543C54.6236 134.546 66.5356 137.793 81.2538 137.793C83.0323 137.793 84.7692 137.746 86.4508 137.654L103.072 151.153L76.4502 194.098C76.4502 194.098 67.6686 200.92 74.4667 203.196C81.2649 205.473 95.1493 207.177 95.1493 207.177C95.1493 207.177 97.4154 203.196 94.2989 201.492C91.1823 199.788 86.9328 200.639 86.9328 200.639L87.4868 197.228C87.4868 197.228 133.667 157.425 124.035 143.781C122.192 141.171 120.35 138.477 118.494 135.825L125.763 136.489L127.425 198.971L127.633 198.904C127.218 200.133 124.281 209.396 130.791 207.828C137.761 206.16 150.44 200.23 150.44 200.23C150.44 200.23 150.266 195.643 146.723 195.849ZM118.946 88.338L105.347 84.3765V72.7008L120.126 88.4325C119.4 88.3741 118.946 88.338 118.946 88.338Z" fill="url(#paint1_linear_26_6)"/>
</g>
<path d="M82.5696 47.5424C93.5853 47.5424 102.515 38.5811 102.515 27.5269C102.515 16.4726 93.5853 7.51135 82.5696 7.51135C71.5539 7.51135 62.6239 16.4726 62.6239 27.5269C62.6239 38.5811 71.5539 47.5424 82.5696 47.5424Z" fill="black"/>
<path d="M105.286 73.3958L120.508 89.6111C120.828 89.9528 121.224 90.2139 121.664 90.3732C122.104 90.5325 122.575 90.5854 123.039 90.5277C123.503 90.47 123.947 90.3033 124.334 90.0412C124.722 89.779 125.043 89.4288 125.27 89.019L142.13 58.6649L137.42 56.997L123.569 77.0125C123.569 77.0125 97.5649 49.8136 93.9276 51.1591C90.2902 52.5046 105.286 73.3958 105.286 73.3958Z" fill="#FFC107"/>
<path d="M76.198 129.55L53.7591 187.929" stroke="#BDBDBD" stroke-width="5" stroke-miterlimit="10"/>
<path d="M87.279 129.55L109.718 187.929" stroke="#BDBDBD" stroke-width="5" stroke-miterlimit="10"/>
<path d="M81.7385 137.056C96.1201 137.056 107.779 133.882 107.779 129.967C107.779 126.052 96.1201 122.878 81.7385 122.878C67.3569 122.878 55.6983 126.052 55.6983 129.967C55.6983 133.882 67.3569 137.056 81.7385 137.056Z" fill="#B84733"/>
<path d="M81.7385 136.5C96.1201 136.5 107.779 133.326 107.779 129.411C107.779 125.496 96.1201 122.323 81.7385 122.323C67.3569 122.323 55.6983 125.496 55.6983 129.411C55.6983 133.326 67.3569 136.5 81.7385 136.5Z" fill="#F55F44"/>
<path d="M70.7795 142.374L95.3487 149.972" stroke="#BDBDBD" stroke-width="5" stroke-miterlimit="10"/>
<path d="M92.6948 142.374L68.1256 149.972" stroke="#BDBDBD" stroke-width="5" stroke-miterlimit="10"/>
<path d="M82.0405 50.5947H89.7722C93.8866 50.5947 97.8325 52.2349 100.742 55.1544C103.651 58.0739 105.286 62.0336 105.286 66.1623V107.305H60.9618V71.7528C60.961 68.9745 61.5057 66.2233 62.5647 63.6564C63.6237 61.0894 65.1762 58.7569 67.1336 56.7921C69.091 54.8273 71.415 53.2688 73.9727 52.2054C76.5305 51.142 79.2719 50.5947 82.0405 50.5947Z" fill="#FFC107"/>
<path d="M60.9618 107.305H105.286V131.491H80.6304C75.414 131.491 70.4112 129.411 66.7226 125.71C63.034 122.008 60.9618 116.988 60.9618 111.753V107.305Z" fill="#39447A"/>
<path opacity="0.05" d="M61.5602 67.2911L88.6642 93.1444H118.583V89.2525L92.8195 81.7467L70.7823 54.4366C70.7823 54.4366 60.7734 60.6331 61.5602 67.2911Z" fill="black"/>
<path d="M61.5602 66.7351L88.6642 92.5884H118.583V88.6965L92.8195 81.1907L70.7823 53.8807C70.7823 53.8807 60.7734 60.0771 61.5602 66.7351Z" fill="#FFC107"/>
<path d="M118.583 88.6854C118.583 88.6854 132.988 89.7973 129.11 92.5773H118.583V88.6854Z" fill="#FDA57D"/>
<path d="M137.42 56.9942C137.42 56.9942 141.022 46.1524 143.515 49.2104C146.008 52.2683 142.13 58.6621 142.13 58.6621L137.42 56.9942Z" fill="#FDA57D"/>
<path opacity="0.05" d="M60.9618 107.311V108.606L105.286 108.701V107.311H60.9618Z" fill="black"/>
<path d="M95.4402 133.036L125.248 135.764L126.871 196.85L137.545 193.364C137.545 193.364 153.51 124.143 138.287 118.306C123.065 112.468 106.61 104.787 96.7865 111.05C86.9633 117.313 95.4402 133.036 95.4402 133.036Z" fill="#39447A"/>
<path opacity="0.1" d="M97.2518 114.261C97.2518 114.261 113.596 122.6 115.812 132.052L97.2518 114.261Z" fill="black"/>
<path d="M79.7994 131.218L103.069 150.122L77.0291 192.099L87.833 195.157C87.833 195.157 132.988 156.238 123.569 142.894C114.15 129.55 104.731 113.983 93.0965 113.705C81.4615 113.427 79.7994 131.218 79.7994 131.218Z" fill="#39447A"/>
<path opacity="0.05" d="M116.366 69.7819L122.184 79.7896L123.569 77.0097L116.366 69.7819Z" fill="black"/>
<path d="M77.0292 192.099C77.0292 192.099 68.4415 198.771 75.09 200.995C81.7386 203.218 95.3127 204.886 95.3127 204.886C95.3127 204.886 97.5289 200.995 94.4817 199.327C91.4344 197.659 87.2791 198.493 87.2791 198.493L87.8331 195.157L77.0292 192.099Z" fill="#333333"/>
<path d="M127.121 196.661C127.121 196.661 123.347 207.158 130.168 205.517C136.988 203.877 149.382 198.087 149.382 198.087C149.382 198.087 149.213 193.608 145.748 193.808C142.282 194.009 139.196 196.922 139.196 196.922L137.703 193.205L127.121 196.661Z" fill="#333333"/>
<path d="M88.6641 46.4304C88.6641 43.3598 86.1835 40.8705 83.1236 40.8705C80.0637 40.8705 77.5832 43.3598 77.5832 46.4304V51.9903C77.5832 55.0609 80.0637 57.5501 83.1236 57.5501C86.1835 57.5501 88.6641 55.0609 88.6641 51.9903V46.4304Z" fill="#FDA57D"/>
<path opacity="0.05" d="M83.1236 41.4265C81.6542 41.4265 80.245 42.0123 79.2059 43.055C78.1669 44.0976 77.5832 45.5118 77.5832 46.9864V48.8767C81.1819 50.0648 85.0653 50.0648 88.6641 48.8767V46.9864C88.6641 45.5118 88.0804 44.0976 87.0413 43.055C86.0023 42.0123 84.5931 41.4265 83.1236 41.4265Z" fill="black"/>
<path d="M83.1236 49.2103C92.9154 49.2103 100.853 41.2448 100.853 31.4188C100.853 21.5927 92.9154 13.6272 83.1236 13.6272C73.3319 13.6272 65.3941 21.5927 65.3941 31.4188C65.3941 41.2448 73.3319 49.2103 83.1236 49.2103Z" fill="#FDA57D"/>
<path opacity="0.05" d="M65.3941 30.6098C65.3941 30.6098 69.8265 31.7552 72.3197 26.7012C74.8129 21.6473 76.7521 18.8896 87.002 21.8753C97.2519 24.8609 99.3129 25.2279 99.806 22.4035C100.144 20.4742 96.4983 15.7844 94.1547 13.0101C93.0134 11.6562 91.149 10.8473 89.1683 10.8473H77.5832L70.6576 14.0637L65.3941 18.6589L64.286 24.8637L65.3941 30.6098Z" fill="black"/>
<path d="M65.3941 30.0538C65.3941 30.0538 69.8265 31.1991 72.3197 26.1452C74.8129 21.0913 76.7521 18.3336 87.002 21.3192C97.2519 24.3049 99.3129 24.6718 99.806 21.8474C100.144 19.9182 96.4983 15.2284 94.1547 12.454C93.0134 11.1002 91.149 10.2913 89.1683 10.2913H77.5832L70.6576 13.5076L65.3941 18.1029L64.286 24.3077L65.3941 30.0538Z" fill="black"/>
<path d="M67.1948 33.6427C68.1893 33.6427 68.9954 32.0247 68.9954 30.0288C68.9954 28.0329 68.1893 26.4149 67.1948 26.4149C66.2003 26.4149 65.3941 28.0329 65.3941 30.0288C65.3941 32.0247 66.2003 33.6427 67.1948 33.6427Z" fill="#FDA57D"/>
<path d="M65.9067 20.73C65.4967 18.4032 65.0922 15.9596 65.8402 13.719C66.2065 12.6519 66.8168 11.6858 67.6221 10.898C68.4274 10.1102 69.4053 9.52251 70.4776 9.18212C71.8627 8.75123 73.3808 8.75957 74.7687 8.30088C76.7217 7.65593 78.2536 6.15755 79.9518 4.98998C81.4518 3.95948 83.1061 3.17588 84.8523 2.66874C86.4203 2.21283 88.268 2.03769 89.5479 3.05793C90.6227 3.91693 90.9967 5.38751 91.886 6.43833C92.922 7.6615 94.5288 8.19246 95.9333 8.9625C97.6829 9.94624 99.1672 11.3431 100.258 13.0322C101.348 14.7213 102.012 16.6516 102.191 18.6561C102.238 19.2538 102.191 19.9627 101.687 20.2852C101.375 20.4448 101.024 20.5096 100.676 20.4714C93.5897 20.3686 86.4951 20.2685 79.4393 19.6152C77.2453 19.4123 75.0485 19.1565 72.8461 19.2399C69.4432 19.3753 66.1206 20.3174 63.1503 21.9893" fill="black"/>
<g opacity="0.7">
<path opacity="0.7" d="M48.2022 144.073C48.6589 142.222 48.5469 140.275 47.8809 138.489C47.215 136.703 46.0261 135.161 44.4707 134.065C43.6396 133.509 42.731 133.084 41.9775 132.441C40.7142 131.374 39.9912 129.798 39.4704 128.222C38.2182 124.446 37.8221 120.213 35.6253 116.802C33.6252 113.696 29.733 112.787 26.2785 112.479C25.0208 112.365 23.6994 112.306 22.5498 112.829C20.6245 113.702 19.7075 115.984 19.6217 118.111C19.5358 120.238 20.0843 122.32 20.2228 124.433C20.3613 126.545 19.9845 128.88 18.4277 130.309C16.8708 131.738 14.6463 131.913 12.5825 132.2C9.88051 132.576 7.22573 133.237 4.66238 134.173C2.50991 134.96 0.113652 136.378 0.0111538 138.674C-0.0719533 140.551 1.43783 142.049 2.57085 143.542C4.69008 146.322 5.74831 150.016 5.03082 153.449C4.29948 156.944 1.85336 159.943 1.40735 163.488C1.29378 164.388 1.32702 165.345 1.76194 166.14C2.10728 166.7 2.56253 167.183 3.09997 167.56C4.42968 168.592 5.91453 169.42 7.17221 170.538C9.79563 172.87 11.2168 176.253 12.311 179.595C12.4163 179.917 12.5105 180.242 12.6102 180.565H10.0311C7.50373 180.572 5.08196 181.583 3.29484 183.376C1.50771 185.17 0.500485 187.6 0.493176 190.136C0.500485 192.672 1.50771 195.103 3.29484 196.896C5.08196 198.689 7.50373 199.7 10.0311 199.707H35.7943C38.3216 199.7 40.7434 198.689 42.5305 196.896C44.3177 195.103 45.3249 192.672 45.3322 190.136C45.3293 187.593 44.3205 185.154 42.5276 183.357C40.7346 181.559 38.3039 180.549 35.7694 180.548H28.7163C30.3785 178.305 32.1293 176.198 34.7056 175.333C37.2819 174.468 40.3984 174.977 42.4207 173.173C43.4069 172.295 43.9305 170.994 44.1715 169.693C44.5984 167.336 44.1991 164.904 43.0412 162.809C42.2295 161.356 41.0439 160.03 40.7862 158.389C40.5674 156.983 41.0633 155.557 41.7586 154.308C43.7061 150.753 47.1522 147.992 48.2022 144.073Z" fill="url(#paint2_linear_26_6)"/>
</g>
<path d="M26.1759 114.55C24.9792 114.441 23.7215 114.386 22.6245 114.883C20.7933 115.717 19.9179 117.889 19.8348 119.904C19.7517 121.919 20.2753 123.91 20.4055 125.925C20.5357 127.941 20.1784 130.156 18.6963 131.521C17.2142 132.886 15.095 133.048 13.1309 133.32C10.5574 133.678 8.02892 134.308 5.58752 135.199C3.53755 135.947 1.25487 137.301 1.15515 139.486C1.07758 141.273 2.51256 142.699 3.59295 144.12C5.61246 146.78 6.61805 150.286 5.9338 153.555C5.2357 156.891 2.90594 159.74 2.48486 163.115C2.37682 163.971 2.40729 164.883 2.82283 165.639C3.15156 166.173 3.58515 166.633 4.09713 166.993C5.36313 167.975 6.77595 168.764 7.97546 169.829C10.4687 172.053 11.8261 175.272 12.8677 178.447C13.8923 181.577 14.6949 184.776 15.2695 188.021C17.422 186.631 20.2033 186.653 22.4998 185.519C27.3893 183.114 29.0348 176.142 34.1985 174.399C36.6419 173.579 39.6199 174.06 41.5452 172.342C42.4843 171.508 42.9829 170.268 43.2073 169.028C43.6137 166.79 43.2369 164.479 42.1408 162.487C41.3679 161.097 40.2376 159.846 39.9911 158.278C39.7805 156.938 40.2681 155.582 40.9163 154.386C42.7724 151 46.0551 148.373 47.0552 144.64C47.4926 142.875 47.3872 141.019 46.7527 139.316C46.1182 137.613 44.9846 136.143 43.501 135.099C42.717 134.568 41.8388 134.165 41.1186 133.553C39.9135 132.536 39.2293 131.035 38.7306 129.536C37.5366 125.942 37.1599 121.908 35.0684 118.661C33.1708 115.709 29.4642 114.842 26.1759 114.55Z" fill="#4DB6AC"/>
<path opacity="0.6" d="M26.1399 114.672C26.1399 114.672 30.6831 175.722 18.8708 186.216" stroke="#535461" stroke-miterlimit="10"/>
<path d="M35.2263 179.381H10.7014C5.68623 179.381 1.62061 183.46 1.62061 188.493V188.496C1.62061 193.529 5.68623 197.609 10.7014 197.609H35.2263C40.2415 197.609 44.3072 193.529 44.3072 188.496V188.493C44.3072 183.46 40.2415 179.381 35.2263 179.381Z" fill="#FFC107"/>
<path opacity="0.6" d="M1.1663 138.368C1.1663 138.368 12.7764 137.009 26.9517 145.663" stroke="#535461" stroke-miterlimit="10"/>
<path opacity="0.6" d="M26.7245 152.949C26.7245 152.949 33.1764 142.241 47.0275 140.192" stroke="#535461" stroke-miterlimit="10"/>
<path opacity="0.6" d="M2.30202 163.212C2.30202 163.212 18.3943 160.474 25.7881 165.033" stroke="#535461" stroke-miterlimit="10"/>
<path opacity="0.6" d="M24.8711 171.288C24.8711 171.288 33.2954 167.452 42.7724 170.568" stroke="#535461" stroke-miterlimit="10"/>
<path d="M161.15 114.308C161.26 114.308 161.366 114.264 161.444 114.186C161.522 114.108 161.566 114.002 161.566 113.891C161.566 113.78 161.522 113.674 161.444 113.596C161.366 113.518 161.26 113.474 161.15 113.474C161.04 113.474 160.934 113.518 160.856 113.596C160.778 113.674 160.735 113.78 160.735 113.891C160.735 114.002 160.778 114.108 160.856 114.186C160.934 114.264 161.04 114.308 161.15 114.308Z" fill="url(#paint3_linear_26_6)"/>
<path d="M222.123 95.6352L250.933 198.518" stroke="#E0E0E0" stroke-width="8" stroke-miterlimit="10"/>
<path d="M251.05 92.6218H95.4706V98.7043H251.05V92.6218Z" fill="#E0E0E0"/>
<path d="M157.504 91.1873H135.62C134.625 91.1873 133.819 91.9963 133.819 92.9942C133.819 93.9922 134.625 94.8012 135.62 94.8012H157.504C158.499 94.8012 159.305 93.9922 159.305 92.9942C159.305 91.9963 158.499 91.1873 157.504 91.1873Z" fill="#535461"/>
<g opacity="0.7">
<path opacity="0.7" d="M204.859 50.895H157.15C152.832 50.895 149.332 54.4073 149.332 58.74V87.0008C149.332 91.3334 152.832 94.8457 157.15 94.8457H204.859C209.176 94.8457 212.676 91.3334 212.676 87.0008V58.74C212.676 54.4073 209.176 50.895 204.859 50.895Z" fill="url(#paint4_linear_26_6)"/>
</g>
<path d="M203.031 51.704H157.895C153.789 51.704 150.46 55.0445 150.46 59.1653V87.3816C150.46 91.5024 153.789 94.8429 157.895 94.8429H203.031C207.137 94.8429 210.466 91.5024 210.466 87.3816V59.1653C210.466 55.0445 207.137 51.704 203.031 51.704Z" fill="#3E3F49"/>
<path d="M203.862 51.704H158.726C154.62 51.704 151.291 55.0445 151.291 59.1653V87.3816C151.291 91.5024 154.62 94.8429 158.726 94.8429H203.862C207.968 94.8429 211.297 91.5024 211.297 87.3816V59.1653C211.297 55.0445 207.968 51.704 203.862 51.704Z" fill="#535461"/>
<path d="M184.099 74.9247C185.17 74.9247 186.038 74.0535 186.038 72.9787C186.038 71.904 185.17 71.0328 184.099 71.0328C183.028 71.0328 182.16 71.904 182.16 72.9787C182.16 74.0535 183.028 74.9247 184.099 74.9247Z" fill="#E0E0E0"/>
</g>
<defs>
<linearGradient id="paint0_linear_26_6" x1="227.071" y1="93.1055" x2="227.071" y2="76.1451" gradientUnits="userSpaceOnUse">
<stop stop-color="#808080" stop-opacity="0.25"/>
<stop offset="0.54" stop-color="#808080" stop-opacity="0.12"/>
<stop offset="1" stop-color="#808080" stop-opacity="0.1"/>
</linearGradient>
<linearGradient id="paint1_linear_26_6" x1="49593.9" y1="171429" x2="49593.9" y2="15786.4" gradientUnits="userSpaceOnUse">
<stop stop-color="#808080" stop-opacity="0.25"/>
<stop offset="0.54" stop-color="#808080" stop-opacity="0.12"/>
<stop offset="1" stop-color="#808080" stop-opacity="0.1"/>
</linearGradient>
<linearGradient id="paint2_linear_26_6" x1="7119.33" y1="55744.5" x2="15604.6" y2="55744.5" gradientUnits="userSpaceOnUse">
<stop stop-color="#808080" stop-opacity="0.25"/>
<stop offset="0.54" stop-color="#808080" stop-opacity="0.12"/>
<stop offset="1" stop-color="#808080" stop-opacity="0.1"/>
</linearGradient>
<linearGradient id="paint3_linear_26_6" x1="766.274" y1="519.665" x2="766.274" y2="517.163" gradientUnits="userSpaceOnUse">
<stop stop-color="#808080" stop-opacity="0.25"/>
<stop offset="0.54" stop-color="#808080" stop-opacity="0.12"/>
<stop offset="1" stop-color="#808080" stop-opacity="0.1"/>
</linearGradient>
<linearGradient id="paint4_linear_26_6" x1="41537.8" y1="15046" x2="41537.8" y2="8097.39" gradientUnits="userSpaceOnUse">
<stop stop-color="#808080" stop-opacity="0.25"/>
<stop offset="0.54" stop-color="#808080" stop-opacity="0.12"/>
<stop offset="1" stop-color="#808080" stop-opacity="0.1"/>
</linearGradient>
<clipPath id="clip0_26_6">
<rect width="252" height="208" fill="white"/>
</clipPath>
</defs>
</svg>
